<svg xmlns="http://www.w3.org/2000/svg" width="147.045" height="138.396" viewBox="0 0 147.045 138.396"> 
  <g id="icon" transform="translate(-138.667 -158.294)">
    <path id="8298" data-name="8298" d="M458.667,296.689m0-8.65v-121.1q0-8.65,8.65-8.65h0q8.65,0,8.65,8.65v121.1q0,8.65-8.65,8.65h0Q458.667,296.689,458.667,288.039Z" transform="translate(-255.127)" fill="#707070"/>
    <path id="8299" data-name="8299" d="M618.667,347.423m0-8.65v-86.5q0-8.65,8.65-8.65h0q8.65,0,8.65,8.65v86.5q0,8.65-8.65,8.65h0Q618.667,347.423,618.667,338.774Z" transform="translate(-382.691 -68.034)" fill="#707070"/>
    <path id="8300" data-name="8300" d="M298.667,347.423m0-8.65v-86.5q0-8.65,8.65-8.65h0q8.65,0,8.65,8.65v86.5q0,8.65-8.65,8.65h0Q298.667,347.423,298.667,338.774Z" transform="translate(-127.564 -68.034)" fill="#707070"/>
    <path id="8301" data-name="8301" d="M778.667,398.157m0-8.65v-51.9q0-8.65,8.65-8.65h0q8.65,0,8.65,8.65v51.9q0,8.65-8.65,8.65h0Q778.667,398.157,778.667,389.508Z" transform="translate(-510.254 -136.067)" fill="#707070"/>
    <path id="8302" data-name="8302" d="M138.667,398.157m0-8.65v-51.9q0-8.65,8.65-8.65h0q8.65,0,8.65,8.65v51.9q0,8.65-8.65,8.65h0Q138.667,398.157,138.667,389.508Z" transform="translate(0 -136.067)" fill="#707070"/>
  </g>
</svg>
