<svg xmlns="http://www.w3.org/2000/svg" width="75" height="74.998" viewBox="0 0 75 74.998">
  <path id="cancel" d="M8464.5-1311a37.269,37.269,0,0,1-14.6-2.947,37.387,37.387,0,0,1-11.921-8.036,37.394,37.394,0,0,1-8.036-11.919,37.266,37.266,0,0,1-2.946-14.6,37.272,37.272,0,0,1,2.946-14.6,37.381,37.381,0,0,1,8.036-11.92,37.385,37.385,0,0,1,11.921-8.036,37.267,37.267,0,0,1,14.6-2.947,37.262,37.262,0,0,1,14.6,2.947,37.385,37.385,0,0,1,11.921,8.036,37.4,37.4,0,0,1,8.036,11.92,37.25,37.25,0,0,1,2.947,14.6,37.244,37.244,0,0,1-2.947,14.6,37.392,37.392,0,0,1-8.036,11.919,37.387,37.387,0,0,1-11.921,8.036A37.267,37.267,0,0,1,8464.5-1311Zm-21.5-42a5.006,5.006,0,0,0-5,5,5.006,5.006,0,0,0,5,5h43a5.006,5.006,0,0,0,5-5,5.006,5.006,0,0,0-5-5Z" transform="translate(-8427 1385.999)" fill="#ff80a5"/>
</svg>
