<svg t="1662559764599" class="icon send-audio" viewBox="0 0 1024 1024" version="1.1" xmlns="http://www.w3.org/2000/svg" p-id="12627" xmlns:xlink="http://www.w3.org/1999/xlink" width="52" height="40">
	<path d="M1011.2 172.8c-12.8-19.2-35.2-28.8-57.6-28.8-6.4 0-12.8 0-16 3.2l-883.2 224c-28.8 6.4-48 28.8-51.2 57.6-3.2 28.8 9.6 54.4 32 70.4L220.8 608v246.4c0 9.6 6.4 19.2 12.8 22.4 9.6 3.2 19.2 3.2 25.6-3.2l176-137.6 144 86.4c12.8 6.4 22.4 9.6 35.2 9.6 22.4 0 44.8-12.8 60.8-32L1014.4 249.6c12.8-22.4 12.8-54.4-3.2-76.8zM611.2 745.6l-220.8-131.2 224-192c3.2-3.2 3.2-6.4 3.2-9.6-3.2-3.2-6.4-6.4-9.6-3.2L268.8 540.8l-163.2-99.2L928 233.6l-316.8 512z" p-id="12628" fill="#587EFD"></path>
</svg>