<svg xmlns="http://www.w3.org/2000/svg" width="29.62" height="32.979" viewBox="0 0 29.62 32.979">
  <g id="_3" data-name="3" transform="translate(-66.908 -312)">
    <path id="_3725" data-name="3725" d="M142.761,117.407a1.99,1.99,0,0,1-.975-.257l-12.835-7.273a1.975,1.975,0,0,1-1-1.718V93.675a1.975,1.975,0,0,1,1-1.718l12.835-7.273a1.978,1.978,0,0,1,1.949,0l12.835,7.275a1.975,1.975,0,0,1,1,1.716V108.16a1.975,1.975,0,0,1-1,1.718l-12.835,7.273a1.987,1.987,0,0,1-.974.257Zm-7.346-22.053a.983.983,0,0,0-.494,1.836l6.84,3.949.036.02v6.67a.987.987,0,0,0,1.975,0v-6.661l.038-.02,6.84-3.949a.984.984,0,0,0-.989-1.7l-6.84,3.949h-.012l-.022.014-.03-.018-6.848-3.949a.987.987,0,0,0-.494-.138Z" transform="translate(-61.041 227.572)" fill="#adc4f9"/>
  </g>
</svg>
