<svg xmlns="http://www.w3.org/2000/svg" width="29.678" height="33.907" viewBox="0 0 29.678 33.907">
  <g id="Arbitration" transform="translate(-533.957 -526.854)">
    <g id="a">
      <g id="a-2" data-name="a" transform="translate(533.957 526.854)">
        <path id="Arbitrate" d="M102.309,74.177l-.817.817a1.824,1.824,0,0,1-.477,1.762l-1.29,1.291a1.824,1.824,0,0,1-2.58,0L91.986,72.89a1.824,1.824,0,0,1,0-2.58l1.29-1.29a1.824,1.824,0,0,1,1.762-.477l5.506-5.506a1.824,1.824,0,0,1,.477-1.762l1.29-1.29a1.824,1.824,0,0,1,2.58,0l5.161,5.16a1.824,1.824,0,0,1,0,2.58l-1.291,1.29a1.824,1.824,0,0,1-1.762.477l-.817.817,9.677,9.677a1.824,1.824,0,0,1,0,2.58l-1.291,1.291a1.824,1.824,0,0,1-2.579,0Zm-1.935-.645,5.161-5.161L101.664,64.5,96.5,69.661Zm3.871-11.611a.912.912,0,0,0-1.29,1.29l3.87,3.871a.912.912,0,0,0,1.29-1.29Zm-9.032,9.036a.912.912,0,0,0-1.29,1.29l3.871,3.87a.912.912,0,1,0,1.29-1.29Zm10.971,1.933a.913.913,0,1,0-1.29,1.291l7.74,7.74a.912.912,0,0,0,1.29-1.29l-7.747-7.741Z" transform="translate(-86.716 -53.146)" fill="#fff"/>
        <path id="a-3" data-name="a" d="M92.407-3.9A4.442,4.442,0,0,1,96.891.017l0,.132V14.425q-.153,1.153-1.128,1.154a1.1,1.1,0,0,1-1.13-1.036l-.02-.118V.2a2.184,2.184,0,0,0-2.1-1.855l-.106,0H72.443a1.861,1.861,0,0,0-1.9,1.7l0,.1V25.618a2.067,2.067,0,0,0,1.779,2.038l.1,0,17.366.111q1.125.284,1.125,1.09,0,.758-1,1.108l-.129.042L72.428,29.9a4.276,4.276,0,0,1-4.159-4.1l0-.132V.1A4.081,4.081,0,0,1,72.3-3.9l.14,0H92.407Z" transform="translate(-68.267 3.898)" fill="#fff"/>
        <path id="a-4" data-name="a" d="M.948,0h10.3a.948.948,0,1,1,0,1.9H.948a.948.948,0,1,1,0-1.9Z" transform="translate(5.728 26.677)" fill="#fff"/>
      </g>
    </g>
  </g>
</svg>
