<svg t="1671789284160" class="icon" viewBox="0 0 1024 1024" version="1.1" xmlns="http://www.w3.org/2000/svg" p-id="1205" width="12" height="12"><path d="M96.14222222 493.34044444l418.24711111 386.84444445 418.24711112-386.84444445c25.6-16.49777778 59.73333333-16.49777778 76.8 0 17.06666667 24.68977778 17.06666667 57.68533333 0 74.06933333L531.34222222 1003.51999998c0 8.192-8.53333333 8.192-17.06666667 8.19200001s-8.53333332 0-17.06666666-8.192l-478.09422222-436.11022222c-25.6-24.68977778-17.06666667-57.57155555 0-74.06933333 25.82755555-16.49777778 59.96088889-16.49777778 77.02755555 0zM531.56977778 625.09511111c0 8.192-8.53333333 8.192-17.06666667 8.19199999s-17.06666666 0-17.06666666-8.19199999L19.34222222 188.98488888c-25.6-24.68977778-17.06666667-57.57155555 0-74.06933333 25.6-16.384 59.73333333-16.384 76.8 0L514.50311111 501.64622221 932.75022222 106.60977777c25.6-16.49777778 59.73333333-16.49777778 76.8 0 17.06666667 24.68977778 17.06666667 57.68533333 0 74.06933334l-477.98044444 444.416z m0 0" fill="#8a8a8a" p-id="1206"></path></svg>