<svg t="1671789607327" class="icon" viewBox="0 0 1024 1024" version="1.1" xmlns="http://www.w3.org/2000/svg" p-id="1348" width="12" height="12"><path d="M927.85777778 615.99288888l-418.24711111-386.84444444-418.24711112 386.84444445c-25.6 16.49777778-59.73333333 16.49777778-76.8-1e-8-17.06666667-24.68977778-17.06666667-57.68533333 0-74.06933334L492.65777778 105.81333334c0-8.192 8.53333333-8.192 17.06666667-8.19200001s8.53333332 0 17.06666666 8.192l478.09422222 436.11022222c25.6 24.68977778 17.06666667 57.57155555 0 74.06933334-25.82755555 16.49777778-59.96088889 16.49777778-77.02755555-1e-8zM492.43022222 484.23822221c0-8.192 8.53333333-8.192 17.06666667-8.19199999s17.06666666 0 17.06666666 8.19199999L1004.65777778 920.34844444c25.6 24.68977778 17.06666667 57.57155555 0 74.06933333-25.6 16.384-59.73333333 16.384-76.8 0L509.49688889 607.68711112 91.24977778 1002.72355555c-25.6 16.49777778-59.73333333 16.49777778-76.8 0-17.06666667-24.68977778-17.06666667-57.68533333 0-74.06933334l477.98044444-444.416z m0 0" fill="#8a8a8a" p-id="1349"></path></svg>