<svg xmlns="http://www.w3.org/2000/svg" width="32" height="32" viewBox="0 0 26.503 27.619">
  <g id="_9" data-name="9" transform="translate(-631.915 -82.601)">
    <g id="_4473" data-name="4473" transform="translate(534.097 17.649)">
      <path id="_3519" data-name="3519" d="M121.441,427.194h-6.833v-7.032h-1.792v7.032h-3.494v-7.032H107.53v7.032H100.7a2.879,2.879,0,0,0-2.879,2.879v3.463a2.879,2.879,0,0,0,2.879,2.879h20.744a2.879,2.879,0,0,0,2.879-2.879v-3.463A2.88,2.88,0,0,0,121.441,427.194Zm1.088,6.343a1.089,1.089,0,0,1-1.088,1.088H100.7a1.089,1.089,0,0,1-1.088-1.088v-3.463a1.089,1.089,0,0,1,1.088-1.088h20.744a1.089,1.089,0,0,1,1.088,1.088Z" transform="translate(0 -343.845)" fill="#fff"/>
      <path id="_3520" data-name="3520" d="M324.237,66.744a4.447,4.447,0,1,1-4.447,4.447,4.447,4.447,0,0,1,4.447-4.447m0-1.792a6.224,6.224,0,1,0,2.429.491A6.2,6.2,0,0,0,324.237,64.952Z" transform="translate(-213.137 0)" fill="#fff"/>
    </g>
  </g>
</svg>
