<svg xmlns="http://www.w3.org/2000/svg" width="32" height="32" viewBox="0 0 29.873 27.368">
  <g id="_6" data-name="6" transform="translate(-549.139 -83.027)">
    <path id="_3823" data-name="3823" d="M93.754,109.928q-2.768-3.95-5.535-7.9a.942.942,0,0,0-.769-.445h-17.7a.818.818,0,0,0-.625.259l-.014.015-.005.006a1.034,1.034,0,0,0-.121.16l-4.849,7.908a.869.869,0,0,0,.1,1.018c.014.02.028.041.043.06q6.865,8.815,13.729,17.632a.7.7,0,0,0,.674.3.736.736,0,0,0,.579-.3l14.354-17.632a.946.946,0,0,0,.067-.094.807.807,0,0,0,.072-.984h0Zm-2.469-.441H85.83q.934-2.56,1.87-5.12,1.792,2.56,3.585,5.12h0Zm-12.651-5.71,3.9,5.71H74.62q2.006-2.855,4.014-5.71Zm4.663,7.49-4.64,12.707c-1.5-4.249-3.014-8.487-4.579-12.707Zm.9-2.473-3.707-5.435h5.692q-.993,2.718-1.985,5.435ZM73.08,108.6q-.993-2.626-2.024-5.241h5.708L73.08,108.6h0Zm-3.493-4.16q.989,2.517,1.939,5.046H66.493l3.095-5.046h0Zm2.605,6.826c1.619,4.352,3.178,8.725,4.73,13.108L66.715,111.266h5.477Zm12.987,0h5.946L80.343,124.511q2.419-6.623,4.837-13.245Z" transform="translate(485.121 -18.552)" fill="#fff"/>
  </g>
</svg>
