<svg xmlns="http://www.w3.org/2000/svg" width="33.27" height="33.269" viewBox="0 0 33.27 33.269">
  <path id="Dashboard" d="M91.328,94.893a1.188,1.188,0,1,1,0,2.376H69.941a1.188,1.188,0,1,1,0-2.376ZM93.7,64a3.565,3.565,0,0,1,3.565,3.565V88.952A3.565,3.565,0,0,1,93.7,92.517H67.565A3.565,3.565,0,0,1,64,88.952V67.565A3.565,3.565,0,0,1,67.565,64Zm.02,2.376H67.565a1.188,1.188,0,0,0-1.188,1.169V88.952a1.188,1.188,0,0,0,1.169,1.188H93.7a1.188,1.188,0,0,0,1.188-1.169V67.565A1.188,1.188,0,0,0,93.724,66.376Zm-2.041,9.385.012.016a1.188,1.188,0,0,1-.246,1.648l-.016.012-5.891,4.285a2.376,2.376,0,0,1-2.643.1l-5.993-3.688a.594.594,0,0,0-.676.037l-4.371,3.4A1.188,1.188,0,0,1,70.2,81.38l-.012-.015a1.188,1.188,0,0,1,.193-1.655L70.4,79.7l4.7-3.653a2.376,2.376,0,0,1,2.7-.148l6,3.7a.594.594,0,0,0,.661-.026l5.57-4.051a1.188,1.188,0,0,1,1.648.246Z" transform="translate(-64 -64)" fill="#fff"/>
</svg>
