<svg t="1674017273167" class="icon" viewBox="0 0 1024 1024" version="1.1" xmlns="http://www.w3.org/2000/svg" p-id="1279" width="32" height="32"><path d="M512-1.54022546c-215.80885055 0-390.78899965 174.9801491-390.78899965 390.78899966 0 147.8052017 82.05508507 276.25653842 202.9504608 342.80201937v140.11667998c0 29.16335819 23.86092942 53.02428761 53.02428762 53.02428761h269.76106319c29.16335819 0 53.02428761-23.86092942 53.02428759-53.02428761V732.05079357c120.89537573-66.41292022 202.95046081-194.99681767 202.95046082-342.80201937-0.13256073-215.80885055-175.11270981-390.78899965-390.92156037-390.78899966z m134.81425123 873.57513829l-269.62850246 0.13256072s-0.13256073 0-0.13256073-0.13256072v-55.27781982h269.76106319v55.27781982z m27.57262957-186.51293164l-27.44006884 15.11192197v56.20574486H377.18574877v-56.20574486l-27.44006884-15.11192197c-52.22892329-28.63311531-96.10652128-70.78742395-126.99316882-121.82330077-31.68201184-52.49404473-48.51722316-112.80917187-48.51722316-174.44990622 0-45.60088734 8.88156818-89.87616749 26.51214382-131.50023327 16.96777203-40.16589787 41.35894433-76.35497415 72.37815257-107.3741824 31.01920825-31.01920825 67.20828453-55.41038055 107.3741824-72.37815258 41.62406576-17.63057563 85.89934592-26.51214381 131.50023326-26.5121438s89.87616749 8.88156818 131.50023326 26.5121438c40.16589787 16.96777203 76.35497415 41.35894433 107.3741824 72.37815258 31.01920825 31.01920825 55.41038055 67.20828453 72.37815257 107.3741824 17.63057563 41.62406576 26.51214381 85.89934592 26.51214382 131.50023327 0 61.64073435-16.70265059 121.95586149-48.51722316 174.44990622-30.75408681 51.03587682-74.6316848 93.19018547-126.86060809 121.82330077zM616.45784658 965.49021974H407.54215342c-14.58167909 0-26.51214381 11.93046471-26.5121438 26.5121438v7.02571811c0 14.58167909 11.93046471 26.51214381 26.5121438 26.51214381h208.78313245c14.58167909 0 26.51214381-11.93046471 26.51214379-26.51214381v-7.02571811c0.13256073-14.58167909-11.79790399-26.51214381-26.37958308-26.5121438z" p-id="1280" fill="#ffffff"></path></svg>