<svg t="1686731729507" class="icon" viewBox="0 0 1024 1024" version="1.1" xmlns="http://www.w3.org/2000/svg" p-id="6103" width="30" height="30"><path d="M801.4336 599.4496C660.48 629.76 552.1408 741.12 528.64 880.64H211.968a139.008 139.008 0 0 1-134.144-104.5504 350.0032 350.0032 0 0 1-9.472-115.1488 379.8016 379.8016 0 0 1 222.3104-320c1.4336-0.6144 2.7648-1.1776 4.1472-1.8944-5.376-5.632-10.9056-10.8544-15.9232-16.5376a168.6528 168.6528 0 0 1-43.8784-94.8736c-5.12-41.9328 25.088-72.5504 61.9008-79.9744A90.7264 90.7264 0 0 1 353.28 153.6a4.8128 4.8128 0 0 0 6.2976-1.0752 120.064 120.064 0 0 1 160.2048 0.8704c2.304 2.2528 3.9424 1.5872 6.3488 0.5632 34.4064-14.0288 67.1744-11.264 95.8976 12.6464a61.44 61.44 0 0 1 20.9408 67.7888c-3.1744 11.5712-5.5296 23.3472-9.6256 34.56a166.0416 166.0416 0 0 1-43.52 63.5392c-1.8944 1.8432-3.7888 3.4816-5.632 5.12 0 0 0 0.5632-0.3584 0.6656 11.1104 5.632 22.528 10.8032 33.3312 16.9472 93.7472 53.7088 153.6 132.7616 181.8624 235.1104 0.768 2.9696 1.5872 5.9392 2.304 8.9088z m-290.8672-87.04l36.864-65.0752-49.8176-27.0336L445.44 512.5632h-15.7696l-52.224-92.16L327.68 447.488l36.9152 65.0752H295.1168v56.32h284.8256v-56.32z m-101.5296 97.28H295.1168v56.32h113.92v72.5504H465.92v-72.3968h113.92v-56.32H465.92v-40.6016H409.088v40.6016z m545.4848 154.9312a7.7824 7.7824 0 0 1-0.4608 11.3664l-111.1552 98.6624a8.704 8.704 0 0 1-11.9296-0.4096v-57.7536c-27.3408-0.9728-122.4704 2.1504-181.6576 85.1456 0 0 21.2992-180.5312 181.5552-186.2144v-66.304a8.704 8.704 0 0 1 11.9296 0.4096l112.0256 114.9952z" fill="#1F7246" p-id="6104"></path></svg>