<?xml version="1.0" standalone="no"?><!DOCTYPE svg PUBLIC "-//W3C//DTD SVG 1.1//EN" "http://www.w3.org/Graphics/SVG/1.1/DTD/svg11.dtd"><svg t="1667890813736" class="icon" viewBox="0 0 1024 1024" version="1.1" xmlns="http://www.w3.org/2000/svg" p-id="5916" width="32" height="32" xmlns:xlink="http://www.w3.org/1999/xlink"><path d="M896.7 783.5L727 613.8a40.1 40.1 0 0 0-56.6 0l-2.8 2.9-135.8-135.8 65.1-65.1 16.9 17a40.1 40.1 0 0 0 56.6 0l33.9-33.9a39.9 39.9 0 0 0 0-56.6l-214.9-215a40.1 40.1 0 0 0-56.6 0l-33.9 34a39.8 39.8 0 0 0 0 56.5l16.9 17-181 181-17-16.9a39.8 39.8 0 0 0-56.5 0l-34 33.9a40.1 40.1 0 0 0 0 56.6l215 214.9a39.9 39.9 0 0 0 56.6 0l33.9-33.9a40.1 40.1 0 0 0 0-56.6l-17-16.9 65.1-65.1 135.8 135.8-2.9 2.8a40.1 40.1 0 0 0 0 56.6l169.7 169.7a40.1 40.1 0 0 0 56.6 0l56.6-56.6a40.1 40.1 0 0 0 0-56.6z" p-id="5917" fill="#ffffff"></path></svg>