<svg id="Initial_PO" data-name="Initial PO" xmlns="http://www.w3.org/2000/svg" width="37.383" height="34.998" viewBox="0 0 37.383 34.998">
  <g id="a" transform="translate(20.277 18.783)">
    <text id="IN" transform="translate(4.107 11.214)" fill="#fff" font-size="8" font-family="Helvetica-Bold, Helvetica" font-weight="700" letter-spacing="0.01em"><tspan x="0" y="0">IN</tspan></text>
    <g id="a-2" data-name="a" transform="translate(0.107 0.214)" fill="none" stroke="#fff" stroke-width="2">
      <ellipse cx="8.5" cy="8" rx="8.5" ry="8" stroke="none"/>
      <ellipse cx="8.5" cy="8" rx="7.5" ry="7" fill="none"/>
    </g>
  </g>
  <path id="a-3" data-name="a" d="M19.469,31.269H8.1A5.308,5.308,0,0,1,2.81,25.981V9.629a.122.122,0,0,0-.136-.135H1.26A1.207,1.207,0,0,1,0,8.35V3.778A3.925,3.925,0,0,1,4.05,0H23.83a4.054,4.054,0,0,1,4.05,4.049V17a10.033,10.033,0,0,0-2.441.48V4.069a1.657,1.657,0,0,0-1.608-1.8,1.8,1.8,0,0,0-1.8,1.8V8.35a1.192,1.192,0,0,1-1.259,1.143H5.347a.122.122,0,0,0-.135.135V25.942a2.743,2.743,0,0,0,2.867,2.867H18.693a9.992,9.992,0,0,0,.776,2.459ZM4.031,2.422c-1.044,0-1.8.57-1.8,1.356v3.2a.122.122,0,0,0,.135.135H19.645a.122.122,0,0,0,.136-.135V4.223a4.169,4.169,0,0,1,.329-1.607.166.166,0,0,0,0-.095.318.318,0,0,1,0-.042.118.118,0,0,0-.116-.057ZM19.22,23.384H9.2a1.123,1.123,0,1,1,0-2.247H20.446a10.042,10.042,0,0,0-1.226,2.246Zm2.247-6.006H9.2a1.124,1.124,0,0,1,0-2.248H21.467a1.124,1.124,0,0,1,0,2.248Z" transform="translate(0 0)" fill="#fff"/>
</svg>
