<svg t="1671693517081" class="icon" viewBox="0 0 1024 1024" version="1.1" xmlns="http://www.w3.org/2000/svg" p-id="2699" width="20" height="20"><path d="M1024 512C1024 230.4 793.6 0 512 0 373.333333 0 245.333333 55.466667 153.6 147.2l-2.133333 2.133333-2.133334 2.133334-2.133333 2.133333C55.466667 245.333333 0 373.333333 0 512c0 281.6 230.4 512 512 512 138.666667 0 266.666667-55.466667 358.4-147.2l2.133333-2.133333 2.133334-2.133334 2.133333-2.133333C968.533333 778.666667 1024 650.666667 1024 512z m-85.333333 0c0 102.4-36.266667 196.266667-96 268.8L243.2 181.333333C315.733333 121.6 409.6 85.333333 512 85.333333c234.666667 0 426.666667 192 426.666667 426.666667zM85.333333 512c0-102.4 36.266667-196.266667 96-268.8l599.466667 599.466667C708.266667 902.4 614.4 938.666667 512 938.666667 277.333333 938.666667 85.333333 746.666667 85.333333 512z" p-id="2700" fill="#8a8a8a"></path></svg>