<svg xmlns="http://www.w3.org/2000/svg" width="28.961" height="31.594" viewBox="0 0 28.961 31.594">
  <g id="invoice" transform="translate(-149.333 -128)">
    <path id="4117" data-name="4117" d="M406.649,322.633h10.531a1.316,1.316,0,1,0,0-2.633H406.649a1.316,1.316,0,0,0,0,2.633Zm10.531,2.633H406.649a1.316,1.316,0,0,0,0,2.633h10.531a1.316,1.316,0,1,0,0-2.633Z" transform="translate(-245.468 -184.101)" fill="#fff"/>
    <path id="4118" data-name="4118" d="M176.539,128H156.354a1.76,1.76,0,0,0-1.755,1.755v19.308h-3.51a1.76,1.76,0,0,0-1.755,1.755v4.3a4.5,4.5,0,0,0,4.476,4.476h2.106a1.316,1.316,0,0,0,0-2.633h-1.58a2.36,2.36,0,0,1-2.37-2.37v-2.9h15.8v5.266h-3.949a1.316,1.316,0,1,0,0,2.633h11.848a2.586,2.586,0,0,0,2.633-2.633V129.755A1.76,1.76,0,0,0,176.539,128ZM170.4,156.961v-6.143a1.76,1.76,0,0,0-1.755-1.755H157.232v-18.43h18.43v26.329H170.4Z" fill="#fff"/>
  </g>
</svg>
