<svg xmlns="http://www.w3.org/2000/svg" width="24.694" height="26.041" viewBox="0 0 24.694 26.041">
  <g id="_5" data-name="5" transform="translate(-190.806 -193.459)">
    <g id="_3893" data-name="3893" transform="translate(190.806 193.459)">
      <path id="_3495" data-name="3495" d="M465.332,0m0,1.251V12.095a1.106,1.106,0,0,1-1.251,1.251h0a1.106,1.106,0,0,1-1.251-1.251V1.251A1.106,1.106,0,0,1,464.081,0h0a1.106,1.106,0,0,1,1.251,1.251Z" transform="translate(-451.734 0)" fill="#fff"/>
      <path id="_3496" data-name="3496" d="M4.244,143.636a1.158,1.158,0,0,1,1.065.738,1.255,1.255,0,0,1-.231,1.315,10.861,10.861,0,0,0,.235,14.729,9.713,9.713,0,0,0,14.068,0,10.861,10.861,0,0,0,.235-14.729,1.254,1.254,0,0,1,.2-1.526,1.118,1.118,0,0,1,1.468-.09,13.367,13.367,0,0,1-.275,18.136,11.954,11.954,0,0,1-17.322,0,13.367,13.367,0,0,1-.275-18.136,1.125,1.125,0,0,1,.833-.436Z" transform="translate(0 -139.883)" fill="#fff"/>
    </g>
  </g>
</svg>
