<svg xmlns="http://www.w3.org/2000/svg" width="33.411" height="34.859" viewBox="0 0 33.411 34.859">
  <g id="Mobius_task" data-name="Mobius task" transform="translate(-134.225 -126.715)">
    <path id="a" d="M564.3,558.319a7.529,7.529,0,1,1-7.529-7.529A7.529,7.529,0,0,1,564.3,558.319Zm-7.091-2.545a.548.548,0,0,0-.548-.548h-.5a.548.548,0,0,0-.548.548v2.784a.548.548,0,0,0,.548.548h.5a.548.548,0,0,0,.548-.548Zm-.886,2.167a.616.616,0,0,0-.667.548v.5a.616.616,0,0,0,.667.548h3.388a.616.616,0,0,0,.667-.548v-.5a.616.616,0,0,0-.667-.548Zm.448-5.262a5.64,5.64,0,1,0,5.64,5.64A5.64,5.64,0,0,0,556.774,552.679Z" transform="translate(-396.668 -404.366)" fill="#fff"/>
    <path id="a-2" data-name="a" d="M623.921,184.142v13.232a8.3,8.3,0,0,1,2.4.62V182.941a1.2,1.2,0,0,0-1.2-1.2h-6.48a2.1,2.1,0,0,1,0,2.4Z" transform="translate(-462.995 -51.636)" fill="#fff"/>
    <path id="a-3" data-name="a" d="M355.561,134.959h5a2.324,2.324,0,0,0,2.324-2.324v-.207a2.324,2.324,0,0,0-2.324-2.324h-.1a1.744,1.744,0,0,0-1.619-2.389h-1.472a1.743,1.743,0,0,0-1.619,2.389h-.189a2.324,2.324,0,0,0-2.325,2.324v.207A2.324,2.324,0,0,0,355.561,134.959Z" transform="translate(-209.327 -1)" fill="#fff"/>
    <path id="a-4" data-name="a" d="M304.6,446.085l3.7,3.7a1.481,1.481,0,0,0,2.1,0l7.409-7.408a1.482,1.482,0,0,0-2.1-2.1l-6.361,6.361L306.7,443.99a1.482,1.482,0,1,0-2.1,2.1Z" transform="translate(-162.431 -298.334)" fill="#fff"/>
    <path id="a-5" data-name="a" d="M153.468,210.808H136.626V184.142h5.245a2.1,2.1,0,0,1,0-2.4h-6.446a1.2,1.2,0,0,0-1.2,1.2v29.068a1.2,1.2,0,0,0,1.2,1.2h21.018A8.385,8.385,0,0,1,153.468,210.808Z" transform="translate(0 -51.636)" fill="#fff"/>
  </g>
</svg>
