<svg t="1666861125401" class="icon" viewBox="0 0 1024 1024" version="1.1" xmlns="http://www.w3.org/2000/svg" p-id="6185" width="20" height="20"><path d="M591.962846 313.183241 148.144517 313.183241c-12.28373 0-22.237021-9.953291-22.237021-22.237021s9.953291-22.237021 22.237021-22.237021l443.818328 0c12.280766 0 22.237021 9.953291 22.237021 22.237021S604.243611 313.183241 591.962846 313.183241z" p-id="6186"></path><path d="M486.019747 412.8555 148.144517 412.8555c-12.28373 0-22.237021-9.953291-22.237021-22.237021 0-12.28373 9.953291-22.237021 22.237021-22.237021l337.875229 0c12.280766 0 22.237021 9.953291 22.237021 22.237021C508.256768 402.902209 498.297548 412.8555 486.019747 412.8555z" p-id="6187"></path><path d="M259.973014 711.869311 148.144517 711.869311c-12.28373 0-22.237021-9.953291-22.237021-22.237021 0-12.28373 9.953291-22.237021 22.237021-22.237021l111.828497 0c12.280766 0 22.237021 9.953291 22.237021 22.237021C282.210036 701.913056 272.250815 711.869311 259.973014 711.869311z" p-id="6188"></path><path d="M211.496308 811.54157 148.144517 811.54157c-12.28373 0-22.237021-9.953291-22.237021-22.237021 0-12.28373 9.953291-22.237021 22.237021-22.237021l63.351791 0c12.280766 0 22.237021 9.953291 22.237021 22.237021C233.733329 801.585314 223.777074 811.54157 211.496308 811.54157z" p-id="6189"></path><path d="M988.523056 103.126409l-50.724128-37.823691c-12.772945-9.523375-28.478212-13.514179-44.245742-11.204494-15.761601 2.297826-29.684941 10.593717-39.205351 23.363697-0.00593 0.00593-0.01186 0.014825-0.014825 0.020755l-125.745907 170.42453L728.587104 78.656791c0-12.28373-9.953291-22.237021-22.237021-22.237021l-92.150216 0L614.199867 22.237021c0-12.28373-9.956256-22.237021-22.237021-22.237021-12.28373 0-22.237021 9.953291-22.237021 22.237021l0 34.182749L503.240096 56.41977 503.240096 22.237021c0-12.28373-9.953291-22.237021-22.237021-22.237021-12.280766 0-22.237021 9.953291-22.237021 22.237021l0 34.182749-66.479798 0L392.286255 22.237021c0-12.28373-9.953291-22.237021-22.237021-22.237021-12.28373 0-22.237021 9.953291-22.237021 22.237021l0 34.182749L281.335379 56.41977 281.335379 22.237021c0-12.28373-9.956256-22.237021-22.237021-22.237021-12.28373 0-22.237021 9.953291-22.237021 22.237021l0 34.182749L170.381539 56.41977 170.381539 22.237021c0-12.28373-9.956256-22.237021-22.237021-22.237021-12.28373 0-22.237021 9.953291-22.237021 22.237021l0 34.182749L33.751351 56.41977c-12.280766 0-22.237021 9.953291-22.237021 22.237021l0 923.103223c0 12.28373 9.956256 22.237021 22.237021 22.237021l672.601697 0c12.28373 0 22.237021-9.953291 22.237021-22.237021L728.590069 557.817158l272.083296-371.221866c0.002965-0.00593 0.008895-0.008895 0.014825-0.014825C1020.336821 160.21922 1014.884304 122.783936 988.523056 103.126409zM684.113061 979.522993 55.988372 979.522993 55.988372 100.893812l69.919124 0 0 34.176819c0 12.28373 9.953291 22.237021 22.237021 22.237021 12.280766 0 22.237021-9.953291 22.237021-22.237021L170.381539 100.893812l66.479798 0 0 34.176819c0 12.28373 9.953291 22.237021 22.237021 22.237021 12.280766 0 22.237021-9.953291 22.237021-22.237021L281.335379 100.893812l66.479798 0 0 34.176819c0 12.28373 9.953291 22.237021 22.237021 22.237021 12.28373 0 22.237021-9.953291 22.237021-22.237021L392.28922 100.893812l66.479798 0 0 34.176819c0 12.28373 9.956256 22.237021 22.237021 22.237021 12.28373 0 22.237021-9.953291 22.237021-22.237021L503.243061 100.893812l66.485728 0 0 34.176819c0 12.28373 9.953291 22.237021 22.237021 22.237021 12.280766 0 22.237021-9.953291 22.237021-22.237021L614.202832 100.893812l69.913195 0 0 208.03771-115.967548 159.122194L148.144517 468.053716c-12.28373 0-22.237021 9.953291-22.237021 22.237021 0 12.28373 9.953291 22.237021 22.237021 22.237021l387.591279 0c0 0-126.430808 173.487309-126.454527 173.522888 0 0 0.00593 0 0.01186 0-1.435029 1.995402-2.579494 4.245789-3.305904 6.736335l-50.848655 173.949839L148.144517 866.736821c-12.28373 0-22.237021 9.953291-22.237021 22.237021 0 12.28373 9.953291 22.237021 22.237021 22.237021 0 0 223.897154-0.01779 224.015751-0.01779 0-0.002965-0.002965-0.00593-0.00593-0.00593 4.070857-0.065229 8.135785-1.224519 11.714463-3.537169l166.211356-107.416672c2.285966-1.476538 4.18649-3.317764 5.728257-5.375429 0.053369-0.071158 128.307612-176.019365 128.307612-176.019365L684.116026 979.522993zM439.689655 735.986102l59.369882 44.272427-89.152665 57.614639L439.689655 735.986102zM533.277864 750.297849l-75.027709-55.94538L808.966523 213.128506l75.027709 55.94538L533.277864 750.297849zM910.385129 233.275247l-75.030674-55.94538 23.944824-32.110259 75.027709 55.95131L910.385129 233.275247zM965.028902 159.993885c-0.00593 0.00593-0.01186 0.014825-0.014825 0.020755l-4.103472 5.499957-75.027709-55.95131 4.100507-5.496992c0.00593-0.00593 0.01186-0.01186 0.01779-0.01779 2.419388-3.246605 5.959522-5.35764 9.96515-5.941732 4.011559-0.581127 7.996433 0.432881 11.240073 2.849304l50.727093 37.823691C968.63723 143.775684 970.02482 153.293129 965.028902 159.993885z" p-id="6190"></path></svg>