<svg t="1695289545376" class="icon" viewBox="0 0 1024 1024" version="1.1" xmlns="http://www.w3.org/2000/svg" p-id="6535" width="32" height="32"><path d="M259.072 147.968C176.64 214.528 123.904 310.784 112.64 416.256c-1.536 13.824-14.336 24.064-28.16 22.528-13.824-1.536-24.064-14.336-22.528-28.16 6.656-59.904 24.576-117.248 53.76-169.984 28.16-51.2 66.048-96.256 111.616-133.12 11.264-8.704 27.136-7.168 35.84 4.096 4.096 5.12 6.144 12.288 5.632 18.944-1.024 6.656-4.096 12.8-9.728 17.408zM907.264 241.152c29.184 52.224 47.104 110.08 53.76 169.984 2.048 13.824-7.68 27.136-21.504 29.184-13.824 2.048-27.136-7.68-29.184-21.504v-2.048c-11.776-105.984-63.488-201.216-146.432-268.8-10.752-9.216-12.8-25.088-3.584-36.352 8.704-11.264 25.088-12.8 35.84-4.096 45.056 36.864 82.944 82.432 111.104 133.632zM512 109.568c9.216 0 16.896 8.192 16.896 17.408v42.496l37.376 8.704c102.4 24.576 171.52 119.808 171.52 237.056 0 133.632 56.32 223.232 108.544 296.448l1.024 1.536 1.536 1.536c1.536 1.536 3.072 3.584 4.096 5.632l1.536 2.56c3.072 4.608 4.096 9.216 4.096 13.824 0 16.896-30.72 36.352-80.896 50.688-63.488 17.92-155.648 27.648-266.752 27.648-110.08 0-201.728-9.216-265.216-27.136-49.152-13.824-80.896-33.28-81.92-49.664v-1.024c0-4.096 1.536-8.704 4.096-13.824l1.536-3.072c56.832-76.8 115.2-169.984 115.2-305.152 0-117.248 69.12-212.48 171.52-237.056l37.376-8.704v-42.496c1.024-9.216 8.704-17.408 18.432-17.408m0-48.64c-36.352 0-66.048 29.696-66.048 66.048v4.096c-125.44 30.208-208.896 145.92-208.896 284.672 0 123.392-53.248 205.824-110.08 282.112l-0.512 2.048c-6.656 12.288-10.24 24.576-10.24 37.376v2.048c2.56 89.088 179.2 124.416 396.288 124.416 218.624 0 396.288-35.84 396.288-126.464 0-13.312-3.584-26.112-10.752-38.4v-1.024l-1.536-1.536c-3.072-4.608-6.144-8.704-9.728-12.8-52.736-73.728-99.328-152.576-99.328-268.288 0-138.752-83.456-254.464-208.896-284.672v-4.096c-1.024-35.84-30.72-65.536-66.56-65.536zM385.024 886.272c39.936 3.072 82.432 4.608 126.976 4.608 52.736 0 103.424-2.048 148.992-6.656-30.208 47.616-82.432 76.288-138.752 76.288-55.296 0.512-107.008-27.648-137.216-74.24z" fill="#ffffff" p-id="6536"></path></svg>