<svg xmlns="http://www.w3.org/2000/svg" width="28.091" height="32.386" viewBox="0 0 28.091 32.386">
  <g id="open" transform="translate(-96 -32)">
    <path id="_8266" data-name="8266" d="M257.08,258.159a1.08,1.08,0,1,1,0-2.159h15.114a1.08,1.08,0,1,1,0,2.159Zm0,7.557a1.08,1.08,0,1,1,0-2.159h15.114a1.08,1.08,0,1,1,0,2.159Zm0,7.557a1.08,1.08,0,0,1,0-2.159H261.4a1.08,1.08,0,1,1,0,2.159Z" transform="translate(-154.602 -216.443)" fill="#fff"/>
    <path id="_8267" data-name="8267" d="M120.019,57.985a1.08,1.08,0,1,1,1.416,1.63l-5.19,4.507a1.08,1.08,0,0,1-.708.264h-16.2A3.374,3.374,0,0,1,96,60.981V35.4A3.374,3.374,0,0,1,99.341,32h21.386a3.374,3.374,0,0,1,3.341,3.4V54.443a1.08,1.08,0,1,1-2.159,0V35.4a1.215,1.215,0,0,0-1.182-1.246H99.341A1.215,1.215,0,0,0,98.159,35.4V60.981a1.215,1.215,0,0,0,1.182,1.246h15.792Z" fill="#fff"/>
    <path id="_8268" data-name="8268" d="M642.159,681.687a1.08,1.08,0,1,1-2.159,0V675.4a3.374,3.374,0,0,1,3.341-3.4h5.318a1.08,1.08,0,0,1,0,2.159h-5.318a1.215,1.215,0,0,0-1.182,1.246v6.283Z" transform="translate(-525.648 -618.409)" fill="#fff"/>
  </g>
</svg>
