<svg xmlns="http://www.w3.org/2000/svg" width="26.366" height="22.995" viewBox="0 0 26.366 22.995">
  <g id="ops" transform="translate(-1332.724 -360.309)">
    <path id="a" d="M3.169-12H5.009a1.751,1.751,0,0,1,1.289.546,1.778,1.778,0,0,1,.54,1.295v4.585A1.778,1.778,0,0,1,6.3-4.28a1.751,1.751,0,0,1-1.289.546H3.169a1.778,1.778,0,0,1-1.295-.54,1.764,1.764,0,0,1-.546-1.3v-4.585a1.764,1.764,0,0,1,.546-1.3A1.778,1.778,0,0,1,3.169-12Zm0,1.841v4.585a.9.9,0,0,0,.27.65.871.871,0,0,0,.645.276.884.884,0,0,0,.656-.276.9.9,0,0,0,.27-.65v-4.585a.893.893,0,0,0-.27-.656.893.893,0,0,0-.656-.27.88.88,0,0,0-.645.27A.893.893,0,0,0,3.169-10.159Zm5.07,6.425V-12h3.681a1.751,1.751,0,0,1,1.289.546,1.778,1.778,0,0,1,.54,1.295v.915a1.778,1.778,0,0,1-.54,1.295,1.751,1.751,0,0,1-1.289.546H10.079v3.67Zm1.841-4.6h.915a.893.893,0,0,0,.656-.27.88.88,0,0,0,.27-.645v-.915a.893.893,0,0,0-.27-.656.893.893,0,0,0-.656-.27h-.915Zm9.666-1.83H18.83q-.121-.926-.871-.926a1.017,1.017,0,0,0-.727.231.917.917,0,0,0-.242.694.987.987,0,0,0,.265.65L19.2-7.327a1.925,1.925,0,0,1,.54,1.3v.452A1.778,1.778,0,0,1,19.2-4.28a1.764,1.764,0,0,1-1.3.546h-.915a1.883,1.883,0,0,1-1.378-.457,1.866,1.866,0,0,1-.463-1.383h.926v.154a.654.654,0,0,0,.287.573,1.08,1.08,0,0,0,.628.2.9.9,0,0,0,.7-.237.992.992,0,0,0,.215-.689.959.959,0,0,0-.265-.65L15.689-8.407a1.9,1.9,0,0,1-.54-1.3v-.452a1.778,1.778,0,0,1,.54-1.295,1.764,1.764,0,0,1,1.3-.546H17.9Q19.634-12,19.745-10.159Z" transform="translate(1335.256 379.673)" fill="#fff"/>
    <g id="a-2" data-name="a" transform="translate(1332.724 360.309)">
      <path id="a-3" data-name="a" d="M23.592,64H2.776A2.777,2.777,0,0,0,0,66.776V84.216a2.778,2.778,0,0,0,2.776,2.778H23.59a2.775,2.775,0,0,0,2.776-2.776V66.776A2.773,2.773,0,0,0,23.592,64ZM24.72,84.219a1.129,1.129,0,0,1-1.128,1.128H2.776a1.131,1.131,0,0,1-1.128-1.128V66.776a1.129,1.129,0,0,1,1.128-1.128H23.59a1.129,1.129,0,0,1,1.128,1.128V84.219Z" transform="translate(0 -64)" fill="#fff"/>
    </g>
  </g>
</svg>
