<svg xmlns="http://www.w3.org/2000/svg" width="28" height="29.279" viewBox="0 0 28 29.279">
  <g id="PDF" transform="translate(-16.931 -26.674)">
    <path id="8057" data-name="8057" d="M181.1,181.179h2.636l-5.963,6.557-5.954-6.539h2.612v-.654q0-2.947,0-5.894c0-.717.2-.911.927-.914q2.43-.008,4.86,0c.692,0,.881.2.881.9q0,2.947,0,5.894Z" transform="translate(-138.809 -131.784)" fill="#d60000"/>
    <path id="8058" data-name="8058" d="M64.5,37.422c-1.715,0-3.32.016-4.925,0a4.307,4.307,0,0,1-4.2-3.274,4.8,4.8,0,0,1-.114-1.075c-.013-1.4-.007-2.793-.007-4.189,0-.185,0-.37,0-.59-.225-.013-.392-.03-.56-.03q-3.423,0-6.845,0a1.817,1.817,0,0,0-2.052,2.032c0,.7,0,1.408,0,2.15H44.165a24.536,24.536,0,0,1,.188-3.288A3.228,3.228,0,0,1,47.6,26.684q4.667-.025,9.335,0a.9.9,0,0,1,.576.25q4.17,4.251,8.315,8.526a.732.732,0,0,1,.228.431c.016,1.722.01,3.444.01,5.213H64.5Zm-.638-1.716-6.87-7.05a1.853,1.853,0,0,0-.041.21q0,2.068,0,4.135a2.467,2.467,0,0,0,2.321,2.678C60.755,35.8,62.257,35.705,63.863,35.705Z" transform="translate(-24.417)"/>
    <path id="8059" data-name="8059" d="M44.616,174.561h1.576v.6q0,3.7,0,7.394a1.811,1.811,0,0,0,2.042,2.032c3.481,0,6.963.006,10.445-.007a.958.958,0,0,1,.843.368c.31.386.661.738,1.064,1.181-.27.012-.448.026-.626.026q-5.869,0-11.737,0a3.355,3.355,0,0,1-3.607-3.616q0-3.7,0-7.394Z" transform="translate(-24.82 -132.527)"/>
    <g id="10086" data-name="10086" transform="translate(16.931 33.242)">
      <path id="8060" data-name="8060" d="M29.991,91.125c0-.918-.241-1.146-1.179-1.147q-2.661,0-5.321,0-2.738,0-5.476,0c-.8,0-1.077.267-1.079,1.039q-.009,2.945,0,5.89c0,.767.268,1.04,1.025,1.041q5.5.008,11,0c.752,0,1.024-.283,1.025-1.037Q30,94.018,29.991,91.125Zm-9,3.209a1.985,1.985,0,0,1-1.291.4h-.545v1.627H18.034v-4.9H19.67a2.214,2.214,0,0,1,1.322.343,1.445,1.445,0,0,1,.551,1.251A1.552,1.552,0,0,1,20.992,94.334Zm4,1.429a2.236,2.236,0,0,1-1.661.6h-1.4v-4.9h1.341a2.393,2.393,0,0,1,1.717.573,2.438,2.438,0,0,1,.645,1.851A2.544,2.544,0,0,1,24.99,95.763Zm4.067-3.326H27.2v1.074h1.592v.981H27.2v1.871H26.081v-4.9h2.977Z" transform="translate(-16.931 -89.978)" fill="#d60000"/>
      <path id="8061" data-name="8061" d="M38.9,113.306H38.44v1.416h.489q.808,0,.808-.751Q39.737,113.306,38.9,113.306Z" transform="translate(-36.215 -110.893)" fill="#d60000"/>
      <path id="8062" data-name="8062" d="M76.208,113.37h-.15v3.017h.15a1.234,1.234,0,0,0,.927-.329,1.7,1.7,0,0,0,.357-1.2,1.62,1.62,0,0,0-.357-1.179A1.268,1.268,0,0,0,76.208,113.37Z" transform="translate(-69.941 -110.95)" fill="#d60000"/>
    </g>
  </g>
</svg>
