<svg xmlns="http://www.w3.org/2000/svg" width="25.021" height="27.367" viewBox="0 0 25.021 27.367">
  <g id="_4" data-name="4" transform="translate(-66.908 -191.316)">
    <path id="_1882" data-name="1882" d="M5399.325-3132.758a6.308,6.308,0,0,0,6.254,6.35,6.308,6.308,0,0,0,6.256-6.35,6.144,6.144,0,0,0-6.256-6.161A6.144,6.144,0,0,0,5399.325-3132.758Zm-6.256,20.448c0,.257.025.759.025.759h24.973c.016-.251.023-.5.023-.759,0-6.693-4.566-11.753-12.511-11.753C5397.127-3124.063,5393.069-3119,5393.069-3112.31Z" transform="translate(-5326.161 3330.234)" fill="#fff" fill-rule="evenodd"/>
  </g>
</svg>
