<svg t="1675217761646" class="icon" viewBox="0 0 1024 1024" version="1.1" xmlns="http://www.w3.org/2000/svg" p-id="1465" width="32" height="32"><path d="M608.72 951.99999969c-153.96 0-325.15999969-153.6-401.32000031-244.56C105.99999969 586.4 57.96000031 460.32000031 75.60000031 361.59999969a50.47999969 50.47999969 0 0 1 1.39999969-5.88 178.72000031 178.72000031 0 0 1 163.99999969-124.27999969 90.79999969 90.79999969 0 0 1 89.12000062 59.71999969l41.67999938 125.00000062a78.31999969 78.31999969 0 0 1-19.03999969 80.55999938l-32.68000031 32.64a380.59999969 380.59999969 0 0 0 167.04 168.56000062l26.52-26.56000031a79.08 79.08 0 0 1 74.72000062-20.71999969l143.52 35.88a90.28000031 90.28000031 0 0 1 61.71999938 87.48 179.23999969 179.23999969 0 0 1-125.19999938 169.2l-3.84 1.39999969a207.88000031 207.88000031 0 0 1-55.84000031 7.39999969zM236.79999969 271.35999969a137.35999969 137.35999969 0 0 0-121.71999938 96.72c-15.6 87.6 29.20000031 201.72 123 313.72000031 92.76 110.76 279.67999969 262.12000031 414.84 224.52a140.4 140.4 0 0 0 100.71999938-130.15999969 51.76000031 51.76000031 0 0 0-32.07999938-51l-142.88000062-35.72000062a38.88 38.88 0 0 0-36.75999938 10.2l-36.24 36.28000031a20.08000031 20.08000031 0 0 1-21.88000031 4.32 414.40000031 414.40000031 0 0 1-206.08000031-206.56000031 19.99999969 19.99999969 0 0 1 4.00000031-22.51999969l42.76000031-42.72a38.56000031 38.56000031 0 0 0 9.36-39.64000031L291.99999969 303.44a52.32 52.32 0 0 0-52.32-31.99999969 145.99999969 145.99999969 0 0 0-2.91999938-0.08000062z" p-id="1466" fill="#000"></path><path d="M603.2 535.95999969h-141.36a19.99999969 19.99999969 0 0 1-13.68-34.59999938c18.96-17.80000031 35.08000031-32.20000031 48.79999969-44.4 44.23999969-39.52000031 59.16-52.8 65.4-85.60000031a42.16000031 42.16000031 0 0 0-24.36-46.56 41.59999969 41.59999969 0 0 0-51.72 14.88 19.99999969 19.99999969 0 0 1-31.2-25.00000031 81.6 81.6 0 0 1 99.64000031-26.19999938 82.48000031 82.48000031 0 0 1 46.92 90.31999969c-8.76 46.12000031-30.48 65.52-78.07999969 108l-10.24000031 9.16000031h89.83999969a19.99999969 19.99999969 0 0 1 0 39.99999938zM784.23999969 464.28000031H643.20000031a19.99999969 19.99999969 0 0 1-19.24000031-25.40000062l40.32-143.28a19.99999969 19.99999969 0 1 1 38.52 10.8l-33.19999969 117.88000031h114.6a19.99999969 19.99999969 0 0 1 0 40.00000031z" p-id="1467" fill="#000"></path><path d="M743.96 535.95999969a19.99999969 19.99999969 0 0 1-19.99999969-19.99999969V372.63999969a19.99999969 19.99999969 0 0 1 39.99999938 0V516.00000031a19.99999969 19.99999969 0 0 1-19.99999969 19.99999969z" p-id="1468" fill="#000"></path><path d="M832.32000031 692.96a19.99999969 19.99999969 0 0 1-14.16-34.15999969A320.32000031 320.32000031 0 1 0 365.19999969 205.80000031a19.99999969 19.99999969 0 0 1-28.27999969-28.28000062 360.31999969 360.31999969 0 1 1 509.52 509.60000062 19.92 19.92 0 0 1-14.11999969 5.83999969z" p-id="1469" fill="#000"></path></svg>