<svg xmlns="http://www.w3.org/2000/svg" width="33.73" height="31.269" viewBox="0 0 33.73 31.269">
  <path id="PO" d="M74.658,130.085a5.308,5.308,0,0,1-5.289-5.289V108.445a.122.122,0,0,0-.136-.136H67.819a1.212,1.212,0,0,1-1.259-1.143v-4.572a3.922,3.922,0,0,1,4.049-3.778H90.39a4.047,4.047,0,0,1,4.049,4.049v16.894a.122.122,0,0,0,.136.136h4.456a1.245,1.245,0,0,1,1.259,1.259v4.882a4.047,4.047,0,0,1-4.049,4.049Zm19.936-7.963a.122.122,0,0,0-.136.136v3.778a1.8,1.8,0,1,0,3.6,0v-3.778a.122.122,0,0,0-.136-.136ZM71.907,108.309a.122.122,0,0,0-.136.136v16.313a2.736,2.736,0,0,0,2.867,2.867H92.211a.138.138,0,0,0,.116-.058.165.165,0,0,0,0-.136A4.188,4.188,0,0,1,92,125.823V102.884a1.654,1.654,0,0,0-1.608-1.8,1.811,1.811,0,0,0-1.8,1.8v4.282a1.187,1.187,0,0,1-1.259,1.143Zm-1.317-7.071c-.988,0-1.8.523-1.8,1.356v3.2a.122.122,0,0,0,.136.136H86.205a.122.122,0,0,0,.136-.136v-2.751a4.188,4.188,0,0,1,.329-1.608c.019-.039,0-.1,0-.136a.117.117,0,0,0-.116-.058ZM75.763,122.2a1.124,1.124,0,1,1,0-2.247H88.026a1.124,1.124,0,0,1,0,2.247Zm0-6.006a1.124,1.124,0,1,1,0-2.247H88.026a1.124,1.124,0,1,1,0,2.247Z" transform="translate(-66.56 -98.816)" fill="#fff"/>
</svg>
