<?xml version="1.0" standalone="no"?>
<!DOCTYPE svg PUBLIC "-//W3C//DTD SVG 1.1//EN" "http://www.w3.org/Graphics/SVG/1.1/DTD/svg11.dtd">
<svg t="1671100740976" class="icon" viewBox="0 0 1024 1024" version="1.1" xmlns="http://www.w3.org/2000/svg" p-id="12936" xmlns:xlink="http://www.w3.org/1999/xlink" width="26" height="22">
<path d="M924.88192 512.14848h-24.25856c-10.36288 0-36.7104 14.62272-44.24192 26.45504-8.0896-64.94208-52.29056-165.89824-104.06912-165.89824h-131.43552v29.89056h115.15392c44.11904 0 82.16064 81.408 92.3136 139.7248h-207.46752v284.69248h151.58784v28.98944a22.13376 22.13376 0 0 0 22.07232 22.07232h65.69472a22.12864 22.12864 0 0 0 22.07232-22.07232v-77.6192c20.02944-20.86912 34.06336-48.1792 34.06336-81.7408 0-47.55456-18.79552-91.008-35.31264-120.02816h43.8272a22.12864 22.12864 0 0 0 22.07232-22.07232v-20.3264a22.13888 22.13888 0 0 0-22.07232-22.0672z m-122.64448 208.22016c-23.85408 3.15904-48.44544 1.15712-53.52448-22.35904-5.56032-25.71776 16.30208-49.01888 48.31232-59.43296 28.8512-9.38496 53.18144 10.34752 53.18144 34.4064-0.00512 24.05888-16.86528 43.27936-47.96928 47.3856zM493.71648 210.7648c-9.82528-22.21056-32.09728-37.80608-57.86624-37.80608h-5.7088c-0.74752-24.08448-10.82368-45.73184-26.7008-61.63968a91.12576 91.12576 0 0 0-64.5376-26.7008 91.18208 91.18208 0 0 0-64.55296 26.7008c-15.87712 15.90784-25.93792 37.5552-26.68544 61.63968h-8.17152c-25.73824 0-48.04096 15.59552-57.86624 37.80608H77.04576v728.61696h522.25536V210.7648H493.71648zM309.92384 146.93888a40.82176 40.82176 0 0 1 28.9792-12.03712c11.32032 0 21.57056 4.61312 28.9792 12.03712a40.7552 40.7552 0 0 1 11.904 26.01984H298.02496a40.73984 40.73984 0 0 1 11.89888-26.01984zM215.18848 252.12928h186.94656v30.44352H215.18848v-30.44352z m303.20128 606.34112H157.9776V291.68128h18.2784v25.14432h322.82112v-25.14432h19.30752V858.4704z" fill="#68e093" p-id="12937"></path>
<path d="M272.7168 417.08032h98.56l24.88832-20.71552H251.99104v41.42592l20.72576-4.864zM272.72192 656.14336h98.55488l24.88832-20.7104H251.99104v41.42592l20.73088-4.79744z" fill="#68e093" p-id="12938"></path>
<path d="M316.43648 492.06784L263.7312 450.83136l-48.79872 29.568 37.05856 34.06336V540.53376H280.3712l36.06016 33.13152 24.69376-3.4304 19.84-29.70112h35.2V487.82336l64.97792-97.26464-26.73664-8.91904-117.96992 110.42816z m59.00288 27.70432h-0.60928l0.60928-0.87552v0.87552zM316.43648 731.14112l-52.70016-41.2416-48.79872 29.568 37.05856 34.05824v26.07616H280.37632l36.06016 33.13152 24.69376-3.36896 19.84-29.76256h35.2V726.89152l64.97792-97.26464-26.73664-8.91904-117.97504 110.43328z m59.00288 27.76064h-0.60928l0.60928-0.94208v0.94208z" fill="#68e093" p-id="12939"></path></svg>