<svg xmlns="http://www.w3.org/2000/svg" width="31.146" height="32.5" viewBox="0 0 31.146 32.5">
  <g id="Provider" transform="translate(-773.583 -8774)">
    <g id="Provider-2" data-name="Provider" transform="translate(773.583 8774)">
      <path id="a" d="M14.889,20.168a1.173,1.173,0,0,1-.477-.963,1.192,1.192,0,1,1,2.383,0,1.172,1.172,0,0,1-.476.963l1.609,5.718a1.153,1.153,0,0,1-.3,1.143l-1.609,1.625a.572.572,0,0,1-.835,0l-1.609-1.625a1.153,1.153,0,0,1-.3-1.143l1.609-5.718Zm-4.527-5.122a8.415,8.415,0,1,1,13.6-6.621,8.589,8.589,0,0,1-3.175,6.621A14.416,14.416,0,0,1,31.146,28.889,3.613,3.613,0,0,1,27.552,32.5H3.594A3.613,3.613,0,0,1,0,28.889,14.415,14.415,0,0,1,10.362,15.046Zm5.268-.2A6.432,6.432,0,1,0,9.2,8.409a6.432,6.432,0,0,0,6.432,6.432ZM27.884,30.469a1.267,1.267,0,0,0,1.231-1.293c0-7.108-5.54-12.926-12.311-12.926H14.342c-6.771,0-12.311,5.817-12.311,12.926a1.267,1.267,0,0,0,1.231,1.293Z" fill="#fff"/>
    </g>
  </g>
</svg>
