<svg t="1700210638290" class="icon" viewBox="0 0 1024 1024" version="1.1" xmlns="http://www.w3.org/2000/svg" p-id="9411" width="30" height="30"><path d="M451.52 608.64l65.024-64.96-420.928-0.064a31.616 31.616 0 0 1 0-63.104l420.928-0.128-65.024-64.96a31.424 31.424 0 1 1 44.544-44.544L614.912 489.6a31.744 31.744 0 0 1 0 44.8L496 653.248a31.552 31.552 0 0 1-44.544-44.544z m473.216-270.912C948.16 392.768 960 451.52 960 512a445.184 445.184 0 0 1-131.2 316.8A445.76 445.76 0 0 1 512 959.872a443.84 443.84 0 0 1-202.24-48.128 451.84 451.84 0 0 1-154.496-128.832 31.488 31.488 0 0 1 50.048-38.144 388.928 388.928 0 0 0 132.736 110.72A380.8 380.8 0 0 0 512 897.024a384.448 384.448 0 0 0 272.32-112.768A382.976 382.976 0 0 0 896.96 512a384.448 384.448 0 0 0-112.768-272.32A382.976 382.976 0 0 0 512 127.04c-61.184 0-119.616 13.888-173.76 41.344a388.096 388.096 0 0 0-132.736 110.72 31.36 31.36 0 1 1-50.048-38.208 450.56 450.56 0 0 1 154.24-128.768A443.84 443.84 0 0 1 512 64a445.184 445.184 0 0 1 316.8 131.2 446.592 446.592 0 0 1 95.936 142.528z" fill="#000" p-id="9412"></path></svg>