<svg id="Report" xmlns="http://www.w3.org/2000/svg" width="33.944" height="29.605" viewBox="0 0 33.944 29.605">
  <path id="a" d="M150.278,192a3.181,3.181,0,0,0-2.453,5.208l-3.279,5.463a3.084,3.084,0,0,0-.633-.063,3.17,3.17,0,0,0-1.372.312l-2.122-2.122a3.183,3.183,0,1,0-5.324.653l-3.279,5.463a3.083,3.083,0,0,0-.633-.063,3.185,3.185,0,1,0,2.453,1.157l3.279-5.463a3.083,3.083,0,0,0,.633.063,3.17,3.17,0,0,0,1.372-.312l2.122,2.122a3.183,3.183,0,1,0,5.324-.653l3.279-5.463a3.083,3.083,0,0,0,.633.063,3.183,3.183,0,1,0,0-6.365Zm-19.1,19.1a1.061,1.061,0,1,1,1.061-1.061A1.064,1.064,0,0,1,131.183,211.1Zm5.3-11.669a1.061,1.061,0,1,1,1.061,1.061A1.064,1.064,0,0,1,136.487,199.426Zm7.426,7.426a1.061,1.061,0,1,1,1.061-1.061A1.064,1.064,0,0,1,143.913,206.852Zm6.365-10.609a1.061,1.061,0,1,1,1.061-1.061A1.064,1.064,0,0,1,150.278,196.243Z" transform="translate(-123.757 -187.757)" fill="#fff"/>
  <path id="a-2" data-name="a" d="M30.374,64H3.574A3.575,3.575,0,0,0,0,67.574V90.028A3.576,3.576,0,0,0,3.574,93.6h26.8a3.573,3.573,0,0,0,3.574-3.574V67.574A3.57,3.57,0,0,0,30.374,64Zm1.452,26.031a1.454,1.454,0,0,1-1.452,1.452H3.574a1.456,1.456,0,0,1-1.452-1.452V67.574a1.454,1.454,0,0,1,1.452-1.452h26.8a1.454,1.454,0,0,1,1.452,1.452V90.031Z" transform="translate(0 -64)" fill="#fff"/>
</svg>
