<svg t="1655695859091" class="icon" viewBox="0 0 1024 1024" version="1.1" xmlns="http://www.w3.org/2000/svg" p-id="38510" width="32" height="32"><path d="M822 64c49.706 0 90 40.294 90 90v716c0 49.706-40.294 90-90 90H202c-49.706 0-90-40.294-90-90V154c0-49.706 40.294-90 90-90z m0 60H202c-16.569 0-30 13.431-30 30v716c0 16.569 13.431 30 30 30h620c16.569 0 30-13.431 30-30V154c0-16.569-13.431-30-30-30zM646.837 450.548c13.807-23.915 44.386-32.109 68.301-18.302l86.603 50c23.914 13.807 32.108 44.387 18.3 68.302L667.52 814.723a50 50 0 0 1-23.839 21.057l-88.55 37.419c-20.348 8.599-43.816-0.927-52.415-21.276a40 40 0 0 1-2.848-10.63l-11.87-95.396a50 50 0 0 1 6.317-31.174z m46.961 38.66l-145.844 252.61 8.188 65.817 61.093-25.816L763.08 529.208l-69.282-40zM426 604c16.569 0 30 13.431 30 30 0 16.569-13.431 30-30 30H246c-16.569 0-30-13.431-30-30 0-16.569 13.431-30 30-30h180z m100-190c16.569 0 30 13.431 30 30 0 16.569-13.431 30-30 30H246c-16.569 0-30-13.431-30-30 0-16.569 13.431-30 30-30h280z m190-190c16.569 0 30 13.431 30 30 0 16.569-13.431 30-30 30H246c-16.569 0-30-13.431-30-30 0-16.569 13.431-30 30-30h470z" fill="#ffffff" p-id="38511"></path></svg>