<svg xmlns="http://www.w3.org/2000/svg" width="33.962" height="33.962" viewBox="0 0 33.962 33.962">
  <path id="reset" d="M95.069,108.665a13.906,13.906,0,0,1,24.857-8.248l-2.434,1.9a.324.324,0,0,0,.121.57l7.1,1.739a.325.325,0,0,0,.4-.311L125.149,97a.322.322,0,0,0-.522-.255l-2.28,1.783A16.974,16.974,0,0,0,92,108.649a.324.324,0,0,0,.324.332h2.426A.323.323,0,0,0,95.069,108.665Zm30.566.315h-2.426a.323.323,0,0,0-.323.315,13.908,13.908,0,0,1-24.861,8.248l2.434-1.9a.324.324,0,0,0-.121-.57l-7.1-1.739a.325.325,0,0,0-.4.311l-.028,7.318a.322.322,0,0,0,.522.255l2.28-1.783a16.976,16.976,0,0,0,30.351-10.124A.324.324,0,0,0,125.634,108.981Z" transform="translate(-91.996 -92)" fill="#f09d03"/>
</svg>
