<svg xmlns="http://www.w3.org/2000/svg" width="32" height="32" viewBox="0 0 27.619 27.619">
  <g id="_8" data-name="8" transform="translate(-345.206 -82.601)">
    <path id="_3822" data-name="3822" d="M130.3,128a2.3,2.3,0,1,0,2.3,2.3A2.317,2.317,0,0,0,130.3,128Zm4.6,1.151a1.151,1.151,0,1,0,1.151,1.151A1.154,1.154,0,0,0,134.9,129.151Zm3.452,0a1.151,1.151,0,1,0,1.151,1.151A1.154,1.154,0,0,0,138.357,129.151Zm3.452,0a1.151,1.151,0,1,0,1.151,1.151A1.154,1.154,0,0,0,141.809,129.151Zm3.452,0a1.151,1.151,0,1,0,1.151,1.151A1.154,1.154,0,0,0,145.262,129.151Zm3.452,0a1.151,1.151,0,1,0,1.151,1.151A1.154,1.154,0,0,0,148.714,129.151Zm3.452,0a1.151,1.151,0,1,0,1.151,1.151A1.154,1.154,0,0,0,152.167,129.151Zm2.3,2.3a1.151,1.151,0,1,0,1.151,1.151A1.154,1.154,0,0,0,154.468,131.452ZM141.809,134.9a3.46,3.46,0,0,0-3.452,3.452c0,1.438,1.856,5.169,2.428,6.28l1.024,1.991,1.024-1.991c.573-1.111,2.428-4.841,2.428-6.28A3.46,3.46,0,0,0,141.809,134.9Zm12.659,0a1.151,1.151,0,1,0,1.151,1.151A1.154,1.154,0,0,0,154.468,134.9Zm-12.659,2.3a1.151,1.151,0,1,1-1.151,1.151A1.154,1.154,0,0,1,141.809,137.206Zm12.659,1.151a1.151,1.151,0,1,0,1.151,1.151A1.154,1.154,0,0,0,154.468,138.357Zm0,3.452a1.151,1.151,0,1,0,1.151,1.151A1.154,1.154,0,0,0,154.468,141.809Zm-23.016,2.3a1.151,1.151,0,1,0,1.151,1.151A1.154,1.154,0,0,0,131.452,144.111Zm3.452,0a1.151,1.151,0,1,0,1.151,1.151A1.154,1.154,0,0,0,134.9,144.111Zm3.452,0a1.151,1.151,0,1,0,1.151,1.151A1.154,1.154,0,0,0,138.357,144.111Zm6.9,0a1.151,1.151,0,1,0,1.151,1.151A1.154,1.154,0,0,0,145.262,144.111Zm3.452,0a1.151,1.151,0,1,0,1.151,1.151A1.154,1.154,0,0,0,148.714,144.111Zm3.452,0a1.151,1.151,0,1,0,1.151,1.151A1.154,1.154,0,0,0,152.167,144.111Zm-23.016,2.3a1.151,1.151,0,1,0,1.151,1.151A1.154,1.154,0,0,0,129.151,146.413Zm0,3.452a1.151,1.151,0,1,0,1.151,1.151A1.154,1.154,0,0,0,129.151,149.865Zm24.167,1.151a2.3,2.3,0,1,0,2.3,2.3A2.317,2.317,0,0,0,153.317,151.016Zm-21.865,1.151a1.151,1.151,0,1,0,1.151,1.151A1.154,1.154,0,0,0,131.452,152.167Zm3.452,0a1.151,1.151,0,1,0,1.151,1.151A1.154,1.154,0,0,0,134.9,152.167Zm3.452,0a1.151,1.151,0,1,0,1.151,1.151A1.154,1.154,0,0,0,138.357,152.167Zm3.452,0a1.151,1.151,0,1,0,1.151,1.151A1.154,1.154,0,0,0,141.809,152.167Zm3.452,0a1.151,1.151,0,1,0,1.151,1.151A1.154,1.154,0,0,0,145.262,152.167Zm3.452,0a1.151,1.151,0,1,0,1.151,1.151A1.154,1.154,0,0,0,148.714,152.167Z" transform="translate(217.206 -45.399)" fill="#fff"/>
  </g>
</svg>
