<svg xmlns="http://www.w3.org/2000/svg" width="32" height="32" viewBox="0 0 30.808 27.619">
  <g id="_10" data-name="10" transform="translate(-481.038 -82.601)">
    <g id="_4472" data-name="4472" transform="translate(466.19 35.411)">
      <path id="_3516" data-name="3516" d="M37.486,64.862v3a.636.636,0,0,0,.635.635h3.014a.9.9,0,0,0,0-1.808h-1.84V64.877a.9.9,0,0,0-.9-.9.88.88,0,0,0-.9.888ZM40.2,58.516h1.808V53.091a3.626,3.626,0,0,0-3.617-3.617H34.773v-1.38a.9.9,0,0,0-1.808,0v1.364H23.89V48.094a.9.9,0,0,0-1.808,0v1.364H18.465a3.626,3.626,0,0,0-3.617,3.617V71.191a3.626,3.626,0,0,0,3.617,3.617h9.962a.9.9,0,0,0,0-1.808H18.465a1.808,1.808,0,0,1-1.808-1.808V58.516ZM16.656,53.091a1.808,1.808,0,0,1,1.808-1.808h3.617v.9a.9.9,0,0,0,1.808,0v-.92h9.058v.9a.9.9,0,1,0,1.808,0v-.9h3.617a1.808,1.808,0,0,1,1.808,1.808v3.617H16.656Z" transform="translate(0)" fill="#fff"/>
      <path id="_3517" data-name="3517" d="M190.856,470.469h3.617a.9.9,0,0,1,0,1.808h-3.617a.9.9,0,1,1,0-1.808Zm0,5.425h3.617a.9.9,0,0,1,0,1.808h-3.617a.9.9,0,0,1-.9-.9A.914.914,0,0,1,190.856,475.894Zm22.923-4.521a7.109,7.109,0,0,0-3.887-2.538,6,6,0,0,0-1.808-.27,7.278,7.278,0,0,0-7.25,7.25,7.288,7.288,0,0,0,12.961,4.537,7.2,7.2,0,0,0,1.539-4.537A7.034,7.034,0,0,0,213.779,471.373Zm-2.173,8.6a5.376,5.376,0,0,1-3.538,1.364,5.441,5.441,0,1,1,0-10.883,4.059,4.059,0,0,1,1.809.365,7.063,7.063,0,0,1,1.808,1.095,5.5,5.5,0,0,1,1.808,4.077A5.2,5.2,0,0,1,211.606,479.971Z" transform="translate(-169.679 -408.32)" fill="#fff"/>
    </g>
  </g>
</svg>
