<svg xmlns="http://www.w3.org/2000/svg" width="32" height="32" viewBox="0 0 28.561 27.367">
  <g id="Tag" transform="translate(-52.628 -1168.206)">
    <path id="_3893" data-name="3893" d="M91.227,85.185H90.39A1.967,1.967,0,0,0,88.446,83.5h-7.74a1.967,1.967,0,0,0-1.944,1.685H66.534A1.937,1.937,0,0,0,64.6,87.12v18.551a1.937,1.937,0,0,0,1.934,1.934H78.74V109.5a1.371,1.371,0,0,0,1.369,1.369c.527,0,.811,0,4.465-3.313,3.658,3.31,3.942,3.31,4.469,3.31a1.369,1.369,0,0,0,1.369-1.369V107.6h.814a1.937,1.937,0,0,0,1.934-1.934V87.12A1.937,1.937,0,0,0,91.227,85.185ZM66.534,106.255a.584.584,0,0,1-.584-.584V87.12a.584.584,0,0,1,.584-.584H78.74v2.908H70.68a.673.673,0,0,0,0,1.347H78.74v2.742H70.68a.673.673,0,0,0,0,1.347H78.74v2.729H70.68a.673.673,0,0,0,0,1.347H78.74V101.7H70.68a.673.673,0,0,0,0,1.347H78.74v3.2H66.534Zm22.531,3.24a.017.017,0,0,1-.019.019,53.729,53.729,0,0,1-4.465-3.789,53.863,53.863,0,0,1-4.472,3.789.017.017,0,0,1-.019-.019V85.466a.618.618,0,0,1,.616-.616h7.74a.618.618,0,0,1,.616.616v24.028Zm2.745-3.824a.584.584,0,0,1-.584.584h-.814V86.535h.814a.584.584,0,0,1,.584.584Z" transform="translate(-11.972 1084.706)" fill="#fff"/>
  </g>
</svg>
