<svg t="1693463524655" fill="#1296db" class="icon" viewBox="0 0 1024 1024" version="1.1" xmlns="http://www.w3.org/2000/svg" p-id="11047" width="26" height="26"><path d="M820.906667 367.672889a59.335111 59.335111 0 0 1-34.247111-37.205333A285.696 285.696 0 0 0 512 128a285.696 285.696 0 0 0-274.659556 202.467556c-5.12 16.839111-17.92 30.435556-34.190222 37.205333a226.986667 226.986667 0 0 0-139.150222 208.327111 222.606222 222.606222 0 0 0 224.028444 224.028444 31.971556 31.971556 0 1 0 0-64.056888 158.435556 158.435556 0 0 1-160.028444-159.971556A158.151111 158.151111 0 0 1 247.466667 420.977778c21.902222-5.518222 40.163556-23.495111 44.145777-45.738667A222.435556 222.435556 0 0 1 512 192a222.435556 222.435556 0 0 1 220.387556 183.239111c3.982222 22.243556 22.186667 40.220444 44.145777 45.738667a158.151111 158.151111 0 0 1 119.466667 155.022222 158.435556 158.435556 0 0 1-160.028444 160.028444 31.971556 31.971556 0 1 0 0 63.943112 222.606222 222.606222 0 0 0 224.028444-223.971556 226.986667 226.986667 0 0 0-139.150222-208.327111z"  p-id="11048"></path><path d="M540.785778 489.585778c-12.8-9.557333-25.6-12.8-38.4-6.371556-3.185778 0-6.371556 3.185778-9.557334 6.371556l-96.028444 92.842666a30.947556 30.947556 0 0 0 0 44.771556 34.816 34.816 0 0 0 48.014222 0l38.4-35.214222v271.985778c0 19.228444 15.985778 32.028444 31.971556 32.028444a32.085333 32.085333 0 0 0 32.028444-32.028444v-271.928889l38.4 35.157333a34.816 34.816 0 0 0 47.957334 0 30.947556 30.947556 0 0 0 0-44.771556l-92.728889-92.842666z"  p-id="11049"></path></svg>