<svg t="1701831620401" class="icon" viewBox="0 0 1024 1024" version="1.1" xmlns="http://www.w3.org/2000/svg" p-id="4238" width="16" height="16"><path d="M512 0a512 512 0 1 0 512 512A512 512 0 0 0 512 0z m0 896a85.376 85.376 0 1 1 85.376-85.376A85.376 85.376 0 0 1 512 896z m108.544-641.536L561.152 640a49.792 49.792 0 0 1-98.304 0l-59.392-385.536a109.824 109.824 0 1 1 217.6 0z" fill="#FA4150" p-id="4239"></path><path d="M512 128a109.824 109.824 0 0 0-108.544 126.464L462.848 640a49.792 49.792 0 0 0 98.304 0l59.392-386.048A109.824 109.824 0 0 0 512 128z" fill="#FFFFFF" p-id="4240"></path><path d="M512 810.624m-85.376 0a85.376 85.376 0 1 0 170.752 0 85.376 85.376 0 1 0-170.752 0Z" fill="#FFFFFF" p-id="4241"></path></svg>