<svg xmlns="http://www.w3.org/2000/svg" width="28" height="29.279" viewBox="0 0 28 29.279">
  <g id="word" transform="translate(-369.931 -26.674)">
    <path id="8063" data-name=" 8063" d="M534.249,181.3h2.677l-6.057,6.66-6.047-6.641h2.653v-.664q0-2.993,0-5.986c0-.728.2-.926.942-.928q2.468-.008,4.936,0c.7,0,.895.205.9.911q0,2.993,0,5.986Z" transform="translate(-138.995 -132.003)" fill="#37579a"/>
    <path id="8064" data-name=" 8064" d="M417.412,37.59c-1.708,0-3.306.016-4.9,0a4.305,4.305,0,0,1-4.187-3.326,4.97,4.97,0,0,1-.113-1.092c-.013-1.418-.007-2.837-.007-4.255,0-.188,0-.376,0-.6-.224-.013-.39-.031-.557-.031q-3.408,0-6.815,0a1.827,1.827,0,0,0-2.043,2.064c0,.715,0,1.43,0,2.183h-1.62a25.427,25.427,0,0,1,.187-3.34,3.226,3.226,0,0,1,3.234-2.506q4.647-.025,9.294,0a.89.89,0,0,1,.573.254q4.152,4.317,8.278,8.66a.748.748,0,0,1,.227.437c.016,1.749.01,3.5.01,5.294h-1.558Zm-.635-1.743-6.84-7.16a1.932,1.932,0,0,0-.041.213q0,2.1,0,4.2a2.489,2.489,0,0,0,2.311,2.72C413.682,35.94,415.178,35.847,416.777,35.847Z" transform="translate(-24.373)"/>
    <path id="8065" data-name=" 8065" d="M397.616,174.561h1.6v.606q0,3.755,0,7.51a1.84,1.84,0,0,0,2.074,2.064c3.536,0,7.072.006,10.608-.007a.973.973,0,0,1,.856.374c.315.392.672.75,1.081,1.2-.275.012-.455.027-.636.027q-5.96,0-11.921,0a3.408,3.408,0,0,1-3.663-3.673q0-3.755,0-7.51Z" transform="translate(-24.775 -132.745)"/>
    <g id="10087" data-name="10087" transform="translate(369.931 33.203)">
      <path id="8066" data-name=" 8066" d="M448.877,119.265h-.337v.842h.337q.548,0,.548-.451Q449.424,119.265,448.877,119.265Z" transform="translate(-440.281 -116.188)" fill="#37579a"/>
      <path id="8067" data-name=" 8067" d="M473.815,119.305h-.1v1.929h.1a.854.854,0,0,0,.623-.211,1.05,1.05,0,0,0,.24-.767,1,1,0,0,0-.24-.754A.879.879,0,0,0,473.815,119.305Z" transform="translate(-462.81 -116.224)" fill="#37579a"/>
      <path id="8068" data-name=" 8068" d="M419.7,119.185q-.666,0-.666.964a1.292,1.292,0,0,0,.177.725.578.578,0,0,0,.977,0,1.269,1.269,0,0,0,.181-.725Q420.372,119.185,419.7,119.185Z" transform="translate(-413.878 -116.116)" fill="#37579a"/>
      <path id="8069" data-name=" 8069" d="M383.2,91.143c0-.933-.245-1.164-1.2-1.165q-2.7,0-5.4,0-2.781,0-5.562,0c-.809,0-1.094.271-1.1,1.056q-.009,2.991,0,5.982c0,.779.272,1.056,1.041,1.057q5.588.008,11.176,0c.764,0,1.04-.287,1.042-1.054Q383.2,94.082,383.2,91.143Zm-10.312,4.451L372.6,94.23q-.076-.362-.122-.729h-.021l-.025.156a.083.083,0,0,1,0,.025l-.03.181q-.034.215-.063.366l-.274,1.365h-.931l-.573-3.134h.771l.2,1.428.126.994h.017q.084-.472.185-.994l.32-1.428h.632l.329,1.428.181.994h.021l.118-.994.2-1.428h.716l-.543,3.134Zm3.913-.379a1.454,1.454,0,0,1-2.081,0,1.74,1.74,0,0,1-.4-1.2,1.7,1.7,0,0,1,.4-1.192,1.5,1.5,0,0,1,2.081,0,1.7,1.7,0,0,1,.4,1.188A1.74,1.74,0,0,1,376.8,95.215Zm2.333.379-.577-1.1h-.362v1.1h-.754V92.461h1.15a2.231,2.231,0,0,1,.476.046,1.22,1.22,0,0,1,.388.16.878.878,0,0,1,.362.779.914.914,0,0,1-.539.905l.7,1.243Zm3.011-.383a1.548,1.548,0,0,1-1.116.383h-.943V92.461h.9a1.66,1.66,0,0,1,1.154.366,1.515,1.515,0,0,1,.434,1.183A1.58,1.58,0,0,1,382.141,95.211Z" transform="translate(-369.931 -89.978)" fill="#37579a"/>
    </g>
  </g>
</svg>
