<svg xmlns="http://www.w3.org/2000/svg" width="28" height="29.279" viewBox="0 0 28 29.279">
  <g id="xlsx" transform="translate(-369.931 -392.656)">
    <path id="_8332" data-name="8332" d="M534.124,547.176h2.641l-5.976,6.571-5.967-6.553h2.618v-.655q0-2.953,0-5.906c0-.718.2-.913.929-.916q2.435-.008,4.87,0c.693,0,.883.2.883.9q0,2.953,0,5.906Z" transform="translate(-138.834 -131.813)" fill="#1f7246"/>
    <path id="_8333" data-name="8333" d="M417.489,403.426c-1.714,0-3.318.016-4.922,0a4.306,4.306,0,0,1-4.2-3.281,4.823,4.823,0,0,1-.114-1.077c-.013-1.4-.007-2.8-.007-4.2,0-.185,0-.371,0-.591-.224-.013-.392-.03-.56-.03q-3.421,0-6.841,0a1.818,1.818,0,0,0-2.051,2.037c0,.706,0,1.411,0,2.154h-1.626a24.659,24.659,0,0,1,.188-3.295,3.228,3.228,0,0,1,3.247-2.473q4.664-.025,9.329,0a.9.9,0,0,1,.575.251q4.168,4.259,8.31,8.544a.734.734,0,0,1,.228.432c.016,1.726.01,3.451.01,5.223h-1.563Zm-.637-1.72-6.866-7.064a1.865,1.865,0,0,0-.041.21q0,2.072,0,4.144a2.47,2.47,0,0,0,2.32,2.684C413.745,401.8,415.246,401.706,416.852,401.706Z" transform="translate(-24.411)"/>
    <path id="_8334" data-name="8334" d="M397.616,540.543h1.58v.6q0,3.7,0,7.41a1.815,1.815,0,0,0,2.046,2.036c3.489,0,6.978.006,10.467-.007a.96.96,0,0,1,.845.369c.31.387.663.74,1.066,1.184-.271.012-.449.026-.628.026q-5.881,0-11.762,0a3.362,3.362,0,0,1-3.614-3.624q0-3.7,0-7.41Z" transform="translate(-24.814 -132.556)"/>
    <path id="_8335" data-name="8335" d="M383.018,457.109c0-.92-.241-1.149-1.181-1.15q-2.666,0-5.332,0-2.744,0-5.488,0c-.8,0-1.079.267-1.082,1.042q-.009,2.951,0,5.9c0,.768.268,1.042,1.027,1.043q5.514.008,11.027,0c.754,0,1.026-.284,1.028-1.039Q383.023,460.008,383.018,457.109Zm-10.085,4.749-.491-1.044q-.046-.112-.143-.333h-.02q-.138.348-.261.634l-.327.742h-.977l1.049-1.959-.987-1.847h1.018l.307.68q.056.118.128.287l.118.271s.005,0,.005.01a.015.015,0,0,1,.005.01.2.2,0,0,0,.021.046h.02q.061-.169.128-.338.051-.133.118-.287l.276-.68h.967l-.982,1.888,1.049,1.918Zm5.842-.287a1.572,1.572,0,0,1-1.074.358,2.025,2.025,0,0,1-1.264-.414v.343h-2.394v-3.806h.916v3.039h1.479v.1l.358-.436a1.438,1.438,0,0,0,.926.389q.5,0,.5-.333a.288.288,0,0,0-.143-.246,1.286,1.286,0,0,0-.174-.092l-.706-.3a1.3,1.3,0,0,1-.537-.373,1.057,1.057,0,0,1,.154-1.484,1.471,1.471,0,0,1,.992-.338,1.682,1.682,0,0,1,1.238.5l-.455.573a1.284,1.284,0,0,0-.783-.292q-.455,0-.455.317a.289.289,0,0,0,.164.24,1.482,1.482,0,0,0,.184.092l.706.281a1.062,1.062,0,0,1,.752,1.044A1.073,1.073,0,0,1,378.776,461.571Zm2.445.287-.491-1.044q-.046-.112-.143-.333h-.021q-.138.348-.261.634l-.327.742H379l1.049-1.959-.987-1.847h1.018l.307.68q.056.118.128.287l.118.271s.005,0,.005.01a.015.015,0,0,1,.005.01.2.2,0,0,0,.02.046h.02q.062-.169.128-.338.051-.133.118-.287l.276-.68h.967l-.982,1.888,1.049,1.918Z" transform="translate(0 -56.741)" fill="#1f7246"/>
  </g>
</svg>
