<svg id="approve" xmlns="http://www.w3.org/2000/svg" width="20.971" height="20.832" viewBox="0 0 20.971 20.832">
  <path id="4108" data-name="4108" d="M52.738,67.432a.783.783,0,0,1-.781.784H49.494a2.864,2.864,0,0,1-2.856-2.866v-14.4a2.863,2.863,0,0,1,2.856-2.865H60.732a2.863,2.863,0,0,1,2.856,2.865v1.822a.781.781,0,1,1-1.562,0V50.947a1.3,1.3,0,0,0-1.294-1.3H49.494a1.3,1.3,0,0,0-1.294,1.3v14.4a1.3,1.3,0,0,0,1.294,1.3h2.464a.785.785,0,0,1,.78.785ZM50.963,52.464a.784.784,0,0,0,0,1.568h8.472a.784.784,0,0,0,0-1.568H50.963Zm1.47,4.338h-1.47a.784.784,0,0,0,0,1.568h1.47a.784.784,0,0,0,0-1.568Z" transform="translate(-46.638 -48.082)" fill="#339061"/>
  <path id="4109" data-name="4109" d="M70.431,63.6a6.831,6.831,0,1,0,6.831,6.831A6.842,6.842,0,0,0,70.431,63.6Zm3.963,4.856-4.527,4.837a.565.565,0,0,1-.836,0l-2.559-2.734a.649.649,0,0,1-.175-.448.612.612,0,0,1,.593-.631.578.578,0,0,1,.418.184l2.145,2.286,4.117-4.388a.576.576,0,0,1,.418-.184.611.611,0,0,1,.593.631A.72.72,0,0,1,74.394,68.456Zm0,0" transform="translate(-56.292 -56.43)" fill="#339061"/>
</svg>
