<svg xmlns="http://www.w3.org/2000/svg" width="20.912" height="20.911" viewBox="0 0 20.912 20.911">
  <path id="Arbitrate" d="M100.557,71.8l-.685.685a1.53,1.53,0,0,1-.4,1.478l-1.082,1.083a1.53,1.53,0,0,1-2.164,0L91.9,70.721a1.53,1.53,0,0,1,0-2.164l1.082-1.082a1.53,1.53,0,0,1,1.478-.4l4.617-4.617a1.53,1.53,0,0,1,.4-1.478l1.082-1.082a1.53,1.53,0,0,1,2.164,0l4.328,4.327a1.53,1.53,0,0,1,0,2.164l-1.083,1.082a1.53,1.53,0,0,1-1.478.4l-.685.685,8.115,8.115a1.53,1.53,0,0,1,0,2.164l-1.083,1.083a1.53,1.53,0,0,1-2.163,0Zm-1.623-.541,4.328-4.328-3.246-3.246-4.328,4.328Zm3.246-9.737a.765.765,0,1,0-1.082,1.082l3.245,3.246a.765.765,0,1,0,1.082-1.082l-3.245-3.246ZM94.606,69.1a.765.765,0,1,0-1.082,1.082l3.246,3.245a.765.765,0,1,0,1.082-1.082L94.606,69.1Zm9.2,1.621a.765.765,0,0,0-1.082,1.083l6.491,6.491a.765.765,0,1,0,1.082-1.082L103.8,70.721Zm-9.945,7.969h10.71a.765.765,0,0,1,0,1.53H93.857a.765.765,0,0,1,0-1.53Z" transform="translate(-91.454 -59.454)" fill="#07d"/>
</svg>
