<svg xmlns="http://www.w3.org/2000/svg" width="20.479" height="20.832" viewBox="0 0 20.479 20.832">
  <g id="cancel" transform="translate(-1762.101 -419.039)">
    <path id="4114" data-name="4114" d="M52.738,67.43a.783.783,0,0,1-.781.784H49.494a2.864,2.864,0,0,1-2.856-2.866v-14.4a2.863,2.863,0,0,1,2.856-2.865H60.732a2.863,2.863,0,0,1,2.856,2.865v1.822a.781.781,0,1,1-1.562,0V50.947a1.3,1.3,0,0,0-1.294-1.3H49.494a1.3,1.3,0,0,0-1.294,1.3v14.4a1.3,1.3,0,0,0,1.294,1.3h2.464a.785.785,0,0,1,.78.785ZM50.963,52.463a.784.784,0,0,0,0,1.568h8.472a.784.784,0,0,0,0-1.568H50.963Zm1.47,4.337h-1.47a.784.784,0,0,0,0,1.568h1.47a.784.784,0,0,0,0-1.568Z" transform="translate(1715.463 370.957)" fill="white"/>
    <g id="361" data-name="361" transform="translate(1768.94 426.187)">
      <path id="4112" data-name="4112" d="M70.419,63.6a6.842,6.842,0,1,0,6.819,6.842A6.842,6.842,0,0,0,70.419,63.6Z" transform="translate(-63.6 -63.6)" fill="white"/>
      <path id="4113" data-name="4113" d="M10474.922,1626.378h8.213" transform="translate(-10472.209 -1619.537)" fill="none" stroke="#204b4d" stroke-linecap="round" stroke-width="1.5"/>
    </g>
  </g>
</svg>
