<?xml version="1.0" standalone="no"?><!DOCTYPE svg PUBLIC "-//W3C//DTD SVG 1.1//EN" "http://www.w3.org/Graphics/SVG/1.1/DTD/svg11.dtd"><svg t="1667900307628" class="icon" viewBox="0 0 1024 1024" version="1.1" xmlns="http://www.w3.org/2000/svg" p-id="7825" xmlns:xlink="http://www.w3.org/1999/xlink" width="32" height="32"><path d="M155.9552 818.4832L267.6736 782.336l21.9136 12.6976c65.1264 37.7856 141.9264 58.2656 222.4128 58.2656 221.4912 0 398.2336-154.624 398.2336-341.2992S733.4912 170.7008 512 170.7008 113.7664 325.3248 113.7664 512c0 65.9456 21.8112 129.024 62.6688 183.6032l19.2512 25.8048-39.7312 97.0752zM512 910.2336c-92.7744 0-178.9952-24.2688-250.88-65.9456l-145.92 47.104c-6.3488 2.048-13.312 1.8432-19.5584-0.7168-14.5408-5.9392-21.504-22.528-15.5648-37.0688l50.7904-123.8016C84.0704 667.136 56.9344 592.384 56.9344 512c0-219.9552 203.776-398.2336 455.0656-398.2336S967.0656 292.0448 967.0656 512 763.392 910.2336 512 910.2336z" fill="#3899ED" p-id="7826"></path><path d="M471.73531 552.25963a56.9344 56.9344 0 1 0 80.515995-80.518806 56.9344 56.9344 0 1 0-80.515995 80.518806Z" fill="#3899ED" p-id="7827"></path><path d="M284.4672 512m-56.9344 0a56.9344 56.9344 0 1 0 113.8688 0 56.9344 56.9344 0 1 0-113.8688 0Z" fill="#3899ED" p-id="7828"></path><path d="M739.5328 512m-56.9344 0a56.9344 56.9344 0 1 0 113.8688 0 56.9344 56.9344 0 1 0-113.8688 0Z" fill="#3899ED" p-id="7829"></path></svg>