<svg xmlns="http://www.w3.org/2000/svg" width="20" height="20" viewBox="0 0 31.382 30.193">
  <g id="coment" transform="translate(1866 -664)">
    <path id="a" d="M66.2,71.279a3.6,3.6,0,0,0-2-6.14l-5.869-.853a1.173,1.173,0,0,1-.884-.641l-2.624-5.317a3.6,3.6,0,0,0-6.456,0l-2.624,5.317a1.173,1.173,0,0,1-.884.642l-5.869.853a3.6,3.6,0,0,0-2,6.14l4.247,4.139a1.173,1.173,0,0,1,.338,1.038l-1,5.844A3.6,3.6,0,0,0,45.8,86.1l5.249-2.759a1.174,1.174,0,0,1,1.092,0L57.393,86.1a3.6,3.6,0,0,0,5.222-3.8l-1-5.844a1.173,1.173,0,0,1,.338-1.039Z" transform="translate(-1901.904 607.678)" fill="#549d26"/>
    <path id="a-2" data-name="a" d="M55.852,68.879l-4.976,5.7L48,72.15A1.214,1.214,0,0,0,46.427,74l2.891,2.449a2.416,2.416,0,0,0,3.369-.254l4.989-5.717a1.213,1.213,0,1,0-1.828-1.594Z" transform="translate(-1901.904 607.678)" fill="#fff"/>
  </g>
</svg>
