<svg id="duplicate" xmlns="http://www.w3.org/2000/svg" width="33.962" height="33.962" viewBox="0 0 33.962 33.962">
  <path id="path_8353" data-name="path 8353" d="M25.987,190.679H2.6a2.6,2.6,0,0,1-2.6-2.6V170.816l8.723-8.723H25.987a2.6,2.6,0,0,1,2.6,2.6V188.08A2.6,2.6,0,0,1,25.987,190.679ZM2.6,171.893V188.08h23.39l0-23.388H9.8Z" transform="translate(0 -156.717)" fill="#666767"/>
  <path id="path_8354" data-name="path 8354" d="M9.356,16.031H9.341l-8.056-.094a1.3,1.3,0,0,1-.9-2.223L8.442,5.751a1.3,1.3,0,0,1,2.213.924v8.056a1.3,1.3,0,0,1-1.3,1.3Zm-4.93-2.656,3.63.042V9.786l-3.63,3.588ZM32.663,25.207a1.3,1.3,0,0,1-1.3-1.3V2.6H15.251a1.3,1.3,0,0,1,0-2.6H32.663a1.3,1.3,0,0,1,1.3,1.3V23.908A1.3,1.3,0,0,1,32.663,25.207ZM21.829,27.725H6.5a1.3,1.3,0,0,1,0-2.6H21.829a1.3,1.3,0,0,1,0,2.6Zm0-5.717H6.5a1.3,1.3,0,0,1,0-2.6H21.829a1.3,1.3,0,0,1,0,2.6Zm0-5.977H13.773a1.3,1.3,0,0,1,0-2.6h8.056a1.3,1.3,0,1,1,0,2.6Z" transform="translate(0)" fill="#666767"/>
</svg>
