<svg id="edit" xmlns="http://www.w3.org/2000/svg" width="19.755" height="19.785" viewBox="0 0 19.755 19.785">
  <path id="4102" data-name="4102" d="M19.709,10.133v7.912a1.98,1.98,0,0,1-1.971,1.978H1.971A1.98,1.98,0,0,1,0,18.045V2.221A1.98,1.98,0,0,1,1.971.243h6.9a.933.933,0,0,1,.985.989.933.933,0,0,1-.985.989H2.956a.933.933,0,0,0-.985.989V17.056a.933.933,0,0,0,.985.989h13.8a.933.933,0,0,0,.985-.989V10.133a.985.985,0,1,1,1.971,0Z" transform="translate(0 -0.238)" fill="#2630b5"/>
  <path id="4103" data-name="4103" d="M353.812.2a1.111,1.111,0,0,1-.2,1.577l-10.84,10.84A1.015,1.015,0,1,1,341,11.633c.1-.1.2-.3.394-.394L352.137.4a1.343,1.343,0,0,1,1.675-.2Z" transform="translate(-334.3 0)" fill="#2630b5"/>
</svg>
