<svg xmlns="http://www.w3.org/2000/svg" width="16.95" height="21.657" viewBox="0 0 16.95 21.657" fill="#9d61fc">
  <g id="Endorse_" data-name="Endorse " transform="translate(-1864 -419.039)">
    <path id="4114" data-name=" 4114" d="M52.738,67.43a.783.783,0,0,1-.781.784H49.494a2.864,2.864,0,0,1-2.856-2.866v-14.4a2.863,2.863,0,0,1,2.856-2.865H60.732a2.863,2.863,0,0,1,2.856,2.865v1.822a.781.781,0,1,1-1.562,0V50.947a1.3,1.3,0,0,0-1.294-1.3H49.494a1.3,1.3,0,0,0-1.294,1.3v14.4a1.3,1.3,0,0,0,1.294,1.3h2.464a.785.785,0,0,1,.78.785ZM50.963,52.463a.784.784,0,0,0,0,1.568h8.472a.784.784,0,0,0,0-1.568H50.963Zm1.47,4.337h-1.47a.784.784,0,0,0,0,1.568h1.47a.784.784,0,0,0,0-1.568Z" transform="translate(1817.362 370.957)"/>
    <g id="10089" data-name="10089" transform="translate(-10733.29 4.067)">
      <path id="8072" data-name=" 8072" d="M550.4,426.75a4.35,4.35,0,1,1,4.35,4.35A4.35,4.35,0,0,1,550.4,426.75Zm4.35-2.9a2.9,2.9,0,1,0,2.9,2.9A2.9,2.9,0,0,0,554.75,423.85Z" transform="translate(12055.141 0.092)"/>
      <path id="8073" data-name=" 8073" d="M598.853,645.835a.725.725,0,0,1,.5.689v6.359a.725.725,0,0,1-1.049.648l-2.092-1.046-2.092,1.046a.725.725,0,0,1-1.049-.648V646.54a.725.725,0,0,1,1.3-.445c.009.01.027.029.054.055a1.753,1.753,0,0,0,.3.217,2.913,2.913,0,0,0,1.491.354,2.854,2.854,0,0,0,1.486-.36,1.642,1.642,0,0,0,.3-.221.851.851,0,0,0,.06-.062A.725.725,0,0,1,598.853,645.835Zm-.953,2.034a4.575,4.575,0,0,1-1.692.3,4.643,4.643,0,0,1-1.692-.3v3.836l1.367-.684a.725.725,0,0,1,.648,0l1.368.684ZM594.368,646.1Z" transform="translate(12013.682 -216.98)"/>
    </g>
  </g>
</svg>
