<svg xmlns="http://www.w3.org/2000/svg" width="22.253" height="20.832" viewBox="0 0 22.253 20.832">
  <g id="reapprove" transform="translate(-1828.391 -419.039)">
    <g id="350" data-name=" 350" transform="translate(1828.391 419.039)">
      <path id="4108" data-name="4108" d="M52.738,67.432a.783.783,0,0,1-.781.784H49.494a2.864,2.864,0,0,1-2.856-2.866v-14.4a2.863,2.863,0,0,1,2.856-2.865H60.732a2.863,2.863,0,0,1,2.856,2.865v1.822a.781.781,0,1,1-1.562,0V50.947a1.3,1.3,0,0,0-1.294-1.3H49.494a1.3,1.3,0,0,0-1.294,1.3v14.4a1.3,1.3,0,0,0,1.294,1.3h2.464a.785.785,0,0,1,.78.785ZM50.963,52.464a.784.784,0,0,0,0,1.568h8.472a.784.784,0,0,0,0-1.568H50.963Zm1.47,4.338h-1.47a.784.784,0,0,0,0,1.568h1.47a.784.784,0,0,0,0-1.568Z" transform="translate(-46.638 -48.082)" fill="#339061"/>
    </g>
    <g id="364" data-name=" 364">
      <path id="4115" data-name="4115" d="M38.614,122.143a.588.588,0,1,1,.831.831l-1.319,1.319a.586.586,0,0,1-.83,0l-1.32-1.319a.587.587,0,1,1,.831-.831l.249.25A5.671,5.671,0,0,0,26.3,120.828a.588.588,0,0,1-1.065-.5A6.85,6.85,0,0,1,38.259,122.5l.355-.355Zm-1.245,3.181a.588.588,0,0,1,.286.781,6.85,6.85,0,0,1-13.027-2.167l-.355.355a.588.588,0,1,1-.831-.831l1.32-1.32a.588.588,0,0,1,.83,0l1.319,1.32a.588.588,0,1,1-.83.83l-.25-.249a5.671,5.671,0,0,0,10.758,1.565.588.588,0,0,1,.781-.285Z" transform="translate(1811.026 309.797)" fill="#339061"/>
      <path id="4116" data-name="4116" d="M12398.441,430.193l2.349,2.6,4.086-4.5" transform="translate(-10559.189 2.474)" fill="none" stroke="#339061" stroke-linecap="round" stroke-linejoin="round" stroke-width="1.3"/>
    </g>
  </g>
</svg>
