<svg xmlns="http://www.w3.org/2000/svg" width="20.826" height="20.832" viewBox="0 0 20.826 20.832">
  <path id="reject" d="M52.738,67.43a.783.783,0,0,1-.781.784H49.494a2.864,2.864,0,0,1-2.856-2.866v-14.4a2.863,2.863,0,0,1,2.856-2.865H60.732a2.863,2.863,0,0,1,2.856,2.865v1.822a.781.781,0,1,1-1.562,0V50.947a1.3,1.3,0,0,0-1.294-1.3H49.494a1.3,1.3,0,0,0-1.294,1.3v14.4a1.3,1.3,0,0,0,1.294,1.3h2.464a.785.785,0,0,1,.78.785ZM50.963,52.463a.784.784,0,0,0,0,1.568h8.472a.784.784,0,0,0,0-1.568H50.963Zm1.47,4.337h-1.47a.784.784,0,0,0,0,1.568h1.47a.784.784,0,0,0,0-1.568ZM65.492,66.932a6.732,6.732,0,0,1-9.54,0,6.8,6.8,0,0,1,0-9.573,6.732,6.732,0,0,1,9.54,0A6.8,6.8,0,0,1,65.492,66.932Zm-1.105-8.465a5.173,5.173,0,0,0-7.331,0,5.223,5.223,0,0,0,0,7.357,5.173,5.173,0,0,0,7.331,0A5.22,5.22,0,0,0,64.387,58.468Zm-1.005,1.009a.779.779,0,0,0-1.105,0l-1.556,1.561-1.556-1.561a.783.783,0,1,0-1.105,1.109l1.556,1.562-1.556,1.561a.782.782,0,1,0,1.1,1.109l1.556-1.562,1.556,1.561a.782.782,0,0,0,1.1-1.109l-1.556-1.561,1.556-1.562a.784.784,0,0,0,0-1.109Z" transform="translate(-46.638 -48.082)" fill="white"/>
</svg>
