<svg t="1658481548212" fill="#339061" class="icon" viewBox="0 0 1024 1024" version="1.1" xmlns="http://www.w3.org/2000/svg" p-id="2004" width="20" height="20"><path d="M322.142929 293.741129H701.345327c27.122439 0 49.127436-22.004998 49.127437-49.127436s-22.004998-49.127436-49.127437-49.127436H322.142929c-27.122439 0-49.127436 22.004998-49.127437 49.127436s22.004998 49.127436 49.127437 49.127436zM322.142929 480.527736H701.345327c27.122439 0 49.127436-22.004998 49.127437-49.127436s-22.004998-49.127436-49.127437-49.127436H322.142929c-27.122439 0-49.127436 22.004998-49.127437 49.127436s22.004998 49.127436 49.127437 49.127436z" p-id="2005"></path><path d="M876.873563 0H147.126437C86.228886 0 36.589705 49.63918 36.589705 110.536732v802.414792c0 60.897551 49.63918 110.536732 110.536732 110.536732h157.105447c28.657671 0 52.197901-23.028486 52.197901-52.197901 0-28.657671-23.028486-52.197901-52.197901-52.197901H147.126437c-3.582209 0-6.652674-3.070465-6.652674-6.652674V110.536732c0-3.582209 3.070465-6.652674 6.652674-6.652674h729.747126c3.582209 0 6.652674 3.070465 6.652674 6.652674v802.414792c0 3.582209-3.070465 6.652674-6.652674 6.652674h-162.222888c-28.657671 0-52.197901 23.028486-52.197901 52.197901 0 28.657671 23.028486 52.197901 52.197901 52.197901h162.222888c60.897551 0 110.536732-49.63918 110.536732-110.536732V110.536732c0-60.897551-49.63918-110.536732-110.536732-110.536732z" p-id="2006"></path><path d="M671.664168 710.812594l-124.865567-124.865568c-19.446277-19.446277-50.662669-19.446277-69.597202 0l-124.865567 124.865568c-19.446277 19.446277-19.446277 50.662669 0 69.597201 19.446277 19.446277 50.662669 19.446277 69.597201 0l40.427787-40.427786v231.308346c0 27.122439 22.004998 49.127436 49.127436 49.127436s49.127436-22.004998 49.127436-49.127436v-231.308346l40.427786 40.427786c9.723138 9.723138 22.516742 14.328836 34.798601 14.328836 12.793603 0 25.075462-4.605697 34.798601-14.328836 20.469765-19.446277 20.469765-50.662669 1.023488-69.597201z" p-id="2007"></path></svg>