<svg xmlns="http://www.w3.org/2000/svg" width="19.58" height="19.58" viewBox="0 0 19.58 19.58">
  <g id="History" transform="translate(-170.667 -170.667)">
    <path id="8107" data-name="8107" d="M186.17,184.538v-.816a.816.816,0,0,0-1.632,0v1.632a.813.813,0,0,0,.816.816h1.632a.816.816,0,1,0,0-1.632h-.816Zm-4.465,4.08a4.9,4.9,0,1,0,5.281-7.882V172.3a1.632,1.632,0,0,0-1.632-1.632H172.3a1.632,1.632,0,0,0-1.632,1.632v11.423a4.9,4.9,0,0,0,4.9,4.9h6.143Zm-.968-1.632h-5.175a3.264,3.264,0,0,1-3.264-3.264V172.3h13.055v8.16a4.9,4.9,0,0,0-4.618,6.528Zm4.617-4.9a3.264,3.264,0,1,1-3.264,3.264A3.264,3.264,0,0,1,185.354,182.091Zm-8.976,0h1.632a.816.816,0,0,0,0-1.632h-1.632a.816.816,0,1,0,0,1.632Zm-1.632,3.264h3.264a.816.816,0,1,0,0-1.632h-3.264a.816.816,0,1,0,0,1.632Z" transform="translate(0 0)" fill="#f6ba2f"/>
    <path id="8108" data-name="8108" d="M284.444,178.827l3.264-2.136,3.264,2.136v-8.16h-6.528Zm1.632-3.019V172.3h3.264v3.509l-1.632-1.067Z" transform="translate(-110.513)" fill="#f6ba2f"/>
  </g>
</svg>