<svg fill="#339061" t="1660188018933" class="icon" viewBox="0 0 1024 1024" version="1.1" xmlns="http://www.w3.org/2000/svg" p-id="1797" width="20" height="20"><path d="M512 85.333333C276.48 85.333333 85.333333 276.48 85.333333 512s191.146667 426.666667 426.666667 426.666667 426.666667-191.146667 426.666667-426.666667S747.52 85.333333 512 85.333333z m0 768c-188.586667 0-341.333333-152.746667-341.333333-341.333333s152.746667-341.333333 341.333333-341.333333 341.333333 152.746667 341.333333 341.333333-152.746667 341.333333-341.333333 341.333333z" p-id="1798"></path><path d="M512 512m-213.333333 0a213.333333 213.333333 0 1 0 426.666666 0 213.333333 213.333333 0 1 0-426.666666 0Z" p-id="1799"></path></svg>