<svg xmlns="http://www.w3.org/2000/svg" width="15" height="15" viewBox="0 0 15 15">
  <g id="Depart" transform="translate(-258 -386)">
    <g id="group_10068" data-name="group 10068" transform="translate(-15275 -8029)">
      <circle id="rock_729" data-name="rock 729" cx="7.5" cy="7.5" r="7.5" transform="translate(15533 8415)" fill="#fff"/>
    </g>
    <path id="rate_8055" data-name="rate 8055" d="M53.172,197.316a.649.649,0,0,1-.192.547,1.033,1.033,0,0,1-.614.144h-.6q-.412,0-.878,0t-.906,0h-.7a1.891,1.891,0,0,0-.58.072.3.3,0,0,0-.206.331q0,.192-.01.456t-.01.465q0,.336-.182.427t-.47-.129l-.681-.542-.8-.638-.806-.643q-.4-.316-.7-.556a.634.634,0,0,1-.293-.436.575.575,0,0,1,.264-.427q.269-.23.643-.532t.777-.623q.4-.321.791-.638l.7-.566q.336-.269.551-.206t.216.408v.24q0,.134,0,.278t.01.283q0,.139,0,.245.01.24.153.3a1.011,1.011,0,0,0,.393.062q.278,0,.729,0t.94,0q.489,0,.949,0t.748,0a1.832,1.832,0,0,1,.259.019.6.6,0,0,1,.245.091.558.558,0,0,1,.182.2.7.7,0,0,1,.072.34q0,.259,0,.5T53.172,197.316Z" transform="translate(462.306 344.646) rotate(90)" fill="#05a797"/>
  </g>
</svg>
