<svg xmlns="http://www.w3.org/2000/svg" xmlns:xlink="http://www.w3.org/1999/xlink" width="125.491" height="32.618" viewBox="0 0 125.491 32.618">
  <defs>
    <linearGradient id="linear-gradient" x1="0.755" y1="-0.2" x2="1.302" y2="1.319" gradientUnits="objectBoundingBox">
      <stop offset="0" stop-color="#69a3f0"/>
      <stop offset="1" stop-color="#4467bc"/>
    </linearGradient>
  </defs>
  <g id="logoM" transform="translate(-127 -582)">
    <g id="组_9979" data-name="组 9979" transform="translate(127 582)">
      <path id="路径_7928" data-name="路径 7928" d="M105.573,629.668c.5-.487.753-.737,1.007-.991l11.864-11.909a6.308,6.308,0,0,1,.645-.619.994.994,0,0,1,1.661.639,5.712,5.712,0,0,1,.048,1.09q0,13.525,0,27.052v1.359h2.91c.017-.421.047-.839.047-1.256q0-13.376,0-26.754v-1.308h1.973a6.755,6.755,0,0,1,.09.778q.007,14.62,0,29.24c0,1.157-.307,1.448-1.494,1.457-1.327.011-2.653.007-3.98,0-1.362-.005-1.634-.272-1.635-1.623q0-12.63,0-25.262v-1.732a1.026,1.026,0,0,0-.166-.082.115.115,0,0,0-.089.01q-5.529,5.509-11.052,11.022c-.183.183-.344.39-.579.659.274.279.518.534.77.783a21.817,21.817,0,0,1,3.589,4.494,10.07,10.07,0,0,1,1.375,3.7,6.644,6.644,0,0,1-3.054,6.858,6.564,6.564,0,0,1-7.51.107,6.652,6.652,0,0,1-3.25-6.679,9.856,9.856,0,0,1,1.515-4.169,21.208,21.208,0,0,1,3.426-4.246c.282-.275.61-.5.888-.73-.589-.936-11.1-11.424-11.914-11.88V620.9q0,12.829,0,25.66c0,1.732-.154,1.886-1.856,1.889-1.26,0-2.52.01-3.78,0-1.152-.012-1.464-.322-1.465-1.5q-.008-14.57,0-29.141c0-.257.047-.514.077-.818H87.63V646.3h2.994v-1.29q0-13.576,0-27.151a8.606,8.606,0,0,1,.016-.993,1,1,0,0,1,1.679-.708,6.3,6.3,0,0,1,.648.616q5.942,5.944,11.878,11.895A8.709,8.709,0,0,1,105.573,629.668Zm.2,3.648a1.628,1.628,0,0,0-.349.173,17.671,17.671,0,0,0-3.995,5.269,5.69,5.69,0,0,0-.556,3.758,4.908,4.908,0,1,0,9.533-2.324C109.666,637.352,107.753,635.3,105.771,633.317Z" transform="translate(-85.556 -615.895)" fill="url(#linear-gradient)"/>
      <g id="组_9978" data-name="组 9978" transform="translate(43.011 2.455)">
        <path id="路径_7924" data-name="路径 7924" d="M169.459,644.217v2.169H166.5c-.2-.773-.247-26.292-.052-27.407h3.127v9.9a3.192,3.192,0,0,0,.427-.353c1.906-2.585,4.47-3.244,7.483-2.533,3.44.811,5.191,3.21,5.99,6.468a14.807,14.807,0,0,1-.546,8.7,8.159,8.159,0,0,1-9.66,5.372,5.343,5.343,0,0,1-3.241-1.966,3.141,3.141,0,0,1-.268-.508Zm11.043-8.125a11.671,11.671,0,0,0-.727-4.281,4.608,4.608,0,0,0-2.319-2.481,5.084,5.084,0,0,0-7.3,3.071,13.668,13.668,0,0,0-.636,5.782,10.425,10.425,0,0,0,.566,2.605,5.225,5.225,0,0,0,5.125,3.386,4.772,4.772,0,0,0,4.572-3.49A15.168,15.168,0,0,0,180.5,636.092Z" transform="translate(-145.05 -618.979)" fill="url(#linear-gradient)"/>
        <path id="路径_7927" data-name="路径 7927" d="M139.6,638.16a15.648,15.648,0,0,1,1-5.135,8.13,8.13,0,0,1,6.2-5.312,8.816,8.816,0,0,1,8.645,2.5,10.235,10.235,0,0,1,2.408,5.149,12.943,12.943,0,0,1-.8,7.969,7.858,7.858,0,0,1-5.6,4.771,10.248,10.248,0,0,1-5.676-.148,7.728,7.728,0,0,1-4.8-4.042A13.564,13.564,0,0,1,139.6,638.16Zm3.413.01a11.774,11.774,0,0,0,1.046,4.553,5.037,5.037,0,0,0,4.844,3.029,4.956,4.956,0,0,0,4.821-3.059,10.736,10.736,0,0,0,.034-9.142,4.989,4.989,0,0,0-4.88-3.142,5.067,5.067,0,0,0-4.911,3.253A12.293,12.293,0,0,0,143.009,638.17Z" transform="translate(-139.596 -620.71)" fill="url(#linear-gradient)"/>
        <path id="路径_7922" data-name="路径 7922" d="M222.547,641.751h3.018c.055.244.11.49.166.737a3.866,3.866,0,0,0,2.81,3.052,7.9,7.9,0,0,0,5.072-.059,2.994,2.994,0,0,0,2.069-2.554,1.735,1.735,0,0,0-.835-1.956,11.641,11.641,0,0,0-2.446-1.059c-1.4-.4-2.83-.68-4.249-1.007a9.206,9.206,0,0,1-3.032-1.2,4.1,4.1,0,0,1-2.014-3.856,5.992,5.992,0,0,1,4.049-5.707,10.18,10.18,0,0,1,7.194-.116,5.841,5.841,0,0,1,3.934,5.846h-3.019a1.884,1.884,0,0,1-.177-.435,3.038,3.038,0,0,0-2.57-2.782,7.123,7.123,0,0,0-4.208.091,2.646,2.646,0,0,0-1.917,2.406,1.74,1.74,0,0,0,.961,1.9,13.4,13.4,0,0,0,2.413.872c1.472.385,2.975.65,4.444,1.047a10.166,10.166,0,0,1,2.2.9,4.514,4.514,0,0,1,2.528,5.04,5.535,5.535,0,0,1-3.628,4.717,12.255,12.255,0,0,1-9.123-.056A5.743,5.743,0,0,1,222.547,641.751Z" transform="translate(-156.524 -620.703)" fill="url(#linear-gradient)"/>
        <path id="路径_7923" data-name="路径 7923" d="M215.289,648.266h-3.023v-2.925a2.719,2.719,0,0,0-.454.345c-1.707,2.454-4.148,3.137-6.967,2.868a9.317,9.317,0,0,1-1.747-.361,5.174,5.174,0,0,1-3.882-4.755c-.039-.428-.052-.86-.053-1.291q0-6.46,0-12.922c0-.321.035-.642.057-1h3.3c.018.391.047.743.047,1.1,0,3.876-.008,7.753.011,11.629a12.449,12.449,0,0,0,.2,2.27,3.3,3.3,0,0,0,3.327,2.84,5.024,5.024,0,0,0,5.364-3.541,11.044,11.044,0,0,0,.638-3.8q0-4.671,0-9.343v-1.135h3.186Z" transform="translate(-151.752 -620.865)" fill="url(#linear-gradient)"/>
        <path id="路径_7925" data-name="路径 7925" d="M194.731,648.25h-3.167c-.216-.717-.3-18.336-.088-20.051a24.674,24.674,0,0,1,3.254.01Z" transform="translate(-150.159 -620.851)" fill="url(#linear-gradient)"/>
      </g>
    </g>
    <path id="路径_7926" data-name="路径 7926" d="M191.441,622.6v-3.668c1.094-.056,2.159-.031,3.3-.009V622.6C193.687,622.655,192.621,622.643,191.441,622.6Z" transform="translate(19.834 -34.506)" fill="url(#linear-gradient)"/>
  </g>
</svg>
