<svg xmlns="http://www.w3.org/2000/svg" width="103.18" height="90.039" viewBox="0 0 103.18 90.039">
  <g id="logo" transform="translate(-128.41 -327.42)">
    <g id="group_10293" data-name="group 10293" transform="translate(128.41 390.641)">
      <path id="rate_8172" data-name="rate 8172" d="M102.015,627.22c.407-.4.619-.606.828-.815l9.755-9.792a5.173,5.173,0,0,1,.53-.509.818.818,0,0,1,1.366.525,4.7,4.7,0,0,1,.039.9q0,11.121,0,22.242v1.118h2.393c.014-.346.039-.69.039-1.033q0-11,0-22V616.78h1.622a5.544,5.544,0,0,1,.074.639q.006,12.021,0,24.041c0,.952-.253,1.19-1.228,1.2-1.091.009-2.181.006-3.272,0-1.12,0-1.344-.224-1.344-1.334q0-10.384,0-20.77v-1.424a.858.858,0,0,0-.136-.067.094.094,0,0,0-.073.008q-4.546,4.529-9.087,9.062c-.151.151-.283.321-.476.542.225.229.426.439.633.644a17.938,17.938,0,0,1,2.951,3.695,8.279,8.279,0,0,1,1.13,3.046,5.463,5.463,0,0,1-2.511,5.638,5.4,5.4,0,0,1-6.174.088,5.469,5.469,0,0,1-2.672-5.492,8.1,8.1,0,0,1,1.246-3.428,17.437,17.437,0,0,1,2.817-3.491c.232-.226.5-.414.73-.6-.484-.77-9.125-9.393-9.8-9.768v1q0,10.548,0,21.1c0,1.424-.127,1.551-1.526,1.553-1.036,0-2.072.008-3.108,0-.947-.01-1.2-.264-1.2-1.232q-.007-11.98,0-23.96c0-.211.039-.423.063-.673h1.639v24.1h2.462v-1.061q0-11.162,0-22.324a7.075,7.075,0,0,1,.013-.817.819.819,0,0,1,1.38-.582,5.178,5.178,0,0,1,.533.507q4.885,4.887,9.766,9.78A7.169,7.169,0,0,1,102.015,627.22Zm.162,3a1.334,1.334,0,0,0-.287.142,14.529,14.529,0,0,0-3.284,4.332,4.679,4.679,0,0,0-.457,3.09,4.035,4.035,0,1,0,7.838-1.911C105.38,633.537,103.807,631.853,102.177,630.219Z" transform="translate(-85.556 -615.895)" fill="#57abff"/>
      <path id="rate_8173" data-name="rate 8173" d="M168.9,639.73v1.783h-2.434c-.166-.635-.2-21.618-.043-22.534H169v8.141a2.618,2.618,0,0,0,.351-.29,5.456,5.456,0,0,1,6.153-2.083c2.828.667,4.268,2.639,4.925,5.318a12.175,12.175,0,0,1-.449,7.151,6.708,6.708,0,0,1-7.943,4.417,4.394,4.394,0,0,1-2.665-1.616,2.584,2.584,0,0,1-.221-.417Zm9.079-6.68a9.6,9.6,0,0,0-.6-3.52,3.789,3.789,0,0,0-1.906-2.04,4.18,4.18,0,0,0-6,2.525,11.238,11.238,0,0,0-.523,4.754,8.572,8.572,0,0,0,.465,2.142,4.3,4.3,0,0,0,4.214,2.784,3.923,3.923,0,0,0,3.759-2.87A12.473,12.473,0,0,0,177.98,633.049Z" transform="translate(-113.469 -616.961)" fill="#57abff"/>
      <path id="rate_8174" data-name="rate 8174" d="M139.6,636.258a12.865,12.865,0,0,1,.826-4.222,6.684,6.684,0,0,1,5.1-4.368,7.249,7.249,0,0,1,7.108,2.055,8.417,8.417,0,0,1,1.98,4.234,10.642,10.642,0,0,1-.654,6.552,6.461,6.461,0,0,1-4.6,3.923,8.426,8.426,0,0,1-4.667-.122,6.354,6.354,0,0,1-3.947-3.324A11.152,11.152,0,0,1,139.6,636.258Zm2.806.008a9.682,9.682,0,0,0,.86,3.744,4.142,4.142,0,0,0,3.983,2.491,4.075,4.075,0,0,0,3.964-2.515,8.827,8.827,0,0,0,.028-7.517,4.1,4.1,0,0,0-4.012-2.583,4.166,4.166,0,0,0-4.038,2.675A10.109,10.109,0,0,0,142.4,636.266Z" transform="translate(-104.232 -619.892)" fill="#57abff"/>
      <path id="rate_8175" data-name="rate 8175" d="M222.546,639.2h2.482l.136.606a3.178,3.178,0,0,0,2.31,2.51,6.491,6.491,0,0,0,4.171-.048,2.461,2.461,0,0,0,1.7-2.1,1.427,1.427,0,0,0-.686-1.609,9.562,9.562,0,0,0-2.011-.871c-1.148-.332-2.327-.56-3.494-.828a7.572,7.572,0,0,1-2.493-.984,3.373,3.373,0,0,1-1.656-3.171,4.926,4.926,0,0,1,3.329-4.692,8.369,8.369,0,0,1,5.915-.1,4.8,4.8,0,0,1,3.235,4.807H233a1.553,1.553,0,0,1-.146-.357,2.5,2.5,0,0,0-2.113-2.287,5.858,5.858,0,0,0-3.46.075,2.176,2.176,0,0,0-1.576,1.978,1.43,1.43,0,0,0,.79,1.565,11.016,11.016,0,0,0,1.984.717c1.21.317,2.446.535,3.654.861a8.362,8.362,0,0,1,1.807.74,3.711,3.711,0,0,1,2.078,4.144,4.55,4.55,0,0,1-2.983,3.879,10.077,10.077,0,0,1-7.5-.046A4.722,4.722,0,0,1,222.546,639.2Z" transform="translate(-132.897 -619.88)" fill="#57abff"/>
      <path id="rate_8176" data-name="rate 8176" d="M212.422,644.7h-2.485v-2.4a2.24,2.24,0,0,0-.374.284,5.742,5.742,0,0,1-5.729,2.358,7.665,7.665,0,0,1-1.436-.3,4.254,4.254,0,0,1-3.192-3.909c-.032-.352-.043-.707-.043-1.061q0-5.312,0-10.624c0-.264.029-.528.046-.826h2.713c.014.321.039.611.039.9,0,3.187-.007,6.375.009,9.562a10.234,10.234,0,0,0,.161,1.866,2.713,2.713,0,0,0,2.735,2.335,4.131,4.131,0,0,0,4.411-2.911,9.082,9.082,0,0,0,.525-3.125q0-3.841,0-7.682v-.933h2.62Z" transform="translate(-124.817 -620.155)" fill="#57abff"/>
      <path id="rate_8177" data-name="rate 8177" d="M194.13,644.676h-2.6c-.177-.59-.247-15.076-.072-16.487a20.3,20.3,0,0,1,2.676.008Z" transform="translate(-122.119 -620.13)" fill="#57abff"/>
    </g>
    <g id="group_10295" data-name="group 10295" transform="translate(144.533 327.42)">
      <path id="rate_8187" data-name="rate 8187" d="M299.669,207.79a9.083,9.083,0,0,1,2.757,2.58,8.5,8.5,0,0,1,1.663,5.1q-.008,13.813,0,27.626c0,.7-.229,1.032-.708,1.025s-.693-.327-.693-1.041q0-13.813-.006-27.626a7.532,7.532,0,0,0-3.04-5.969c-.144-.118-.3-.218-.439-.344a4.615,4.615,0,0,1-.332-.379,11.053,11.053,0,0,1-15.808.152,11.261,11.261,0,0,1-.637-15.221,11.112,11.112,0,0,1,19.476,8.492A11.215,11.215,0,0,1,299.669,207.79Zm-8.816-16.623a9.791,9.791,0,1,0,9.7,9.743A9.773,9.773,0,0,0,290.853,191.167Z" transform="translate(-268.731 -189.757)" fill="#57abff"/>
      <path id="rate_8188" data-name="rate 8188" d="M533.178,201.018a11.1,11.1,0,1,1-10.873-11.23A11.167,11.167,0,0,1,533.178,201.018Zm-20.781-.065a9.687,9.687,0,1,0,9.682-9.758A9.764,9.764,0,0,0,512.4,200.953Z" transform="translate(-472.441 -189.784)" fill="#57abff"/>
      <path id="rate_8189" data-name="rate 8189" d="M695.44,364c0,1.355.039,2.711-.008,4.064a4.24,4.24,0,0,1-4.621,4.07,3.064,3.064,0,0,1-2.244-1.364,6.644,6.644,0,0,1-1.2-4.09c0-2.3-.029-4.6-.07-6.892-.013-.716-.11-1.43-.16-2.146-.037-.537.191-.861.614-.9.444-.038.742.248.8.8a73.551,73.551,0,0,1,.28,8.082,20.216,20.216,0,0,0,.166,2.731,3.532,3.532,0,0,0,.473,1.217,1.975,1.975,0,0,0,2.8.95A2.646,2.646,0,0,0,694,368.174a54.2,54.2,0,0,0-2.895-21.688,28.616,28.616,0,0,0-5.465-9.374,33.757,33.757,0,0,0-2.624-2.429.731.731,0,0,1-.227-.95.647.647,0,0,1,.959-.235,11.627,11.627,0,0,1,1.42,1.085,26.428,26.428,0,0,1,5.867,8.073,43.256,43.256,0,0,1,3.842,12.967A54.355,54.355,0,0,1,695.44,364Z" transform="translate(-623.735 -316.293)" fill="#57abff"/>
      <path id="rate_8190" data-name="rate 8190" d="M194.15,412.026c.036-.516.341-.82.761-.792.451.03.711.375.652.91a68.552,68.552,0,0,0-.3,9.435,4.267,4.267,0,0,1-4.336,4.467,6.029,6.029,0,0,1-1.421-.145,3.05,3.05,0,0,1-2.462-2.953,63.7,63.7,0,0,1,.75-13.746,43.8,43.8,0,0,1,3.167-10.784c.38-.847.817-1.669,1.241-2.5a.721.721,0,0,1,1.021-.384.707.707,0,0,1,.232,1.037,40.864,40.864,0,0,0-4.3,13.066,63.45,63.45,0,0,0-.719,12.913c.054,1.387.663,1.97,2.053,2.088a2.968,2.968,0,0,0,3.361-3.182c-.027-1.062,0-2.126,0-3.189C193.809,418.271,194.007,414.106,194.15,412.026Z" transform="translate(-186.96 -370.983)" fill="#57abff"/>
      <path id="rate_8191" data-name="rate 8191" d="M486.193,395.353c-.685-.064-.933-.24-.97-.643a.683.683,0,0,1,.659-.787,6.879,6.879,0,0,1,1.075,0,.679.679,0,0,1,.67.741q-.008,14.228-.018,28.457a1.4,1.4,0,0,1-.019.277.69.69,0,0,1-.742.579.679.679,0,0,1-.654-.672c-.007-.106,0-.213,0-.319q0-13.571,0-27.142Z" transform="translate(-449.747 -369.622)" fill="#57abff"/>
      <path id="rate_8192" data-name="rate 8192" d="M703.7,434.341q0-6.216,0-12.432a3.208,3.208,0,0,1,.012-.4.7.7,0,0,1,1.383.006,2.87,2.87,0,0,1,.01.358q0,12.432,0,24.865c0,.106,0,.213,0,.319a.7.7,0,1,1-1.4-.007c-.005-.093,0-.186,0-.279V434.341Z" transform="translate(-642.241 -393.407)" fill="#57abff"/>
      <path id="rate_8193" data-name="rate 8193" d="M241.485,340.85a4.342,4.342,0,1,1,4.332-4.331A4.308,4.308,0,0,1,241.485,340.85Zm0-1.417a2.923,2.923,0,1,0-2.866-2.951A2.923,2.923,0,0,0,241.487,339.433Z" transform="translate(-231.229 -315.23)" fill="#57abff"/>
      <path id="rate_8194" data-name="rate 8194" d="M261.945,484.68q0-4.625,0-9.249a2.116,2.116,0,0,1,.02-.437.7.7,0,0,1,1.343-.044,1.765,1.765,0,0,1,.037.474q0,9.269,0,18.539a2.47,2.47,0,0,1-.019.437.667.667,0,0,1-.72.552.652.652,0,0,1-.652-.585,2.4,2.4,0,0,1-.011-.4Q261.944,489.324,261.945,484.68Z" transform="translate(-253.025 -440.598)" fill="#57abff"/>
      <path id="rate_8195" data-name="rate 8195" d="M462.163,334.279c-.769,0-1.539,0-2.308,0a.71.71,0,1,1-.015-1.413q2.348-.01,4.7,0a.7.7,0,0,1,.774.722c-.009.427-.3.688-.8.691C463.729,334.282,462.946,334.278,462.163,334.279Z" transform="translate(-426.702 -315.84)" fill="#57abff"/>
    </g>
  </g>
</svg>
