<svg xmlns="http://www.w3.org/2000/svg" width="25.755" height="25.752" viewBox="0 0 25.755 25.752">
  <path id="2" d="M75.095,58.879h-.514V56.3A2.746,2.746,0,0,0,73.2,54.067S70.46,52.7,63.765,52.7s-9.436,1.369-9.436,1.369A2.746,2.746,0,0,0,52.946,56.3v2.578h-.514a1.55,1.55,0,0,0-1.546,1.543v1.546a1.55,1.55,0,0,0,1.546,1.546h.514V74.073a1.553,1.553,0,0,0,1.032,1.456v.862a2.06,2.06,0,1,0,4.121,0v-.771h11.33v.771a2.06,2.06,0,0,0,4.121,0v-.862a1.55,1.55,0,0,0,1.032-1.456V63.514h.514a1.55,1.55,0,0,0,1.546-1.546V60.422a1.55,1.55,0,0,0-1.546-1.543ZM58.612,55.273a.518.518,0,0,1,.514-.514H68.4a.518.518,0,0,1,.514.514V56.3a.518.518,0,0,1-.514.518H59.127a.518.518,0,0,1-.514-.518ZM56.3,73.558a1.289,1.289,0,1,1,1.289-1.289A1.289,1.289,0,0,1,56.3,73.558Zm14.936,0a1.289,1.289,0,1,1,1.289-1.289,1.289,1.289,0,0,1-1.289,1.289Zm1.289-5.924a.518.518,0,0,1-.514.514H55.524a.518.518,0,0,1-.518-.514V59.393a.518.518,0,0,1,.518-.514H72.006a.518.518,0,0,1,.514.514Zm0,0" transform="translate(-50.885 -52.698)" fill="#5073c7"/>
</svg>
