<svg xmlns="http://www.w3.org/2000/svg" width="28.712" height="24.38" viewBox="0 0 28.712 24.38">
  <g id="Contract_End_Date" data-name="Contract End Date" transform="translate(561.647 -9296.819)">
    <g id="A" transform="translate(-550.647 9296.819)">
      <g id="A-2" data-name="A" transform="translate(-11 0)">
        <g id="Q">
          <g id="A-3" data-name="A">
            <path id="A-4" data-name="A" d="M47.214,110.01v-.855a.611.611,0,1,1,1.222,0v.855h4.887a3.025,3.025,0,0,1,3.054,3.054v2.2a.611.611,0,1,1-1.222,0v-2.2a1.8,1.8,0,0,0-1.833-1.833H48.436v1.1a.611.611,0,0,1-1.222,0v-1.1H39.272v1.1a.611.611,0,0,1-1.222,0v-1.1H33.774a1.8,1.8,0,0,0-1.833,1.833v3.543H43.854a.611.611,0,0,1,0,1.222H31.942v11.729a1.8,1.8,0,0,0,1.833,1.833h10.08a.611.611,0,1,1,0,1.222H33.774a3.025,3.025,0,0,1-3.054-3.054V113.065a3.025,3.025,0,0,1,3.054-3.054h4.276v-.855a.611.611,0,1,1,1.222,0v.855h7.942ZM58.393,128.7a.629.629,0,1,1-1.1-.611,7.013,7.013,0,1,0-9.53,2.749,7.069,7.069,0,0,0,7.636-.55.611.611,0,1,1,.733.977,8.279,8.279,0,1,1-.977-13.867A8.357,8.357,0,0,1,58.393,128.7Zm-22.359-6.72a4,4,0,0,0,2.382-1.466h.733v7.7H37.867V122.35a4.266,4.266,0,0,1-1.833.672Z" transform="translate(-30.72 -108.544)" fill="#486afc"/>
          </g>
        </g>
        <g id="A-5" data-name="A" transform="translate(12.174 7.822)">
          <g id="A-6" data-name="A" transform="translate(0 0)">
            <path id="A-7" data-name="A" d="M57.22,127.949a.629.629,0,1,1-1.1-.611,7.013,7.013,0,1,0-9.53,2.749,7.069,7.069,0,0,0,7.636-.55.611.611,0,1,1,.733.977,8.279,8.279,0,1,1-.977-13.867A8.357,8.357,0,0,1,57.22,127.949Z" transform="translate(-41.718 -115.612)" fill="#364fba"/>
          </g>
          <path id="A-8" data-name="A" d="M198.555,0a.369.369,0,0,0-.369.369v6.89a.369.369,0,0,0,.738,0V.369A.369.369,0,0,0,198.555,0Zm3.054,0a.369.369,0,0,0-.369.369v6.89a.369.369,0,1,0,.738,0V.369A.369.369,0,0,0,201.609,0Z" transform="translate(-192.099 4.083)" fill="#364fba" stroke="#364fba" stroke-width="0.6"/>
        </g>
      </g>
    </g>
  </g>
</svg>
