<svg id="Contract_Start_Date" data-name="Contract Start Date" xmlns="http://www.w3.org/2000/svg" width="28.619" height="24.494" viewBox="0 0 28.619 24.494">
  <g id="A" transform="translate(0 0)">
    <g id="A-2" data-name="A">
      <g id="A-3" data-name="A">
        <path id="A-4" data-name="A" d="M47.214,110.01v-.855a.611.611,0,1,1,1.222,0v.855h4.887a3.025,3.025,0,0,1,3.054,3.054v2.2a.611.611,0,1,1-1.222,0v-2.2a1.8,1.8,0,0,0-1.833-1.833H48.436v1.1a.611.611,0,0,1-1.222,0v-1.1H39.272v1.1a.611.611,0,0,1-1.222,0v-1.1H33.774a1.8,1.8,0,0,0-1.833,1.833v3.543H43.854a.611.611,0,0,1,0,1.222H31.942v11.729a1.8,1.8,0,0,0,1.833,1.833h10.08a.611.611,0,1,1,0,1.222H33.774a3.025,3.025,0,0,1-3.054-3.054V113.065a3.025,3.025,0,0,1,3.054-3.054h4.276v-.855a.611.611,0,1,1,1.222,0v.855h7.942ZM36.035,121.984a4,4,0,0,0,2.382-1.466h.733v7.7H37.867V122.35a4.266,4.266,0,0,1-1.833.672Z" transform="translate(-30.72 -108.544)" fill="#486afc"/>
      </g>
    </g>
    <g id="A-5" data-name="A" transform="translate(12.608 8.465)">
      <path id="A-6" data-name="A" d="M60.8,130.176a.609.609,0,0,1-1.065-.591,6.79,6.79,0,1,0-9.226,2.661,6.843,6.843,0,0,0,7.393-.532.591.591,0,0,1,.71.946,8.015,8.015,0,1,1-.946-13.425A8.09,8.09,0,0,1,60.8,130.176ZM54.12,120.95v5.323l4.85,1.065a.6.6,0,0,1-.237,1.183l-5.8-1.3V120.95a.591.591,0,0,1,1.183,0Z" transform="translate(-45.796 -118.232)" fill="#00baf2"/>
    </g>
  </g>
</svg>
