<?xml version="1.0" standalone="no"?>
<!DOCTYPE svg PUBLIC "-//W3C//DTD SVG 1.1//EN" "http://www.w3.org/Graphics/SVG/1.1/DTD/svg11.dtd"><svg t="1655975828724" class="icon" viewBox="0 0 1024 1024" version="1.1" xmlns="http://www.w3.org/2000/svg" p-id="1718" xmlns:xlink="http://www.w3.org/1999/xlink" width="32" height="32">
<path d="M500.821333 234.666667a156.714667 156.714667 0 0 1 34.133334 3.797333l314.666666 74.069333c7.253333 1.664 14.549333 2.773333 9.898667 8.533334L546.901333 430.933333a153.6 153.6 0 0 1-44.032 6.741334 149.333333 149.333333 0 0 1-46.336-7.338667s-290.474667-105.728-292.864-109.653333 2.730667-6.4 6.997334-7.296l2.730666-0.64 292.693334-74.154667a155.562667 155.562667 0 0 1 34.688-3.925333m0-64a220.117333 220.117333 0 0 0-48.938667 5.504L157.866667 250.709333a123.008 123.008 0 0 0-48.938667 22.570667A56.832 56.832 0 0 0 85.333333 315.264c0 13.141333 3.626667 45.141333 55.168 65.109333L435.2 490.666667a213.077333 213.077333 0 0 0 67.669333 11.008 218.624 218.624 0 0 0 64-9.941334l313.941334-110.250666C935.04 362.666667 938.666667 329.429333 938.666667 315.733333c-1.578667-30.464-29.141333-55.125333-74.453334-65.621333l-314.453333-74.026667A220.672 220.672 0 0 0 500.821333 170.666667z" fill="#5B72FD" p-id="1719"></path>
<path d="M864.213333 426.069333l-8.533333-2.090666-112.128 39.381333 106.368 25.045333c7.253333 1.664 14.549333 2.773333 9.898667 8.533334l-312.746667 109.781333a153.898667 153.898667 0 0 1-44.032 6.784 147.882667 147.882667 0 0 1-46.336-7.381333s-290.645333-105.642667-293.034667-109.568 2.645333-6.4 7.04-7.338667l2.730667-0.597333 99.626667-25.216-105.344-39.381334L157.866667 426.666667a122.410667 122.410667 0 0 0-48.938667 22.570666 56.746667 56.746667 0 0 0-23.594667 41.898667c0 13.141333 3.626667 45.141333 55.210667 65.066667L435.2 666.453333a213.077333 213.077333 0 0 0 67.669333 11.008 217.216 217.216 0 0 0 64-9.984l313.984-110.208c54.186667-18.901333 57.813333-51.968 57.813334-65.621333-1.578667-30.421333-29.141333-55.082667-74.453334-65.578667z" fill="#F8B422" p-id="1720"></path>
<path d="M864.213333 601.898667l-8.533333-2.048-112.128 39.381333 106.368 25.045333c7.253333 1.664 14.549333 2.773333 9.898667 8.533334l-312.746667 109.781333a153.898667 153.898667 0 0 1-44.032 6.784 147.882667 147.882667 0 0 1-46.336-7.381333S166.229333 676.394667 163.84 672.426667s2.56-6.4 6.826667-7.338667l2.730666-0.597333 99.669334-25.258667-105.344-39.338667-10.026667 2.56a122.410667 122.410667 0 0 0-48.938667 22.570667 56.704 56.704 0 0 0-23.424 41.984c0 13.098667 3.626667 45.141333 55.210667 65.066667l294.656 110.250666a213.077333 213.077333 0 0 0 67.669333 11.008 217.216 217.216 0 0 0 64-9.984l313.984-110.208C935.04 714.24 938.666667 681.173333 938.666667 667.52c-1.578667-30.421333-29.141333-55.125333-74.453334-65.621333z" fill="#C33EFE" p-id="1721"></path></svg>