<svg xmlns="http://www.w3.org/2000/svg" width="36" height="36" viewBox="0 0 29.228 24.494">
  <g id="Last_Incident" data-name="Last Incident" transform="translate(456.228 -9296.819)">
    <g id="A" transform="translate(-456.228 9296.819)">
      <g id="A-2" data-name="A" transform="translate(0 0)">
        <g id="A-3" data-name="A">
          <g id="A-4" data-name="A">
            <g id="20" data-name="20">
              <g id="10" data-name="10">
                <path id="22" data-name="22" d="M47.214,110.01v-.855a.611.611,0,1,1,1.222,0v.855h4.887a3.025,3.025,0,0,1,3.054,3.054v2.2a.611.611,0,1,1-1.222,0v-2.2a1.8,1.8,0,0,0-1.833-1.833H48.436v1.1a.611.611,0,0,1-1.222,0v-1.1H39.272v1.1a.611.611,0,0,1-1.222,0v-1.1H33.774a1.8,1.8,0,0,0-1.833,1.833v3.543H43.854a.611.611,0,0,1,0,1.222H31.942v11.729a1.8,1.8,0,0,0,1.833,1.833h10.08a.611.611,0,1,1,0,1.222H33.774a3.025,3.025,0,0,1-3.054-3.054V113.065a3.025,3.025,0,0,1,3.054-3.054h4.276v-.855a.611.611,0,1,1,1.222,0v.855h7.942ZM36.035,121.984a4,4,0,0,0,2.382-1.466h.733v7.7H37.867V122.35a4.266,4.266,0,0,1-1.833.672Z" transform="translate(-30.72 -108.544)" fill="#486afc"/>
              </g>
            </g>
          </g>
        </g>
        <g id="A-5" data-name="A" transform="translate(13.281 8.515)">
          <g id="A-6" data-name="A" transform="translate(0 0)">
            <g id="A-7" data-name="A" transform="translate(0 0)">
              <g id="27" data-name="27">
                <path id="41" data-name="41" d="M63.007,13.183l-.121.154c.052-.187.091-.335.117-.446l.117-.5c.12-.362.042-.578-.319-.7a.53.53,0,0,0-.632.235l-.577,2.434c-.08.287-.107.5.254.623l2.263.575a.524.524,0,0,0,.725-.332.516.516,0,0,0-.39-.652l-.958-.247c.089-.064.082-.1.209-.2a6.609,6.609,0,0,1,4.242-1.734,7.03,7.03,0,0,1,6.778,6.862,6.778,6.778,0,1,1-13.556,0,.606.606,0,0,0-.6-.65.592.592,0,0,0-.581.65,7.974,7.974,0,1,0,15.948-.01,7.952,7.952,0,0,0-7.974-7.978,7.474,7.474,0,0,0-4.944,1.918ZM66.986,16.7v3.8a.569.569,0,0,0,.6.6h2.734a.557.557,0,0,0,.587-.6c0-.361-.225-.53-.587-.53H68.161V16.7a.547.547,0,0,0-.567-.608.577.577,0,0,0-.606.608Z" transform="translate(-59.977 -11.264)" fill="#f57b00"/>
              </g>
            </g>
          </g>
        </g>
      </g>
    </g>
  </g>
</svg>
