<svg id="Last_Job_Completion" data-name="Last Job Completion" xmlns="http://www.w3.org/2000/svg" width="28.71" height="24.379" viewBox="0 0 28.71 24.379">
  <g id="A" transform="translate(0 0)">
    <path id="A-2" data-name="A" d="M47.214,110.01v-.855a.611.611,0,1,1,1.222,0v.855h4.887a3.025,3.025,0,0,1,3.054,3.054v2.2a.611.611,0,1,1-1.222,0v-2.2a1.8,1.8,0,0,0-1.833-1.833H48.436v1.1a.611.611,0,0,1-1.222,0v-1.1H39.272v1.1a.611.611,0,0,1-1.222,0v-1.1H33.774a1.8,1.8,0,0,0-1.833,1.833v3.543H43.854a.611.611,0,0,1,0,1.222H31.942v11.729a1.8,1.8,0,0,0,1.833,1.833h10.08a.611.611,0,1,1,0,1.222H33.774a3.025,3.025,0,0,1-3.054-3.054V113.065a3.025,3.025,0,0,1,3.054-3.054h4.276v-.855a.611.611,0,1,1,1.222,0v.855h7.942ZM58.393,128.7a.629.629,0,1,1-1.1-.611,7.013,7.013,0,1,0-9.53,2.749,7.069,7.069,0,0,0,7.636-.55.611.611,0,1,1,.733.977,8.279,8.279,0,1,1-.977-13.867A8.357,8.357,0,0,1,58.393,128.7Zm-22.359-6.72a4,4,0,0,0,2.382-1.466h.733v7.7H37.867V122.35a4.266,4.266,0,0,1-1.833.672Z" transform="translate(-30.72 -108.544)" fill="#1ec722"/>
    <path id="A-3" data-name="A" d="M292.164,369.809a.375.375,0,0,1-.265-.11l-3.115-3.115a.374.374,0,0,1,.529-.529l2.85,2.85,5.731-5.731a.374.374,0,0,1,.529.529l-6,6A.374.374,0,0,1,292.164,369.809Z" transform="translate(-272.927 -350.192)" fill="#0e7900" stroke="#1ec722" stroke-width="0.6"/>
  </g>
  <g id="A-4" data-name="A" transform="translate(0 0)">
    <path id="A-5" data-name="A" d="M47.214,110.01v-.855a.611.611,0,1,1,1.222,0v.855h4.887a3.025,3.025,0,0,1,3.054,3.054v2.2a.611.611,0,1,1-1.222,0v-2.2a1.8,1.8,0,0,0-1.833-1.833H48.436v1.1a.611.611,0,0,1-1.222,0v-1.1H39.272v1.1a.611.611,0,0,1-1.222,0v-1.1H33.774a1.8,1.8,0,0,0-1.833,1.833v3.543H43.854a.611.611,0,0,1,0,1.222H31.942v11.729a1.8,1.8,0,0,0,1.833,1.833h10.08a.611.611,0,1,1,0,1.222H33.774a3.025,3.025,0,0,1-3.054-3.054V113.065a3.025,3.025,0,0,1,3.054-3.054h4.276v-.855a.611.611,0,1,1,1.222,0v.855h7.942ZM36.035,121.984a4,4,0,0,0,2.382-1.466h.733v7.7H37.867V122.35a4.266,4.266,0,0,1-1.833.672Z" transform="translate(-30.72 -108.544)" fill="#486afc"/>
  </g>
</svg>
