<svg id="Performance_Grading" data-name="Performance Grading" xmlns="http://www.w3.org/2000/svg" width="32.351" height="33.871" viewBox="0 0 32.351 33.871">
  <path id="A" d="M105.515,62.917l13.989,7.7-13.472,7.667L91.524,70.7l13.989-7.783m0-2.187a2.186,2.186,0,0,0-1.061.275L90.463,68.789a2.187,2.187,0,0,0,.05,3.849l14.508,7.587a2.185,2.185,0,0,0,2.095-.038l13.47-7.666a2.187,2.187,0,0,0-.027-3.816L106.57,61a2.189,2.189,0,0,0-1.055-.271Z" transform="translate(-89.34 -60.73)" fill="#486aff"/>
  <path id="A-2" data-name="A" d="M106.235,502.664a1.089,1.089,0,0,1-.507-.125l-15.633-8.176a1.093,1.093,0,0,1,1.013-1.937l15.1,7.9,14-7.967a1.094,1.094,0,1,1,1.082,1.9l-14.515,8.261A1.09,1.09,0,0,1,106.235,502.664Z" transform="translate(-89.501 -475.871)" fill="#ffb102"/>
  <path id="a-3" data-name="a" d="M106.226,689.495a1.091,1.091,0,0,1-.507-.125l-15.633-8.176a1.094,1.094,0,1,1,1.013-1.938l15.1,7.9,14-7.967a1.094,1.094,0,0,1,1.083,1.9l-14.517,8.263A1.09,1.09,0,0,1,106.226,689.495Z" transform="translate(-89.493 -655.623)" fill="#c52bff"/>
</svg>
