<svg xmlns="http://www.w3.org/2000/svg" width="32" height="32" viewBox="0 0 23.912 25.752">
  <g id="1" transform="translate(2259.803 -11769)">
    <g id="326" data-name="326" transform="translate(-2387.803 11704.2)">
      <path id="3995" data-name="3995" d="M684.57,87.02l4.514,4.514a.453.453,0,0,1-.319.773h-4.514a.45.45,0,0,1-.451-.451V87.342A.452.452,0,0,1,684.57,87.02Z" transform="translate(-539.818 -21.452)" fill="#008484"/>
      <path id="3996" data-name="3996" d="M148.913,72.164h-5.578a.585.585,0,0,1-.587-.587v-5.6a1.176,1.176,0,0,0-1.176-1.176H129.153A1.153,1.153,0,0,0,128,65.953V89.4a1.153,1.153,0,0,0,1.153,1.153h11.832a7.872,7.872,0,0,1-2.847-3.695H132.6a.917.917,0,1,1,0-1.835h5.1a8.186,8.186,0,0,1-.049-.886,7.841,7.841,0,0,1,.523-2.821H132.6a.917.917,0,1,1,0-1.834h6.587a7.841,7.841,0,0,1,10.9-1.7V73.334A1.169,1.169,0,0,0,148.913,72.164Zm-2.507,2.709a.922.922,0,0,1-.917.917H132.6a.917.917,0,1,1,0-1.835h12.89A.918.918,0,0,1,146.405,74.872Z" transform="translate(0)" fill="#008484"/>
      <path id="3997" data-name="3997" d="M533.911,525.137a6.275,6.275,0,1,0,1.837,4.437A6.234,6.234,0,0,0,533.911,525.137Z" transform="translate(-383.836 -445.316)" fill="#008484"/>
    </g>
    <path id="4063" data-name="4063" d="M301.536,177.841v.478h-.957v-.478a1.919,1.919,0,0,1-1.913-1.913h.957a.959.959,0,0,0,.956.956v-1.913a1.913,1.913,0,0,1,0-3.826v-.478h.957v.478a1.919,1.919,0,0,1,1.913,1.913h-.956a.959.959,0,0,0-.957-.956v1.913h.191a1.863,1.863,0,0,1,1.1.478,1.949,1.949,0,0,1,.67,1.435,1.992,1.992,0,0,1-1.961,1.913Zm0-.956a.956.956,0,1,0,0-1.913Zm-.957-4.782a.956.956,0,0,0,0,1.913Z" transform="translate(-2543.212 11613.779)" fill="#fff"/>
  </g>
</svg>
