<svg xmlns="http://www.w3.org/2000/svg" width="34" height="34" viewBox="0 0 34 34">
  <g id="audio-left" transform="translate(-10167 -8241)">
    <rect id="q" width="34" height="34" transform="translate(10167 8241)" fill="#fff" opacity="0"/>
    <path id="a" d="M12.483,6.584a11.756,11.756,0,0,0-8.075,4.835A1.826,1.826,0,1,0,7.545,13.29a8.273,8.273,0,0,1,5.328-3.076c2.4-.258,4.814.881,7.157,3.388a1.826,1.826,0,1,0,2.668-2.5c-3.951-4.22-7.736-4.788-10.215-4.523Zm1.236,7.194a3.506,3.506,0,1,0,3.5,3.5,3.506,3.506,0,0,0-3.5-3.5ZM12.81.016C5.921.334,1.3,5.249.449,6.231A1.826,1.826,0,1,0,3.2,8.629c.419-.482,4.257-4.712,9.775-4.964C16.739,3.492,20.532,5.2,24.25,8.752A1.826,1.826,0,0,0,26.768,6.11C22.3,1.843,17.605-.207,12.81.016Z" transform="translate(10194.789 8244) rotate(90)" fill="#449ff1"/>
  </g>
</svg>
