<svg xmlns="http://www.w3.org/2000/svg" width="34" height="34" viewBox="0 0 34 34">
  <g id="audio-right" transform="translate(-10275 -8241)">
    <g id="a">
      <rect id="q" width="34" height="34" transform="translate(10275 8241)" fill="#fff" opacity="0"/>
      <path id="a-2" data-name="a" d="M12.483,14.206A11.756,11.756,0,0,1,4.408,9.37,1.826,1.826,0,1,1,7.545,7.5a8.273,8.273,0,0,0,5.328,3.076c2.4.258,4.814-.881,7.157-3.388a1.826,1.826,0,1,1,2.668,2.5c-3.951,4.22-7.736,4.788-10.215,4.523Zm1.236-7.194a3.506,3.506,0,1,1,3.5-3.5,3.506,3.506,0,0,1-3.5,3.5ZM12.81,20.773C5.921,20.456,1.3,15.54.449,14.558a1.826,1.826,0,1,1,2.754-2.4c.419.482,4.257,4.712,9.775,4.964,3.761.173,7.554-1.538,11.272-5.088a1.826,1.826,0,0,1,2.518,2.642C22.3,18.947,17.605,21,12.81,20.773Z" transform="translate(10302.79 8244) rotate(90)" fill="#449ff1"/>
    </g>
  </g>
</svg>
