<svg xmlns="http://www.w3.org/2000/svg" width="17.916" height="15.398" viewBox="0 0 17.916 15.398">
  <path id="icon-1" d="M112.83,153.268l-3.474,2.426a.6.6,0,0,1-.958-.474v-4.906a.655.655,0,0,1,.116-.358.607.607,0,0,1,.842-.116l3.474,2.426A.677.677,0,0,1,112.83,153.268Zm-.484-6.768H95.872a.716.716,0,1,1,0-1.432h16.474a.716.716,0,1,1,0,1.432Zm0,13.966H95.872a.716.716,0,1,1,0-1.432h16.474a.716.716,0,1,1,0,1.432Zm-6.088-9.311H95.872a.716.716,0,1,1,0-1.432h10.386a.716.716,0,1,1,0,1.432Zm0,4.655h-10.4a.716.716,0,1,1,0-1.432h10.4a.718.718,0,0,1,.716.716v.009A.717.717,0,0,1,106.258,155.81Z" transform="translate(-95.147 -145.067)"/>
</svg>
