<svg xmlns="http://www.w3.org/2000/svg" width="17.915" height="15.399" viewBox="0 0 17.915 15.399">
  <path id="icon-2" d="M95.38,153.268l3.474,2.426a.6.6,0,0,0,.958-.475v-4.906a.655.655,0,0,0-.116-.358.607.607,0,0,0-.842-.116l-3.474,2.426A.677.677,0,0,0,95.38,153.268Zm.483-6.768h16.474a.716.716,0,1,0,0-1.432H95.863a.716.716,0,1,0,0,1.432Zm0,13.967h16.474a.716.716,0,1,0,0-1.432H95.863a.716.716,0,1,0,0,1.432Zm6.088-9.311h10.385a.716.716,0,0,0,0-1.432H101.951a.716.716,0,1,0,0,1.432Zm0,4.656h10.394a.716.716,0,1,0,0-1.432H101.951a.718.718,0,0,0-.716.716v.009A.717.717,0,0,0,101.951,155.811Z" transform="translate(-95.147 -145.067)"/>
</svg>
