<svg xmlns="http://www.w3.org/2000/svg" width="21.421" height="21.719" viewBox="0 0 21.421 21.719">
  <g id="Driver-1" transform="translate(-93.586 -69.818)">
    <path id="rate_8095" data-name="rate 8095" d="M103.576,193.041A4.586,4.586,0,0,1,99,188.468v-2.286h1.143v2.286a3.429,3.429,0,0,0,6.859,0v-2.286h1.143v2.286a4.586,4.586,0,0,1-4.572,4.572Zm.857,10.974H97.4a3.846,3.846,0,0,1-3.144-1.543,3.259,3.259,0,0,1-.514-2.972l.972-3.658a3.965,3.965,0,0,1,3.887-2.8h12.231v1.143H98.6a2.867,2.867,0,0,0-2.8,2l-.972,3.658a2.269,2.269,0,0,0,.343,2,2.736,2.736,0,0,0,2.229,1.086h7.03Z" transform="translate(0 -113.506)" fill="#05a797"/>
    <path id="rate_8097" data-name="rate 8097" d="M216.3,480.432l1.109-.277,1.414,5.656-1.109.277Zm7.933.654,3.424-5.136.952.634-3.424,5.137Z" transform="translate(-119.697 -396.158)" fill="#05a797"/>
    <path id="rate_8098" data-name="rate 8098" d="M574.754,563.117m-4.572,0a4.572,4.572,0,1,0,4.572-4.572A4.572,4.572,0,0,0,570.182,563.117Z" transform="translate(-464.891 -476.724)" fill="none"/>
    <path id="rate_8099" data-name="rate 8099" d="M552.053,545.56a5.144,5.144,0,1,1,5.144-5.144A5.123,5.123,0,0,1,552.053,545.56Zm0-9.145a4,4,0,1,0,4,4A3.976,3.976,0,0,0,552.053,536.415Z" transform="translate(-442.19 -454.023)" fill="#05a797"/>
    <path id="rate_8100" data-name="rate 8100" d="M659.263,672.328h-1.029l-1.943-3.887.972-.514,1.486,2.915,1.486-2.915.972.514Z" transform="translate(-548.885 -583.419)" fill="#05a797"/>
    <path id="rate_8101" data-name="rate 8101" d="M296.053,74.391c-2.858,0-5.144-1.257-5.144-2.858a1.377,1.377,0,0,1,.4-1.029c.743-.686,2.229-.686,4.172-.686h1.143c1.943,0,3.429,0,4.172.686a1.377,1.377,0,0,1,.4,1.029c0,1.6-2.286,2.858-5.144,2.858Zm-1.086-3.429c-1.257,0-2.515.057-2.858.4-.057.057-.057.057-.057.229,0,.8,1.715,1.715,4,1.715s4-.914,4-1.715c0-.114-.057-.171-.057-.229-.4-.4-1.886-.4-3.372-.4Z" transform="translate(-192.477)" fill="#05a797"/>
    <path id="rate_8096" data-name="rate 8096" d="M298.008,676.492c-.429.4.274-.441-1.955-.441a3.976,3.976,0,0,0-4,4v.572h-1.143v-.572a5.123,5.123,0,0,1,5.144-5.144c2.858,0,1.86,2.046,2.224.7Z" transform="translate(-192.477 -590.23)" fill="#05a797"/>
  </g>
</svg>
