<svg xmlns="http://www.w3.org/2000/svg" width="27.479" height="24.104" viewBox="0 0 27.479 24.104">
  <g id="Indent-1" transform="translate(-64.5 -119.3)">
    <path id="rate_8074" data-name="rate 8074" d="M91.977,133v-.015c0-.043-.006-.086-.012-.126v-.006a.5.5,0,0,0-.012-.058v-.006c-.006-.021-.009-.04-.015-.061s-.015-.052-.025-.077l-4.42-12.236a1.629,1.629,0,0,0-1.553-1.114H70.544a1.639,1.639,0,0,0-1.553,1.114l-4.42,12.236a.742.742,0,0,0-.025.077.359.359,0,0,0-.015.061s0,.006,0,.006c0,.018-.009.037-.012.055v.009l-.009.064c0,.021,0,.043-.006.064v8.7a1.72,1.72,0,0,0,1.719,1.719H90.258a1.72,1.72,0,0,0,1.719-1.719v-8.647A.148.148,0,0,0,91.977,133ZM70.946,121.507H85.534L89.3,131.932H82.016a1.1,1.1,0,0,0-1.105,1.105v2.14H75.57v-2.14a1.1,1.1,0,0,0-1.105-1.105H67.18ZM89.77,141.19H66.713v-7.048h6.646v1.771a1.474,1.474,0,0,0,1.473,1.473h6.818a1.474,1.474,0,0,0,1.473-1.473v-1.771H89.77Z" transform="translate(0 0)" fill="#2bb982"/>
    <path id="rate_8075" data-name="rate 8075" d="M332.767,259.31h6.809a1.105,1.105,0,1,0,0-2.21h-6.809a1.105,1.105,0,1,0,0,2.21Zm8.979,3.116a1.1,1.1,0,0,0-1.105-1.105h-8.936a1.105,1.105,0,1,0,0,2.21h8.936A1.108,1.108,0,0,0,341.746,262.426Z" transform="translate(-257.931 -133.57)" fill="#2bb982"/>
  </g>
</svg>
