<svg xmlns="http://www.w3.org/2000/svg" width="24.67" height="24.67" viewBox="0 0 24.67 24.67">
  <g id="Job-1" transform="translate(-32 -5.029)">
    <path id="rate_8076" data-name="rate 8076" d="M40,44.8A3.2,3.2,0,0,1,43.2,48v4.8A3.2,3.2,0,0,1,40,56H35.2A3.2,3.2,0,0,1,32,52.8V48a3.2,3.2,0,0,1,3.2-3.2Zm12.8,0A3.2,3.2,0,0,1,56,48v4.8A3.2,3.2,0,0,1,52.8,56H48a3.2,3.2,0,0,1-3.2-3.2V48A3.2,3.2,0,0,1,48,44.8ZM40,47.357H35.2a.64.64,0,0,0-.64.64v4.8a.642.642,0,0,0,.64.64H40a.64.64,0,0,0,.64-.64V48A.64.64,0,0,0,40,47.357Zm12.8,0H48a.64.64,0,0,0-.64.64v4.8a.642.642,0,0,0,.64.64h4.8a.64.64,0,0,0,.64-.64V48A.64.64,0,0,0,52.8,47.357ZM40,32a3.2,3.2,0,0,1,3.2,3.2V40A3.2,3.2,0,0,1,40,43.2H35.2A3.2,3.2,0,0,1,32,40V35.2A3.2,3.2,0,0,1,35.2,32Zm0,2.56H35.2a.64.64,0,0,0-.64.64V40a.642.642,0,0,0,.64.64H40a.64.64,0,0,0,.64-.64V35.2A.64.64,0,0,0,40,34.56Z" transform="translate(0 -26.296)" fill="#2bb982"/>
    <path id="rate_8077" data-name="rate 8077" d="M525.339,5.873l3.393,3.393a2.88,2.88,0,0,1,0,4.073l-3.393,3.393a2.879,2.879,0,0,1-4.073,0l-3.393-3.393a2.88,2.88,0,0,1,0-4.073l3.393-3.393A2.879,2.879,0,0,1,525.339,5.873Zm-1.812,1.809a.32.32,0,0,0-.451,0l-3.393,3.4a.32.32,0,0,0,0,.451l3.395,3.395a.32.32,0,0,0,.451,0l3.395-3.395a.32.32,0,0,0,0-.451Z" transform="translate(-472.906)" fill="#2bb982"/>
  </g>
</svg>
