<svg xmlns="http://www.w3.org/2000/svg" width="53.267" height="53.302" viewBox="0 0 53.267 53.302">
  <g id="icon-3" transform="translate(-15594.733 -8609.499)">
    <circle id="road_725" data-name="road 725" cx="25" cy="25" r="25" transform="translate(15596 8611)" fill="#fff"/>
    <path id="rate_8036" data-name="rate 8036" d="M110.551,108.766a26.642,26.642,0,1,1,.262-37.689,26.621,26.621,0,0,1-.262,37.689ZM91.852,75.8a13.84,13.84,0,0,0-6.031,1.386l.9-2.147-2.587-1.088L80.879,81.7l.327.137-.071.232,2.218.672.113.048.006-.012.963.291v.285c.065-.077.143-.149.214-.22l4.538,1.38L90,81.835l-2.593-.785a9.818,9.818,0,1,1-5.275,10.164h-4.2A13.989,13.989,0,1,0,91.852,75.8Z" transform="translate(15529.519 8546.36)" fill="#2bb982"/>
  </g>
</svg>
