<svg xmlns="http://www.w3.org/2000/svg" width="17.762" height="12.335" viewBox="0 0 17.762 12.335">
  <path id="Vehicle_No" data-name="Vehicle No" d="M67.482,194.96c-.059,0-.114-.005-.171-.008l1.158,1.489h0v6.908a.987.987,0,0,1-.987.987H65.508a.987.987,0,0,1-.987-.987v-1.48H55.641v1.48a.987.987,0,0,1-.987.987H52.68a.987.987,0,0,1-.987-.987v-6.908h0l1.336-1.5a2.852,2.852,0,0,1-.349.023c-.818,0-1.48-.332-1.48-.74s.663-.74,1.48-.74a1.989,1.989,0,0,1,1.3.391L55.641,192h9.374l1.352,1.738a2.286,2.286,0,0,1,1.115-.258c.818,0,1.48.332,1.48.74S68.3,194.96,67.482,194.96Zm-14.308,2.467c0,.545.773.987,1.727.987s1.727-.442,1.727-.987-.773-.987-1.727-.987S53.174,196.882,53.174,197.427Zm11.013-4.441H56.469l-1.816,2.467H66Zm1.076,3.454c-.954,0-1.727.442-1.727.987s.773.987,1.727.987,1.727-.442,1.727-.987S66.215,196.441,65.262,196.441Z" transform="translate(-51.2 -192)" fill="#fff"/>
</svg>
