<svg xmlns="http://www.w3.org/2000/svg" width="28.8" height="28.827" viewBox="0 0 28.8 28.827">
  <g id="Active" transform="translate(-66.93 -63.834)">
    <path id="a" d="M91.908,68.465a14.4,14.4,0,1,0-11.15,24.157c.193.006.387.013.58.013a14.265,14.265,0,0,0,2.94-.3,1.108,1.108,0,0,0-.455-2.169,12.174,12.174,0,1,1,8.172-6.031,1.107,1.107,0,1,0,1.937,1.073,14.406,14.406,0,0,0-2.024-16.74Z" transform="translate(0 0)" fill="#17a31a"/>
    <path id="a-2" data-name="a" d="M529.448,585.977l2.356.464a.793.793,0,0,0,.174.016.887.887,0,0,0,.168-1.757l-5.551-1.1a.888.888,0,0,0-1.041.7.019.019,0,0,1,0,.013.9.9,0,0,0-.077.406l.277,5.651a.885.885,0,0,0,.883.841h.045a.882.882,0,0,0,.841-.928l-.161-3.336,7.169,8.326a1.109,1.109,0,0,0,1.68-1.447Z" transform="translate(-443.762 -502.999)" fill="#17a31a"/>
  </g>
</svg>
