<svg xmlns="http://www.w3.org/2000/svg" width="29.868" height="29.869" viewBox="0 0 29.868 29.869">
  <path id="Approve" d="M61.48,46.545a14.891,14.891,0,0,1,10.284,4.1,1.069,1.069,0,0,1-1.523,1.5,12.8,12.8,0,1,0,3.866,7.227h.01l0-.063a1.068,1.068,0,0,1,.921-1.057l.145-.009a1.066,1.066,0,0,1,1.066,1.066l0-.043a13.63,13.63,0,0,1,.16,1.65l.01.56A14.934,14.934,0,1,1,61.48,46.545Zm13.108,5.441a1.065,1.065,0,1,1,1.5,1.513l-13.9,13.9a1.066,1.066,0,0,1-1.423.015l-6.081-6.081a1.068,1.068,0,0,1,1.511-1.51l5.279,5.281Z" transform="translate(-46.546 -46.545)" fill="#18b676"/>
</svg>
