<svg xmlns="http://www.w3.org/2000/svg" width="30.849" height="30.828" viewBox="0 0 30.849 30.828">
  <g id="Deactivate_" data-name="Deactivate " transform="translate(-87.391 -97.508)">
    <path id="a" d="M316.437,312.831a.947.947,0,0,0-1.352,0l-5.87,5.87-5.87-5.87a.956.956,0,0,0-1.352,1.352l5.87,5.87-5.843,5.843a.915.915,0,0,0,0,1.325.981.981,0,0,0,1.352,0l5.87-5.87,5.87,5.87a.981.981,0,0,0,1.352,0,.915.915,0,0,0,0-1.325l-5.9-5.87,5.87-5.87a.915.915,0,0,0,0-1.325Z" transform="translate(-206.247 -206.942)" fill="#f00c19" stroke="#f00c19" stroke-width="0.1"/>
    <path id="a-2" data-name="a" d="M118.169,112.111a.96.96,0,0,0-1-.893.944.944,0,0,0-.893,1c0,.243.027.46.027.7a13.471,13.471,0,1,1-13.471-13.471,13.154,13.154,0,0,1,5.653,1.244,6.094,6.094,0,0,1,.6.3.944.944,0,0,0,.866-1.677c-.216-.108-.46-.243-.7-.352a15.087,15.087,0,0,0-6.438-1.407,15.364,15.364,0,1,0,15.364,15.364,4.068,4.068,0,0,0,0-.812Z" fill="#f00c19" stroke="#f00c19" stroke-width="0.1"/>
    <path id="a-3" data-name="a" d="M736.024,204.479a1.028,1.028,0,1,0,1.028-1.028A1.028,1.028,0,0,0,736.024,204.479Zm-1.515-3.327a1.028,1.028,0,1,0,1.028-1.028,1.028,1.028,0,0,0-1.028,1.028Zm-2.462-2.84a1.028,1.028,0,1,0,1.028-1.028A1.028,1.028,0,0,0,732.048,198.312Z" transform="translate(-620.479 -95.993)" fill="#f00c19" stroke="#f00c19" stroke-width="0.1"/>
  </g>
</svg>
