<svg xmlns="http://www.w3.org/2000/svg" width="20.066" height="20.091" viewBox="0 0 20.066 20.091">
  <g id="Edit" transform="translate(-122.39 -127.579)">
    <path id="a" d="M141.428,128.608a3.513,3.513,0,0,1,0,4.968l-13.9,13.9a.585.585,0,0,1-.414.171h-3.555a1.171,1.171,0,0,1-1.171-1.171v-3.554a.585.585,0,0,1,.171-.414l13.9-13.9a3.513,3.513,0,0,1,4.967,0Zm-1.241,1.241a1.756,1.756,0,0,0-2.409-.07l-.076.07-13.489,13.489a.234.234,0,0,0-.068.165v2.158a.234.234,0,0,0,.234.234h2.152a.234.234,0,0,0,.165-.069l13.489-13.489a1.756,1.756,0,0,0,.071-2.409l-.07-.075Z" fill="#00b3dd"/>
    <path id="a-2" data-name="a" d="M546.034,210.3l5.067,5.067-1.266,1.266-5.067-5.067Z" transform="translate(-410.958 -80.408)" fill="#00b3dd"/>
    <path id="a-3" data-name="a" d="M490.666,795.732m.239,0h9.674a.211.211,0,0,1,.239.239v1.31a.211.211,0,0,1-.239.239H490.9a.211.211,0,0,1-.239-.239v-1.31a.211.211,0,0,1,.239-.239Z" transform="translate(-358.37 -649.853)" fill="#00b3dd"/>
    <path id="a-4" data-name="a" d="M661.332,667.732m.239,0h4.894a.211.211,0,0,1,.239.239v1.31a.211.211,0,0,1-.239.239h-4.9a.211.211,0,0,1-.239-.239v-1.31a.211.211,0,0,1,.242-.239Z" transform="translate(-524.258 -525.359)" fill="#00b3dd"/>
  </g>
</svg>
