<svg xmlns="http://www.w3.org/2000/svg" width="29.873" height="29.871" viewBox="0 0 29.873 29.871">
  <g id="Reject" transform="translate(-8538.582 -2363.18)">
    <path id="a" d="M16.225,34.743l-.008,0-.048-.014A14.938,14.938,0,1,1,35.137,17.981a1.065,1.065,0,0,1,.027.17A14.931,14.931,0,0,1,21.8,35.27c-.469.045-.942.067-1.416.067A14.832,14.832,0,0,1,16.225,34.743ZM20.4,33.2a12.8,12.8,0,0,0,2.493-.245l.04-.008.038-.008.07-.015.017,0a12.883,12.883,0,0,0,1.575-.441l.008,0,.082-.029.016-.006.065-.023a12.8,12.8,0,0,0,5.363-3.745q.142-.168.278-.34A12.844,12.844,0,0,0,33.2,20.173v-.015c0-.02,0-.041,0-.061v-.076c0-.021,0-.041,0-.062v-.013a12.81,12.81,0,0,0-.166-1.649h0a12.791,12.791,0,0,0-3.774-7.142,1.078,1.078,0,0,1-.093-.084A12.8,12.8,0,0,0,16.815,8.112a1.078,1.078,0,0,1-.115.037A12.8,12.8,0,0,0,9,14.579l-.006.011-.019.036-.011.023-.013.026-.014.028-.011.022-.019.038,0,.01-.022.046,0,0A12.779,12.779,0,0,0,7.6,20.4a12.819,12.819,0,0,0,9.421,12.35l.025.007.015,0A12.81,12.81,0,0,0,20.4,33.2Z" transform="translate(8533.118 2357.714)" fill="#ed1919"/>
    <path id="a-2" data-name="a" d="M0,15.186a1.294,1.294,0,0,1-.76-.246,1.3,1.3,0,0,1-.294-1.815L8.965-.761a1.3,1.3,0,0,1,1.815-.294A1.3,1.3,0,0,1,11.074.761L1.054,14.646A1.3,1.3,0,0,1,0,15.186Z" transform="translate(8549.5 2370.614)" fill="#ed1919"/>
  </g>
</svg>
