<svg xmlns="http://www.w3.org/2000/svg" width="30.905" height="30.92" viewBox="0 0 30.905 30.92">
  <g id="Reset_Password_" data-name="Reset Password " transform="translate(-8828 -2246.18)">
    <g id="a" transform="translate(8827.871 2245.388)">
      <path id="a-2" data-name="a" d="M28.8,24.373l.7-1.464a15.721,15.721,0,0,0,1.53-6.356,14.983,14.983,0,0,0-1.343-6.59,15.053,15.053,0,0,0-3.559-5A15.763,15.763,0,0,0,21.1,1.814,15.446,15.446,0,0,0,16.771.843c-.495-.039-1-.056-1.513-.05A15.019,15.019,0,0,0,9.273,2.131,14.9,14.9,0,0,0,4.3,5.684a16.086,16.086,0,0,0-3.149,5.042,15.367,15.367,0,0,0,.337,11.825,15.141,15.141,0,0,0,2.781,4.22A15.85,15.85,0,0,0,8.126,29.8a15.219,15.219,0,0,0,4.552,1.642,15.542,15.542,0,0,0,1.681.226,15.806,15.806,0,0,0,3.252-.085l.065-.008.066,0a1.122,1.122,0,0,0,.406-.1,1.021,1.021,0,0,0,.577-.618.978.978,0,0,0-.021-.834.963.963,0,0,0-.447-.51,1.177,1.177,0,0,0-.46-.139,1.232,1.232,0,0,0-.233,0,13.062,13.062,0,0,1-3,.115c-.421-.033-.846-.088-1.264-.163a13.591,13.591,0,0,1-4-1.387A13.318,13.318,0,0,1,5.9,25.352a12.988,12.988,0,0,1-2.441-3.681,13.178,13.178,0,0,1-1.169-5.178A13.258,13.258,0,0,1,5.861,7.159a13.425,13.425,0,0,1,9.463-4.225c.441-.007.883.007,1.314.041a13.2,13.2,0,0,1,3.7.834,13.354,13.354,0,0,1,4.312,2.7,13.17,13.17,0,0,1,3.067,4.331,12.917,12.917,0,0,1,1.153,5.589,13.492,13.492,0,0,1-1.24,5.368l-.764,1.657-1.615-.846h0c.068.457.468,4.423.576,4.616,0,0,3.9-1.808,4.385-2.054h0c-.709-.376.156.088,0,0Z" transform="translate(0 0)" fill="#15a310"/>
    </g>
    <g id="a-3" data-name="a" transform="translate(8709 2251.967)">
      <path id="a-4" data-name="a" d="M394.193,533.5a2.2,2.2,0,0,0-.529,4.341v1.277a.526.526,0,1,0,1.051,0v-1.673a.4.4,0,0,0,0-.065.525.525,0,0,0-.526-.526,1.152,1.152,0,1,1,1.037-.671.526.526,0,0,0,.955.44,2.2,2.2,0,0,0-1.992-3.124Z" transform="translate(-259.375 -524.153)" fill="#15a310" stroke="#17a31a" stroke-width="0.4"/>
      <path id="a-5" data-name="a" d="M140.4,6.9h-.929l0-2.234A4.665,4.665,0,0,0,134.833,0h-.2a4.6,4.6,0,0,0-3.28,1.372A4.653,4.653,0,0,0,130,4.669V6.9h-.944A1.054,1.054,0,0,0,128,7.954v9.04a.949.949,0,0,0,.946.946h11.563a.949.949,0,0,0,.946-.946V7.954A1.054,1.054,0,0,0,140.4,6.9Zm-9.357-2.234A3.6,3.6,0,0,1,132.1,2.113a3.545,3.545,0,0,1,2.532-1.062h.2a3.62,3.62,0,0,1,3.59,3.62l0,2.232h-7.378Zm-2,12.22V7.956l0,0H140.4l0,0v8.933Z" fill="#15a310" stroke="#17a31a" stroke-width="0.4"/>
    </g>
  </g>
</svg>
