<svg xmlns="http://www.w3.org/2000/svg" width="24.785" height="28.994" viewBox="0 0 24.785 28.994">
  <g id="Unlock" transform="translate(0.149 0.15)">
    <path id="a" d="M174.186,75.128H160.913c0-.019.006-.036.006-.055V71.029a4.988,4.988,0,0,1,5.209-4.718c2.775,0,5.209,2.065,5.209,4.419a.9.9,0,0,0,1.793,0c0-3.368-3.207-6.213-7-6.213a6.778,6.778,0,0,0-7,6.511v4.043c0,.019,0,.036.006.055h-.464a4.788,4.788,0,0,0-4.782,4.782v9.117a4.189,4.189,0,0,0,4.184,4.184h16.117a4.189,4.189,0,0,0,4.184-4.184V79.312A4.189,4.189,0,0,0,174.186,75.128Zm2.391,13.9a2.394,2.394,0,0,1-2.391,2.391H158.069a2.394,2.394,0,0,1-2.391-2.391V79.91a2.992,2.992,0,0,1,2.989-2.989h15.519a2.394,2.394,0,0,1,2.391,2.391Z" transform="translate(-153.885 -64.518)" fill="#d9c908" stroke="#d9c92b" stroke-width="0.3"/>
    <path id="a-2" data-name="a" d="M436.322,649.541h-4.959a.9.9,0,1,0,0,1.793h4.959a.9.9,0,1,0,0-1.793Z" transform="translate(-421.6 -630.786)" fill="#d9c908" stroke="#d9c92b" stroke-width="0.3"/>
  </g>
</svg>
