<svg xmlns="http://www.w3.org/2000/svg" width="34.528" height="34.532" viewBox="0 0 34.528 34.532">
  <g id="Actual" transform="translate(-4308.292 -3978.844)">
    <path id="Actual-2" data-name="Actual" d="M99.485,90.176A9.3,9.3,0,1,1,96.76,83.6a9.3,9.3,0,0,1,2.725,6.576Zm-1.152,0a8.15,8.15,0,1,0-8.15,8.15,8.15,8.15,0,0,0,8.15-8.15ZM79.81,95.71H68.157a1.346,1.346,0,0,1-1.344-1.344V68.157a1.346,1.346,0,0,1,1.344-1.344H95.072a1.346,1.346,0,0,1,1.344,1.344v12.2a.576.576,0,0,0,1.152,0v-12.2a2.5,2.5,0,0,0-2.5-2.5H68.157a2.5,2.5,0,0,0-2.5,2.5V94.366a2.5,2.5,0,0,0,2.5,2.5H79.81a.576.576,0,0,0,0-1.152ZM93.972,74.678H69.257a.576.576,0,0,1-.576-.576V69.041a.576.576,0,0,1,.576-.576H93.972a.576.576,0,0,1,.576.576V74.1a.576.576,0,0,1-.576.576Zm-.572-5.06H69.833v3.908H93.4ZM79.974,82.4a.576.576,0,0,1-.576.576H69.257a.576.576,0,0,1-.576-.576V77.339a.576.576,0,0,1,.576-.576H79.4a.576.576,0,0,1,.576.576Zm-1.152-4.484H69.833v3.908h8.989Zm15.329,2a.576.576,0,0,0,.576-.576v-2a.576.576,0,0,0-.576-.576H84.01a.576.576,0,0,0-.576.576v3.237a.576.576,0,0,0,1.152,0v-2.66h8.989V79.34a.576.576,0,0,0,.576.576ZM79.974,86.152v5.061a.576.576,0,0,1-.576.576H69.257a.576.576,0,0,1-.576-.576V86.152a.576.576,0,0,1,.576-.576H79.4a.576.576,0,0,1,.574.576Zm-1.152.576H69.833v3.908h8.989Z" transform="translate(4242.985 3913.537)" fill="#6dc492" stroke="#6dc492" stroke-width="0.7"/>
    <path id="a" d="M194.712,202.406a.755.755,0,0,1-.751-.75v-1.123l-.114-.028a3.863,3.863,0,0,1-1.187-.5,3.407,3.407,0,0,1-.766-.627.752.752,0,0,1,1.134-.987,2.125,2.125,0,0,0,.43.34,2.334,2.334,0,0,0,1.252.369,1.726,1.726,0,0,0,1.278-.5.787.787,0,0,0,.224-.606c-.052-.471-.449-.811-1.7-1.461l-.289-.148a7.336,7.336,0,0,1-1.858-1.214,2.334,2.334,0,0,1-.134-3.086,3.042,3.042,0,0,1,1.618-1l.111-.028v-1.128a.754.754,0,0,1,1.506,0v1.123l.114.027a3.914,3.914,0,0,1,1.187.5,3.447,3.447,0,0,1,.766.627.751.751,0,1,1-1.133.987,2.1,2.1,0,0,0-.431-.341,2.321,2.321,0,0,0-1.252-.37,1.724,1.724,0,0,0-1.278.5.792.792,0,0,0-.225.606c.052.469.449.811,1.7,1.459l.288.148a7.358,7.358,0,0,1,1.858,1.215,2.328,2.328,0,0,1,.134,3.084,3.035,3.035,0,0,1-1.617,1l-.113.029v1.13a.751.751,0,0,1-.753.753Z" transform="translate(4138.46 3808.024)" fill="#6dc492" stroke="#6dc492" stroke-width="0.2"/>
  </g>
</svg>
