<svg xmlns="http://www.w3.org/2000/svg" width="37.379" height="30.876" viewBox="0 0 37.379 30.876">
  <g id="Budget" transform="translate(-4358.643 -3979.195)">
    <g id="Budget-2" data-name="Budget" transform="translate(4273.31 3851.195)">
      <path id="a" d="M563.865,343.006H555.5a.836.836,0,1,1,0-1.672h8.363a.836.836,0,0,1,0,1.672Z" transform="translate(-450.936 -204.971)" fill="#fff"/>
      <path id="a-2" data-name="a" d="M222.532,637.406H214.17a.836.836,0,1,1,0-1.673h8.363a.836.836,0,0,1,0,1.673Zm0,3.763H214.17a.836.836,0,1,1,0-1.673h8.363a.836.836,0,0,1,0,1.673Z" transform="translate(-122.982 -487.83)" fill="#fff"/>
      <path id="a-3" data-name="a" d="M222.532,343.006H214.17a.836.836,0,1,1,0-1.672h8.363a.836.836,0,0,1,0,1.672Z" transform="translate(-122.982 -204.971)" fill="#fff"/>
      <path id="a-4" data-name="a" d="M320.836,244.7a.79.79,0,0,1-.836-.836V235.5a.836.836,0,0,1,1.672,0v8.363a.79.79,0,0,1-.836.837Z" transform="translate(-225.468 -102.485)" fill="#fff"/>
      <path id="a-5" data-name="a" d="M102.895,158.1H87.842a2.464,2.464,0,0,1-2.509-2.509V130.509A2.464,2.464,0,0,1,87.842,128h28.433a2.464,2.464,0,0,1,2.509,2.509v6.69a.836.836,0,1,1-1.673,0v-6.69a.79.79,0,0,0-.836-.836H87.842a.79.79,0,0,0-.836.836V155.6a.79.79,0,0,0,.836.836H102.9a.837.837,0,0,1,0,1.673Z" fill="#fff"/>
    </g>
    <path id="a-6" data-name="a" d="M196.811,206.746a9.887,9.887,0,1,1,7-2.9A9.832,9.832,0,0,1,196.811,206.746Zm0-18.26a8.369,8.369,0,1,0,8.369,8.369A8.377,8.377,0,0,0,196.811,188.486Zm0,15.065a.765.765,0,0,1-.761-.76v-1.137l-.115-.029a3.911,3.911,0,0,1-1.2-.506,3.452,3.452,0,0,1-.776-.635.761.761,0,0,1,1.148-1,2.151,2.151,0,0,0,.435.345,2.364,2.364,0,0,0,1.268.374,1.749,1.749,0,0,0,1.294-.5.8.8,0,0,0,.227-.614c-.052-.477-.455-.821-1.721-1.48l-.293-.15a7.43,7.43,0,0,1-1.882-1.23,2.364,2.364,0,0,1-.136-3.125,3.081,3.081,0,0,1,1.639-1.01l.113-.029v-1.143a.764.764,0,0,1,1.525,0v1.137l.115.027a3.964,3.964,0,0,1,1.2.506,3.49,3.49,0,0,1,.776.635.761.761,0,1,1-1.147,1,2.123,2.123,0,0,0-.437-.345,2.351,2.351,0,0,0-1.268-.375,1.746,1.746,0,0,0-1.294.5.8.8,0,0,0-.228.614c.052.475.455.822,1.723,1.478l.291.15a7.452,7.452,0,0,1,1.882,1.231,2.357,2.357,0,0,1,.136,3.124,3.074,3.074,0,0,1-1.637,1.008l-.114.029v1.144a.761.761,0,0,1-.762.762Z" transform="translate(4189.27 3803.275)" fill="#fff" stroke="#fff" stroke-width="0.1"/>
  </g>
</svg>
