<svg xmlns="http://www.w3.org/2000/svg" width="24.736" height="25.37" viewBox="0 0 24.736 25.37">
  <path id="Calendar" d="M166.365,156.452h3.683a1,1,0,0,0,0-1.991h-3.683a1,1,0,0,0,0,1.991Zm0,3.969h3.683a1,1,0,0,0,0-1.991h-3.683a1,1,0,1,0,0,1.991Zm6.172-17.527h-2.612v-1a1,1,0,1,0-1.991,0v1H160v-1a1,1,0,1,0-1.991,0v1h-2.278a3.982,3.982,0,0,0-3.969,3.969V162.3a3.982,3.982,0,0,0,3.969,3.969h16.8a3.982,3.982,0,0,0,3.969-3.969v-15.44a3.961,3.961,0,0,0-3.956-3.969Zm1.985,19.41a1.991,1.991,0,0,1-1.985,1.985h-16.8a1.991,1.991,0,0,1-1.985-1.985V150.832h20.774Zm0-13.456H153.748v-1.985a1.991,1.991,0,0,1,1.985-1.985h2.278v1a1,1,0,1,0,1.991,0v-1h7.945v1a1,1,0,0,0,1.991,0v-1h2.612a1.991,1.991,0,0,1,1.985,1.985v1.985ZM157.7,160.421h3.683a1,1,0,0,0,0-1.991H157.7a1,1,0,1,0,0,1.991Zm0-3.969h3.683a1,1,0,0,0,0-1.991H157.7a1,1,0,1,0,0,1.991Z" transform="translate(-151.757 -140.902)" fill="#549d26"/>
</svg>
