<svg xmlns="http://www.w3.org/2000/svg" width="40" height="40" viewBox="0 0 66 66">
  <g id="create" transform="translate(-42 -37)">
    <g id="a" transform="translate(-270 -292)">
      <g id="a-2" data-name="a" transform="translate(312 329)" fill="#daf8e7" stroke="#1a8d4a" stroke-width="1">
        <circle cx="33" cy="33" r="33" stroke="none"/>
        <circle cx="33" cy="33" r="32.5" fill="none"/>
      </g>
      <path id="a-3" data-name="a" d="M161.03,146.78l-14.453,0V132.273a1.457,1.457,0,1,0-2.915,0v14.5l-14.682-.008h0a1.457,1.457,0,0,0-.006,2.915l14.692.008v14.536a1.457,1.457,0,1,0,2.915,0V149.7l14.441,0h.006a1.457,1.457,0,0,0,.006-2.915Z" transform="translate(199.789 213.466)" fill="#1a8d4a"/>
    </g>
  </g>
</svg>
