<svg xmlns="http://www.w3.org/2000/svg" width="33.248" height="38.083" viewBox="0 0 33.248 38.083">
  <g id="Holding" transform="translate(-123.375 -66.863)">
    <path id="a" d="M304.814,347.57a1.957,1.957,0,0,1,1.955,1.955,1.188,1.188,0,1,0,2.376,0,4.337,4.337,0,0,0-4.331-4.329h-3.982v-1.745a1.187,1.187,0,1,0-2.373,0V345.2h-3.982a4.33,4.33,0,0,0-4.328,4.329V350a4.333,4.333,0,0,0,4.328,4.329h3.982v4.749h-3.982a1.957,1.957,0,0,1-1.955-1.955,1.187,1.187,0,0,0-2.373,0,4.334,4.334,0,0,0,4.328,4.331h3.982V362.9a1.187,1.187,0,1,0,2.373,0V361.45h3.982a4.336,4.336,0,0,0,4.331-4.331v-.843a4.336,4.336,0,0,0-4.331-4.328h-3.982V347.57Zm-6.355,4.378h-3.982a1.958,1.958,0,0,1-1.955-1.956v-.471a1.959,1.959,0,0,1,1.955-1.956h3.982Zm6.355,2.373a1.958,1.958,0,0,1,1.955,1.955v.843a1.958,1.958,0,0,1-1.955,1.955h-3.982v-4.752Z" transform="translate(-159.639 -263.621)" fill="#6dc492"/>
    <path id="a-2" data-name="a" d="M156.623,90.1a16.014,16.014,0,0,0-13.492-15.82l3.329-3.383a2.385,2.385,0,0,0-1.7-4.031h-9.41a2.415,2.415,0,0,0-1.8,4.031l3.333,3.383a16.02,16.02,0,0,0-13.5,15.82V91.71c0,.02-.009.036-.009.056v9.7a3.483,3.483,0,0,0,3.48,3.48h26.286a3.483,3.483,0,0,0,3.48-3.48V95.724h0V90.1ZM135.347,69.331h9.319l-4.375,4.448a.384.384,0,0,1-.284.116.392.392,0,0,1-.286-.116Zm18.9,32.134a1.1,1.1,0,0,1-1.1,1.1H126.855a1.1,1.1,0,0,1-1.1-1.1V95.724h.009V90.1A13.628,13.628,0,0,1,139.4,76.455h1.209A13.623,13.623,0,0,1,154.25,90.07c.012.5.014,1.039-.009,1.67,0,.009,0,.016,0,.026Z" fill="#6dc492"/>
  </g>
</svg>
