<svg t="1697425412705" class="icon" viewBox="0 0 1024 1024" version="1.1" xmlns="http://www.w3.org/2000/svg" p-id="1619" width="38" height="38"><path d="M884.363636 0H139.636364a139.636364 139.636364 0 0 0-139.636364 139.636364v744.727272a139.636364 139.636364 0 0 0 139.636364 139.636364h744.727272a139.636364 139.636364 0 0 0 139.636364-139.636364V139.636364a139.636364 139.636364 0 0 0-139.636364-139.636364z m-160.581818 565.061818h-158.72v158.72a53.061818 53.061818 0 0 1-106.123636 0v-158.72H300.218182a53.061818 53.061818 0 1 1 0-106.123636h158.72V300.218182a53.061818 53.061818 0 1 1 106.123636 0v158.72h159.185455a53.061818 53.061818 0 0 1 0 106.123636z" fill="#1F7246" p-id="1620"></path></svg>