<svg xmlns="http://www.w3.org/2000/svg" width="38" height="34.769" viewBox="0 0 38 34.769">
  <g id="Projection" transform="translate(-515 -314)">
    <g id="a" transform="translate(401.356 251.306)">
      <path id="a-2" data-name="a" d="M298.357,345.234a1.1,1.1,0,0,1,1.094,1.094.665.665,0,1,0,1.33,0,2.427,2.427,0,0,0-2.424-2.423h-2.229v-.976a.664.664,0,0,0-1.328,0v.976h-2.229a2.424,2.424,0,0,0-2.423,2.423v.263a2.425,2.425,0,0,0,2.423,2.423H294.8v2.658h-2.229a1.1,1.1,0,0,1-1.094-1.094.664.664,0,0,0-1.328,0A2.426,2.426,0,0,0,292.571,353H294.8v.809a.664.664,0,1,0,1.328,0V353h2.229a2.427,2.427,0,0,0,2.424-2.424v-.472a2.427,2.427,0,0,0-2.424-2.423h-2.229v-2.451Zm-3.557,2.451h-2.229a1.1,1.1,0,0,1-1.094-1.095v-.263a1.1,1.1,0,0,1,1.094-1.095H294.8Zm3.557,1.328a1.1,1.1,0,0,1,1.094,1.094v.472a1.1,1.1,0,0,1-1.094,1.094h-2.229v-2.66Z" transform="translate(-159.639 -263.621)" fill="#6dc492"/>
    </g>
    <path id="a-3" data-name="a" d="M68.968,82.715,58.659,88.667H53.477l14.944-8.628a1.727,1.727,0,0,1,2.359.633L75.4,88.667h3.544a1.727,1.727,0,0,1,1.727,1.727v22.455a1.727,1.727,0,0,1-1.727,1.727H44.394a1.727,1.727,0,0,1-1.727-1.727V90.395a1.727,1.727,0,0,1,1.727-1.727H72.4l-3.436-5.952Zm9.108,8.543H45.258V96.44H53.03a5.182,5.182,0,1,1,0,10.364H45.258v5.182H78.076ZM53.03,99.031H45.258v5.182H53.03a2.591,2.591,0,0,0,.152-5.177Zm21.159,0a1.3,1.3,0,0,1,1.3,1.3v2.591a1.3,1.3,0,0,1-2.591,0v-2.591A1.3,1.3,0,0,1,74.189,99.031Z" transform="translate(472.333 234.192)" fill="#6dc492"/>
  </g>
</svg>
