<svg xmlns="http://www.w3.org/2000/svg" width="13.208" height="13.208" viewBox="0 0 13.208 13.208">
  <path id="Projection" d="M63.738,70.547A1.446,1.446,0,0,1,62.293,69.1V65.388a1.447,1.447,0,0,1,1.445-1.444H69.1a1.446,1.446,0,0,1,1.444,1.444V69.1A1.446,1.446,0,0,1,69.1,70.547Zm-.207-5.159V69.1a.207.207,0,0,0,.207.207H69.1a.207.207,0,0,0,.207-.207V65.388a.208.208,0,0,0-.207-.207H63.738A.207.207,0,0,0,63.532,65.388ZM59.61,68.9a2.272,2.272,0,0,1-2.27-2.27V59.609a2.273,2.273,0,0,1,2.27-2.27h8.668a2.272,2.272,0,0,1,2.27,2.27v2.064a.619.619,0,1,1-1.238,0V59.609a1.034,1.034,0,0,0-1.032-1.032H59.61a1.034,1.034,0,0,0-1.032,1.032v7.018a1.033,1.033,0,0,0,1.032,1.032h.413a.619.619,0,0,1,0,1.238Z" transform="translate(-57.34 -57.339)" fill="#fc7122"/>
</svg>
