<svg xmlns="http://www.w3.org/2000/svg" width="44.178" height="44.178" viewBox="0 0 44.178 44.178">
  <g id="right" transform="translate(108.178 108.178) rotate(180)">
    <path id="a" d="M105.022,86.089a18.933,18.933,0,1,0-18.933,18.933A18.933,18.933,0,0,0,105.022,86.089Zm3.156,0A22.089,22.089,0,1,1,86.089,64,22.089,22.089,0,0,1,108.178,86.089Z" fill="#1a8d4a"/>
    <path id="a-2" data-name="a" d="M333.566,278.422a1.584,1.584,0,1,1-2.24,2.24l-11.044-11.044a1.578,1.578,0,0,1,0-2.24l11.044-11.044a1.584,1.584,0,0,1,2.24,2.24l-9.94,9.924Z" transform="translate(-243.201 -182.409)" fill="#1a8d4a"/>
  </g>
</svg>
