<svg xmlns="http://www.w3.org/2000/svg" width="17.639" height="15.5" viewBox="0 0 17.639 15.5">
  <g id="spent" transform="translate(-66.523 -125.461)">
    <path id="a" d="M82.978,129.385H81.686L72.2,125.547a1.185,1.185,0,0,0-1.569.724l-.261.783-.536-.087a1.187,1.187,0,0,0-1.358.974l-.241,1.443h-.531a1.186,1.186,0,0,0-1.185,1.185v9.206a1.186,1.186,0,0,0,1.185,1.185h15.27a1.186,1.186,0,0,0,1.185-1.185V130.57A1.186,1.186,0,0,0,82.978,129.385Zm-11.593-2.865a.395.395,0,0,1,.523-.241l7.674,3.106h-9.15Zm-2.125,1.552a.4.4,0,0,1,.453-.325l.409.066-.523,1.572H69.04Zm14.113,11.7a.4.4,0,0,1-.395.395H67.708a.4.4,0,0,1-.395-.395V130.57a.4.4,0,0,1,.395-.395h15.27a.4.4,0,0,1,.395.395Z" transform="translate(0 0)" fill="#fc7122"/>
    <path id="a-2" data-name="a" d="M292.857,393.708a4.429,4.429,0,1,0,4.429,4.429A4.434,4.434,0,0,0,292.857,393.708Zm-3.639,4.429a3.644,3.644,0,0,1,3.3-3.624v.521a1.985,1.985,0,0,0-1.65,1.907,1.63,1.63,0,0,0,.441,1.119,1.967,1.967,0,0,0,1.483.539,1.609,1.609,0,0,1,1.186.368.827.827,0,0,1,.219.57.235.235,0,0,0,0,.033c0,.485-.581.894-1.269.894a1.22,1.22,0,0,1-1.269-1.162.395.395,0,0,0-.79,0,1.985,1.985,0,0,0,1.65,1.913v.545A3.644,3.644,0,0,1,289.218,398.137Zm4.092,3.611v-.522a2.24,2.24,0,0,0,1.039-.43,1.544,1.544,0,0,0,.641-1.211,1.611,1.611,0,0,0-.418-1.143,2.3,2.3,0,0,0-1.776-.632,1.233,1.233,0,0,1-.907-.289.859.859,0,0,1-.227-.558c0-.006,0-.007,0-.014a1.274,1.274,0,0,1,2.538,0,.395.395,0,1,0,.79,0,1.986,1.986,0,0,0-1.68-1.919v-.5a3.639,3.639,0,0,1,0,7.222Z" transform="translate(-217.525 -262.952)" fill="#fc7122"/>
  </g>
</svg>
