<svg xmlns="http://www.w3.org/2000/svg" width="17.357" height="17.361" viewBox="0 0 17.357 17.361">
  <g id="Wallet" transform="translate(-4408.643 -3979.195)">
    <g id="Wallet-2" data-name="Wallet" transform="translate(4408.631 3979.195)">
      <path id="a" d="M15.743,170.64a1.378,1.378,0,0,1-.207-.014l-14.1-1.83a1.646,1.646,0,0,1-1.42-1.637v-9.586a1.658,1.658,0,0,1,.561-1.246,1.615,1.615,0,0,1,1.272-.391l14.1,1.83a1.647,1.647,0,0,1,1.42,1.637v9.588a1.654,1.654,0,0,1-.562,1.246,1.611,1.611,0,0,1-1.064.4Zm-14.1-13.631a.532.532,0,0,0-.349.134.572.572,0,0,0-.193.432v9.586a.558.558,0,0,0,.476.561l14.1,1.83a.525.525,0,0,0,.417-.128.572.572,0,0,0,.193-.432V159.4a.558.558,0,0,0-.476-.561l-14.1-1.83a.445.445,0,0,0-.073,0Z" transform="translate(0 -153.28)" fill="#fc7122"/>
      <path id="a-2" data-name="a" d="M.555,15.082a.543.543,0,0,1-.543-.542V3.67A1.635,1.635,0,0,1,1.388,2.04L14.137.019a1.618,1.618,0,0,1,1.3.368,1.656,1.656,0,0,1,.58,1.262V4.911a.543.543,0,1,1-1.087,0V1.65a.576.576,0,0,0-.2-.437.523.523,0,0,0-.425-.122L1.558,3.111A.556.556,0,0,0,1.1,3.67V14.541a.542.542,0,0,1-.542.542Z" fill="#fc7122"/>
    </g>
    <path id="a-3" data-name="a" d="M193.938,199.013a.561.561,0,0,1-.558-.557v-.834l-.085-.021a2.869,2.869,0,0,1-.881-.371,2.53,2.53,0,0,1-.569-.465.558.558,0,0,1,.842-.733,1.577,1.577,0,0,0,.319.253,1.733,1.733,0,0,0,.93.274,1.282,1.282,0,0,0,.949-.368.584.584,0,0,0,.166-.45c-.038-.349-.333-.6-1.262-1.085l-.215-.11a5.446,5.446,0,0,1-1.38-.9,1.733,1.733,0,0,1-.1-2.291,2.259,2.259,0,0,1,1.2-.74l.083-.021v-.838a.56.56,0,0,1,1.118,0v.834l.085.02a2.906,2.906,0,0,1,.881.371,2.559,2.559,0,0,1,.569.465.558.558,0,1,1-.841.733,1.556,1.556,0,0,0-.32-.253,1.723,1.723,0,0,0-.929-.275,1.28,1.28,0,0,0-.949.369.588.588,0,0,0-.167.45c.038.348.333.6,1.263,1.084l.213.11a5.464,5.464,0,0,1,1.38.9,1.728,1.728,0,0,1,.1,2.29,2.254,2.254,0,0,1-1.2.739l-.084.021v.839a.558.558,0,0,1-.559.559Z" transform="translate(4223.281 3795.149)" fill="#fc7122"/>
  </g>
</svg>
